<?xml version="1.0" encoding="UTF-8" standalone="no"?>
<svg width="129px" height="137px" viewBox="0 0 129 137" version="1.1" xmlns="http://www.w3.org/2000/svg" xmlns:xlink="http://www.w3.org/1999/xlink">
    <!-- Generator: Sketch 43.2 (39069) - http://www.bohemiancoding.com/sketch -->
    <title>tee</title>
    <desc>Created with Sketch.</desc>
    <defs/>
    <g id="Illustrations" stroke="none" stroke-width="1" fill="none" fill-rule="evenodd">
        <g id="Illustrations-Product-Preview-Apparel---Detailed" transform="translate(-30.000000, -112.000000)" fill-rule="nonzero" fill="#41364F">
            <g id="tee" transform="translate(30.000000, 112.000000)">
                <path d="M80.96917,0 C81.4790514,0.204477612 81.9379447,0.562313433 82.6007905,0.306716418 C82.9067194,0.153358209 83.4166008,0.460074627 83.8245059,0.613432836 C84.6403162,0.869029851 85.4561265,1.12462687 86.2719368,1.38022388 C87.1897233,1.6869403 88.1075099,1.94253731 89.0252964,2.30037313 C90.5039526,2.86268657 92.0335968,3.425 93.512253,3.98731343 C94.1750988,4.24291045 94.9399209,4.29402985 95.5007905,4.65186567 C96.3675889,5.2141791 97.3873518,5.26529851 98.2541502,5.62313433 C99.1209486,5.98097015 99.9367589,6.33880597 100.803557,6.69664179 C101.568379,7.05447761 102.38419,7.36119403 103.149012,7.71902985 C104.168775,8.17910448 105.188538,8.69029851 106.157312,9.15037313 C106.973123,9.55932836 107.788933,10.019403 108.655731,10.275 C109.675494,10.5817164 110.542292,11.0929104 111.460079,11.6041045 C111.766008,11.7574627 112.071937,11.9619403 112.326877,12.1664179 C113.0917,12.8309701 113.805534,13.5466418 114.621344,14.1089552 C115.590119,14.7735075 115.998024,15.7447761 116.558893,16.6649254 C117.119763,17.636194 117.47668,18.7097015 117.986561,19.7320896 C118.343478,20.4988806 118.751383,21.2145522 119.1083,21.9813433 C119.516206,22.9014925 119.822134,23.8216418 120.179051,24.741791 C120.637945,26.0197761 121.096838,27.2466418 121.555731,28.5246269 C122.116601,30.058209 122.67747,31.591791 123.23834,33.1253731 C123.442292,33.6365672 123.748221,34.1477612 123.850198,34.6589552 C124.003162,35.6813433 124.513043,36.5503731 124.767984,37.4705224 C125.022925,38.3906716 125.379842,39.2597015 125.685771,40.1287313 C125.838735,40.588806 126.042688,41.0488806 126.195652,41.4578358 C126.501581,42.1735075 126.858498,42.9402985 127.164427,43.6559701 C127.521344,44.4738806 127.776285,45.3429104 128.235178,46.0585821 C128.592095,46.6208955 128.745059,47.1320896 128.541107,47.694403 C128.490119,47.8477612 128.388142,48.1033582 128.286166,48.1544776 C127.878261,48.205597 127.725296,48.4100746 127.470356,48.716791 C127.164427,49.0235075 126.603557,49.0235075 126.144664,49.2279851 C125.634783,49.4324627 125.124901,49.7391791 124.61502,49.9436567 C124.105138,50.1481343 123.544269,50.2503731 123.034387,50.4548507 C122.779447,50.5570896 122.524506,50.7104478 122.218577,50.8126866 L122.167589,50.863806 C122.116601,50.863806 122.065613,50.8126866 122.065613,50.8126866 C121.606719,51.2216418 120.994862,51.2216418 120.433992,51.3238806 C119.924111,51.375 119.414229,51.8350746 118.904348,52.0395522 C118.445455,52.2440299 117.986561,52.3973881 117.527668,52.4996269 C116.66087,52.7041045 115.794071,52.9597015 114.927273,53.3686567 C114.111462,53.7264925 113.193676,53.9309701 112.326877,54.1865672 C112.071937,54.288806 111.867984,54.3910448 111.664032,54.4932836 C110.644269,55.2089552 109.369565,55.1578358 108.247826,55.4134328 C106.922134,55.7201493 105.596443,55.9757463 104.321739,56.4358209 C104.01581,56.5380597 103.658893,56.7936567 103.2,56.5891791 C103.047036,56.5380597 102.63913,56.9981343 102.537154,56.9470149 C102.180237,56.6914179 102.027273,56.9981343 101.772332,57.1003731 C101.262451,57.2026119 101.211462,57.5604478 101.211462,58.0205224 C101.160474,59.6052239 101.211462,61.1899254 101.00751,62.7235075 C100.803557,64.4615672 101.109486,66.1485075 101.109486,67.8865672 C101.109486,69.3690299 100.956522,70.9026119 100.956522,72.3850746 C100.905534,73.7652985 100.905534,75.1455224 100.905534,76.4746269 L100.905534,82.6600746 L100.905534,88.283209 C100.905534,89.9190299 100.854545,91.5548507 100.803557,93.1395522 C100.803557,94.2641791 100.752569,95.4399254 100.803557,96.5645522 C100.854545,97.8425373 101.058498,99.1716418 101.160474,100.449627 C101.211462,101.318657 101.262451,102.238806 101.313439,103.107836 C101.364427,104.590299 101.262451,106.123881 101.466403,107.606343 C101.772332,110.008955 101.517391,112.360448 101.568379,114.76306 C101.619368,117.31903 101.619368,119.823881 101.670356,122.379851 C101.670356,124.424627 101.670356,126.520522 101.721344,128.565299 C101.721344,130.15 101.82332,131.683582 101.82332,133.268284 C101.82332,133.677239 101.364427,133.932836 100.956522,133.779478 C100.650593,133.677239 100.344664,133.677239 100.038735,133.677239 C99.0699605,133.728358 98.2541502,134.290672 97.2853755,134.341791 C96.4695652,134.39291 95.7047431,134.699627 94.8889328,134.801866 C93.9201581,134.904104 92.9003953,134.904104 91.9316206,135.057463 C91.0648221,135.210821 90.1980237,134.955224 89.3312253,135.31306 C88.8213439,135.517537 88.2094862,135.517537 87.6486166,135.568657 C86.8328063,135.619776 86.016996,135.722015 85.1501976,135.722015 C83.7225296,135.773134 82.3458498,135.773134 80.9181818,135.824254 C79.4905138,135.875373 78.0628458,135.977612 76.6351779,136.079851 C75.4624506,136.18209 74.3407115,136.386567 73.1679842,136.437687 C71.5873518,136.539925 70.0067194,136.591045 68.426087,136.642164 C67.355336,136.693284 66.3355731,136.693284 65.2648221,136.693284 C64.1940711,136.693284 63.072332,136.591045 62.001581,136.539925 C61.3387352,136.488806 60.6758893,136.386567 60.0130435,136.335448 C58.1774704,136.18209 56.3928854,136.079851 54.5573123,135.977612 C53.1806324,135.875373 51.8549407,135.824254 50.4782609,135.722015 C48.4387352,135.568657 46.3482213,135.31306 44.3086957,135.108582 C43.0849802,135.006343 41.912253,134.904104 40.6885375,134.750746 C39.6177866,134.597388 38.4960474,134.39291 37.4252964,134.239552 C35.6916996,133.932836 33.9071146,133.626119 32.1735178,133.319403 C31.0517787,133.114925 29.9810277,132.808209 28.8592885,132.654851 C27.7375494,132.450373 26.6158103,132.399254 25.4940711,132.245896 L25.3920949,132.245896 C25.0351779,132.194776 24.6272727,132.245896 24.4233202,132.041418 C24.2703557,131.88806 24.372332,131.427985 24.372332,131.121269 C24.3213439,129.587687 24.2703557,128.054104 24.2703557,126.520522 C24.2703557,125.293657 24.3213439,124.066791 24.2703557,122.839925 C24.2703557,120.74403 24.2193676,118.648134 24.2193676,116.552239 L24.2193676,105.766045 C24.2193676,104.43694 24.1173913,103.158955 24.1173913,101.829851 C24.1683794,99.8873134 24.2703557,97.8936567 24.3213439,95.9511194 C24.372332,94.8264925 24.372332,93.7529851 24.3213439,92.6283582 C24.2703557,90.6347015 24.2703557,88.6410448 24.1683794,86.6985075 C24.1173913,85.1649254 24.015415,83.6313433 23.9644269,82.0977612 C23.9134387,80.4619403 23.8624506,78.8261194 23.8114625,77.1902985 C23.7604743,75.2988806 23.658498,73.4585821 23.5565217,71.5671642 C23.5055336,70.6470149 23.5565217,69.6757463 23.5565217,68.7044776 L23.5565217,63.4391791 C23.6075099,61.3432836 23.6075099,59.2473881 23.7094862,57.1003731 C23.7604743,55.9246269 23.8114625,55.8735075 22.6387352,55.566791 C21.5679842,55.2600746 20.4462451,55.1067164 19.3245059,54.8511194 C18.3047431,54.5955224 17.3359684,54.3399254 16.3162055,54.0843284 C15.4494071,53.8798507 14.6335968,53.7264925 13.7667984,53.4708955 C12.2371542,53.0108209 10.7075099,52.4996269 9.12687747,51.9884328 C8.26007905,51.7328358 7.39328063,51.4772388 6.52648221,51.119403 C5.50671937,50.7104478 4.43596838,50.3014925 3.51818182,49.7391791 C2.54940711,49.1768657 1.6826087,48.461194 0.764822134,47.8477612 C0.611857708,47.7455224 0.407905138,47.7455224 0.254940711,47.694403 L0.254940711,47.3365672 C0.305928854,47.2854478 0.356916996,47.2343284 0.356916996,47.183209 C0.66284585,46.0074627 0.968774704,44.8828358 1.3256917,43.7070896 C1.83557312,42.1735075 2.44743083,40.6910448 3.0083004,39.2085821 C3.56916996,37.7772388 4.13003953,36.3970149 4.63992095,34.9656716 C4.89486166,34.3522388 5.09881423,33.7899254 5.35375494,33.1764925 C5.60869565,32.4608209 5.86363636,31.7451493 6.11857708,31.0294776 C6.47549407,30.0070896 6.88339921,29.0358209 7.29130435,28.0134328 C7.75019763,26.7354478 8.10711462,25.4063433 8.71897233,24.1794776 C9.8916996,21.6746269 11.1664032,19.2720149 12.4920949,16.8182836 C13.3588933,15.2335821 14.3786561,13.7 16.0612648,12.7798507 C17.8458498,11.7574627 19.6304348,10.786194 21.4150198,9.86604478 C22.4857708,9.35485075 23.5565217,8.94589552 24.6272727,8.43470149 C26.0039526,7.82126866 27.3806324,7.20783582 28.7573123,6.59440299 C29.9810277,6.08320896 31.2047431,5.62313433 32.4284585,5.1119403 C33.3462451,4.75410448 34.1620553,4.29402985 35.0798419,3.88507463 C35.9976285,3.4761194 36.9664032,3.11828358 37.8841897,2.76044776 C39.2098814,2.19813433 40.484585,1.48246269 41.8102767,1.12462687 C43.7988142,0.562313433 45.7873518,0.255597015 47.8778656,0.255597015 C49.9683794,0.255597015 52.0079051,0.408955224 53.9964427,0.971268657 C56.5968379,1.6869403 59.2992095,2.14701493 62.001581,2.14701493 C64.5,2.14701493 66.998419,2.04477612 69.4968379,1.89141791 C71.0264822,1.7891791 72.5561265,1.53358209 74.0857708,1.27798507 C75.6664032,1.02238806 77.1960474,0.664552239 78.7766798,0.357835821 C79.3885375,0.255597015 80.0003953,0.102238806 80.612253,1.45290082e-13 C80.8671937,0 80.9181818,0 80.96917,0 Z M123.901186,43.2981343 C123.952174,43.3492537 124.003162,43.4514925 124.105138,43.5026119 C124.05415,43.4003731 124.05415,43.2981343 124.003162,43.1958955 C123.748221,42.4802239 123.493281,41.7134328 123.187352,40.9977612 C122.881423,40.2820896 122.473518,39.6175373 122.218577,38.9018657 C121.810672,37.8794776 121.555731,36.7548507 121.147826,35.7324627 C120.535968,34.1477612 119.873123,32.5630597 119.261265,30.9272388 C118.394466,28.6268657 117.629644,26.2242537 116.66087,23.9238806 C115.692095,21.5723881 114.468379,19.3231343 113.397628,17.0227612 C112.836759,15.8470149 111.96996,14.9268657 110.950198,14.211194 C110.389328,13.8022388 109.77747,13.4955224 109.165613,13.188806 C108.14585,12.6776119 107.126087,12.1152985 106.106324,11.6552239 C105.290514,11.2973881 104.423715,10.9906716 103.607905,10.6328358 C102.996047,10.3772388 102.435178,10.019403 101.82332,9.76380597 C100.650593,9.25261194 99.5288538,8.79253731 98.3561265,8.33246269 C97.2853755,7.92350746 96.2146245,7.46343284 95.1948617,7.05447761 C94.5320158,6.7988806 93.8181818,6.64552239 93.2063241,6.33880597 C91.7786561,5.67425373 91.8806324,5.62313433 90.0960474,5.57201493 C90.0450593,5.57201493 89.9940711,5.52089552 89.943083,5.46977612 C89.2802372,5.1630597 88.5664032,4.90746269 87.9035573,4.60074627 C87.4956522,4.39626866 87.3936759,4.44738806 87.2407115,4.85634328 C87.0367589,5.41865672 86.7818182,6.03208955 86.373913,6.49216418 C83.4675889,9.55932836 80.3573123,12.3708955 76.3802372,14.0067164 C75.972332,14.1600746 75.4624506,14.211194 75.2075099,14.6712687 C75.2075099,14.7223881 75.0545455,14.7223881 75.0035573,14.7223881 C74.3407115,14.9779851 73.6268775,15.2335821 72.9640316,15.4891791 C72.5051383,15.6425373 71.9952569,15.5914179 71.5873518,15.8470149 C70.9754941,16.2048507 70.3636364,16.4604478 69.6498024,16.4604478 C69.4458498,16.4604478 69.2418972,16.4093284 69.0379447,16.4604478 C68.5280632,16.5626866 67.9671937,16.613806 67.5083004,16.7671642 C67.0494071,16.9205224 66.5395257,16.358209 66.1316206,16.869403 C66.1316206,16.869403 66.0806324,16.8182836 66.0296443,16.8182836 C65.4177866,16.7671642 64.8059289,16.6649254 64.1940711,16.613806 C63.9391304,16.5626866 63.6841897,16.5626866 63.429249,16.5115672 C62.9703557,16.4604478 62.4604743,16.5626866 62.001581,16.4093284 C60.8798419,16.0003731 59.5541502,16.2048507 58.4833992,15.4891791 C58.4833992,15.4891791 58.4324111,15.5402985 58.3814229,15.5402985 C58.2284585,15.5402985 58.1264822,15.4891791 57.9735178,15.4380597 C57.8205534,15.3869403 57.7185771,15.2335821 57.5656126,15.1824627 C56.8007905,14.9779851 55.9849802,14.8757463 55.2201581,14.6712687 C54.6083004,14.5179104 54.0474308,14.0578358 53.4355731,14.0578358 C52.7727273,14.0578358 52.2628458,13.8533582 51.7019763,13.4955224 C51.2940711,13.2910448 50.8351779,13.188806 50.4272727,13.0354478 C50.2233202,12.9843284 50.0703557,12.8309701 49.8664032,12.7287313 C49.6114625,12.5753731 49.4075099,12.3708955 49.2035573,12.2175373 C48.03083,11.5018657 46.8581028,10.8373134 45.6853755,10.1216418 C45.2774704,9.86604478 44.8695652,9.50820896 44.4616601,9.20149254 C44.1047431,8.94589552 43.6458498,8.74141791 43.5948617,8.23022388 C43.5948617,8.17910448 43.5438735,8.12798507 43.4928854,8.07686567 C43.2379447,7.92350746 42.9320158,7.87238806 42.7790514,7.66791045 C42.0652174,6.85 41.4533597,5.92985075 40.7395257,5.1630597 C40.4335968,4.85634328 39.9747036,4.60074627 39.5158103,4.49850746 C39.2098814,4.44738806 38.9039526,4.75410448 38.5470356,4.90746269 C37.986166,5.1119403 37.3743083,5.26529851 36.8134387,5.46977612 C36.7624506,5.46977612 36.7624506,5.41865672 36.7114625,5.41865672 L36.7114625,5.57201493 C36.6604743,5.62313433 36.6604743,5.72537313 36.6094862,5.77649254 C35.8956522,6.18544776 35.13083,6.59440299 34.3660079,6.95223881 C32.2245059,7.97462687 30.0320158,8.94589552 27.8905138,9.96828358 C26.156917,10.786194 24.4233202,11.5529851 22.6897233,12.3708955 C21.2620553,13.0865672 19.7324111,13.7511194 18.4067194,14.6201493 C16.9280632,15.5914179 15.1434783,16.2559701 14.4806324,18.1985075 C14.4296443,18.4029851 14.327668,18.6074627 14.2256917,18.8119403 C13.2059289,21.2145522 12.1351779,23.5149254 11.2173913,25.9686567 C10.5545455,27.655597 10.2486166,29.4447761 9.63675889,31.1317164 C9.02490119,32.9720149 8.20909091,34.761194 7.54624506,36.5503731 C6.67944664,38.7996269 5.81264822,41.1 4.89486166,43.3492537 C4.74189723,43.8093284 4.53794466,44.1671642 5.25177866,44.269403 C5.50671937,44.3205224 5.76166008,44.4227612 6.01660079,44.525 C7.49525692,45.036194 9.02490119,45.5985075 10.5035573,46.1097015 C11.8802372,46.5697761 13.3079051,47.0298507 14.7355731,47.438806 C16.3162055,47.8988806 17.9478261,48.2567164 19.5794466,48.6656716 C20.8031621,48.9723881 22.0778656,49.2791045 23.301581,49.5347015 C23.5055336,49.5858209 23.7604743,49.5347015 24.015415,49.5347015 C23.9644269,49.3302239 23.9134387,49.0746269 23.8624506,48.8701493 C23.6075099,48.3589552 23.2505929,47.8988806 23.0976285,47.3876866 C22.7407115,46.1608209 22.4857708,44.8828358 22.23083,43.6048507 C21.7719368,41.355597 21.3640316,39.1574627 20.8541502,36.908209 C20.7011858,36.2436567 20.7521739,35.9880597 21.4660079,36.0391791 C21.6189723,36.0391791 21.8229249,35.8858209 21.9758893,35.8858209 C22.23083,35.9369403 22.6387352,35.9880597 22.6897233,36.1414179 C23.0466403,37.419403 23.4035573,38.7485075 23.7094862,40.0264925 C23.8624506,40.6399254 23.9134387,41.2533582 24.0664032,41.866791 C24.1173913,41.866791 24.1683794,41.866791 24.2193676,41.8156716 L24.2193676,39.5664179 C24.2703557,37.4705224 24.2703557,35.3746269 24.372332,33.2787313 C24.4233202,32.1541045 24.6272727,31.0294776 24.7802372,29.9048507 C24.8822134,29.2914179 25.1881423,28.6779851 25.1371542,28.0645522 C25.086166,27.4 25.3920949,27.0421642 25.8509881,26.6843284 C26.1059289,26.4798507 26.3608696,26.4798507 26.4118577,26.888806 C26.513834,27.8089552 26.5648221,28.7291045 26.6158103,29.6492537 C26.6158103,30.1604478 26.5648221,30.7227612 26.5648221,31.2339552 C26.5648221,31.3873134 26.6667984,31.591791 26.6667984,31.7451493 L26.6667984,34.6078358 C26.6667984,35.7324627 26.7177866,36.908209 26.7687747,38.0328358 C26.8197628,39.3619403 26.9217391,40.7421642 27.0237154,42.0712687 C27.0747036,42.9914179 27.1256917,43.9626866 27.1256917,44.8828358 C27.1766798,46.2630597 27.1766798,47.6432836 27.1766798,49.0235075 C27.1766798,49.8925373 27.0237154,50.7104478 27.0237154,51.5794776 C27.0747036,53.5220149 27.227668,55.4134328 27.227668,57.3559701 C27.2786561,59.6052239 27.2786561,61.905597 27.227668,64.1548507 C27.227668,65.841791 27.1256917,67.4776119 27.1766798,69.1645522 C27.2786561,71.8227612 27.4826087,74.5320896 27.584585,77.1902985 C27.6355731,79.0817164 27.584585,81.0242537 27.584585,82.9156716 C27.584585,84.858209 27.5335968,86.8007463 27.5335968,88.794403 C27.5335968,89.7145522 27.4826087,90.6858209 27.4826087,91.6059701 C27.4826087,92.4238806 27.6355731,93.3440299 27.4316206,94.1108209 C27.0237154,95.5421642 27.227668,97.0246269 27.1256917,98.4559701 C27.0747036,99.325 27.1766798,100.19403 27.1766798,101.06306 C27.1766798,102.136567 27.1256917,103.158955 27.0747036,104.232463 L27.0747036,106.941791 C27.0747036,107.91306 27.1256917,108.935448 27.1256917,109.906716 C27.1256917,110.724627 27.3296443,111.542537 27.1256917,112.309328 C26.7687747,113.689552 27.1256917,115.120896 27.0237154,116.501119 C26.9217391,117.983582 27.0237154,119.466045 27.0747036,120.948507 L27.0747036,122.788806 C27.0237154,123.657836 26.9217391,124.526866 26.870751,125.395896 C26.870751,125.447015 26.9727273,125.600373 27.0237154,125.600373 C28.298419,125.753731 29.6241107,125.90709 30.8988142,126.111567 C32.9383399,126.418284 34.9778656,126.878358 37.0173913,127.185075 C38.9039526,127.440672 40.841502,127.59403 42.7790514,127.798507 C44.8695652,128.054104 46.9090909,128.360821 48.9996047,128.565299 C51.2940711,128.820896 53.5885375,129.127612 55.883004,129.229851 C58.3304348,129.33209 60.7778656,129.28097 63.1743083,129.33209 C64.9588933,129.33209 66.7434783,129.383209 68.5790514,129.383209 C69.5988142,129.383209 70.6185771,129.536567 71.5873518,129.383209 C73.5249012,129.076493 75.4114625,129.485448 77.3490119,129.127612 C78.5217391,128.923134 79.7964427,129.178731 81.0711462,129.178731 C82.1418972,129.178731 83.2126482,129.076493 84.2324111,128.974254 C85.7620553,128.820896 87.2407115,128.616418 88.7703557,128.46306 C90.9628458,128.207463 93.155336,127.951866 95.3478261,127.696269 C96.4185771,127.54291 97.5403162,127.440672 98.6110672,127.236194 C98.7130435,127.236194 98.916996,127.031716 98.916996,126.929478 C98.916996,126.622761 98.8150198,126.367164 98.8150198,126.060448 C98.7130435,124.424627 98.6620553,122.839925 98.6110672,121.204104 C98.5600791,119.210448 98.5600791,117.26791 98.5600791,115.274254 C98.5600791,114.047388 98.5090909,112.820522 98.5600791,111.593657 C98.6110672,110.46903 98.1521739,109.395522 98.3051383,108.219776 C98.4581028,107.197388 98.3561265,106.123881 98.3561265,105.050373 C98.3561265,103.874627 98.4071146,102.75 98.3051383,101.574254 C98.2031621,99.2227612 97.9482213,96.9223881 97.8462451,94.5708955 C97.7952569,92.8839552 97.9992095,91.1970149 98.0501976,89.4589552 C98.1011858,88.3854478 98.1521739,87.3630597 98.1521739,86.2895522 C98.1521739,85.113806 98.2031621,83.9891791 98.1521739,82.8134328 C98.1011858,81.433209 97.9482213,80.0018657 97.9482213,78.6216418 C97.9482213,76.5257463 98.0501976,74.4298507 98.1011858,72.3339552 C98.1521739,70.5447761 98.1521739,68.755597 98.1521739,66.9664179 C98.1521739,65.6884328 98.2031621,64.4615672 98.2541502,63.2347015 C98.2541502,61.3432836 98.2541502,59.5029851 98.3051383,57.6115672 C98.3051383,57.2537313 98.3561265,56.8447761 98.4071146,56.4869403 C98.4581028,55.7712687 98.5600791,55.055597 98.6110672,54.3910448 C98.6110672,53.8798507 98.5600791,53.4197761 98.5600791,52.9085821 C98.5600791,51.7328358 98.6110672,50.608209 98.6620553,49.4324627 C98.7130435,48.3078358 98.8150198,47.1320896 98.916996,46.0074627 C98.9679842,45.1895522 99.0189723,44.3716418 99.0699605,43.5537313 C99.1209486,42.7869403 99.1719368,42.0201493 99.273913,41.2533582 C99.3758893,40.1287313 99.4778656,39.0041045 99.5798419,37.930597 C99.63083,37.4705224 99.6818182,37.0104478 99.7328063,36.5503731 C99.8857708,35.5279851 100.140711,34.5567164 100.242688,33.5343284 C100.344664,32.7675373 100.242688,31.9496269 100.344664,31.1828358 C100.44664,30.3649254 100.701581,29.5981343 100.905534,28.7802239 C100.905534,28.7802239 100.956522,28.7802239 100.956522,28.7291045 C101.058498,33.0742537 101.160474,37.419403 101.262451,41.7645522 C101.466403,41.1 101.568379,40.4865672 101.721344,39.8220149 C102.027273,38.0328358 102.333202,36.2947761 102.690119,34.505597 C102.792095,33.9432836 102.741107,33.3298507 103.505929,33.1253731 C103.607905,33.0742537 103.658893,32.8697761 103.76087,32.7675373 L103.76087,32.7675373 C103.811858,32.7164179 103.862846,32.7164179 103.862846,32.6652985 C104.01581,32.4608209 104.168775,32.2563433 104.321739,32.1029851 C104.372727,32.3585821 104.525692,32.6141791 104.525692,32.8697761 C104.525692,33.2276119 104.423715,33.5854478 104.423715,33.8921642 C104.372727,34.5567164 104.321739,35.2212687 104.219763,35.8858209 C104.117787,36.4992537 103.913834,37.0615672 103.862846,37.675 C103.607905,39.2085821 103.403953,40.7932836 103.149012,42.3268657 C102.996047,43.4514925 102.792095,44.5761194 102.63913,45.7007463 C102.486166,46.5186567 102.333202,47.3365672 102.180237,48.1544776 C102.129249,48.5123134 101.925296,48.8190299 101.874308,49.1768657 C101.874308,49.2279851 102.078261,49.4835821 102.180237,49.4324627 C103.76087,48.9212687 105.290514,48.4100746 106.871146,47.8988806 C109.012648,47.2343284 111.205138,46.5697761 113.34664,45.9563433 C114.621344,45.5985075 115.896047,45.2406716 117.170751,44.8317164 C118.241502,44.4738806 119.312253,44.0649254 120.383004,43.7070896 C120.790909,43.5537313 121.198814,43.4514925 121.606719,43.2981343 C121.555731,43.4003731 121.555731,43.5026119 121.504743,43.6048507 C121.504743,43.6048507 121.606719,43.6559701 121.657708,43.6559701 C121.657708,43.5537313 121.708696,43.4514925 121.708696,43.3492537 C122.320553,43.6048507 122.779447,43.1447761 123.289328,42.9914179 C123.442292,43.1958955 123.697233,43.2981343 123.901186,43.2981343 Z M98.5090909,131.325746 C98.6110672,130.865672 98.6620553,130.405597 98.7640316,129.945522 C98.8150198,129.638806 98.7640316,129.33209 98.8150198,129.025373 C98.5600791,129.025373 98.3051383,128.974254 98.0501976,129.025373 C97.2343874,129.178731 96.4185771,129.383209 95.6027668,129.536567 C95.3478261,129.587687 95.0418972,129.434328 94.7869565,129.536567 C93.7671937,129.741045 92.7474308,130.047761 91.6766798,130.252239 C91.370751,130.303358 90.9628458,130.507836 90.6059289,130.098881 C90.4529644,129.945522 89.9940711,129.945522 89.6881423,130.047761 C88.8213439,130.303358 88.0055336,130.610075 87.1387352,130.865672 C86.8328063,130.96791 86.5268775,131.01903 86.2209486,131.01903 C85.2011858,130.916791 84.2833992,131.01903 83.3146245,131.274627 C82.9067194,131.376866 82.4478261,131.376866 82.0399209,131.427985 C81.7849802,131.479104 81.5300395,131.530224 81.2750988,131.530224 C81.0711462,131.530224 80.8671937,131.479104 80.6632411,131.530224 C80.0003953,131.530224 79.2865613,131.632463 78.6237154,131.632463 C78.0118577,131.632463 77.4,131.479104 76.7881423,131.479104 C76.1252964,131.479104 75.4114625,131.632463 74.7486166,131.632463 C73.7288538,131.683582 72.7600791,131.683582 71.7403162,131.683582 C70.4656126,131.734701 69.1909091,131.785821 67.9162055,131.785821 C66.5395257,131.785821 65.1628458,131.785821 63.786166,131.734701 C62.8173913,131.683582 61.8996047,131.632463 60.93083,131.530224 C60.3189723,131.479104 59.6561265,131.172388 59.0442688,131.172388 C56.8007905,131.121269 54.5573123,131.121269 52.313834,131.01903 C50.9371542,130.96791 49.5094862,130.712313 48.1328063,130.558955 C46.4501976,130.354478 44.8185771,130.15 43.1359684,129.945522 C40.4335968,129.587687 37.6802372,129.229851 34.9778656,128.872015 C34.1110672,128.769776 33.1932806,128.718657 32.3264822,128.616418 C30.6438735,128.41194 28.9612648,128.156343 27.2786561,128.054104 C26.3098814,127.951866 26.2588933,128.054104 26.4628458,128.974254 C26.4628458,129.127612 26.6667984,129.28097 26.8197628,129.33209 C27.2786561,129.434328 27.7375494,129.434328 28.1964427,129.485448 C28.8592885,129.587687 29.5731225,129.689925 30.2359684,129.792164 C31.7656126,130.047761 33.2442688,130.405597 34.773913,130.661194 C36.3035573,130.916791 37.8332016,131.121269 39.3628458,131.376866 C41.0964427,131.632463 42.7790514,131.83694 44.5126482,132.092537 C45.3794466,132.194776 46.2462451,132.297015 47.1130435,132.450373 C47.9798419,132.603731 48.7956522,132.808209 49.6624506,132.910448 C50.4782609,133.012687 51.243083,133.012687 52.0588933,133.063806 C53.9964427,133.268284 55.9849802,133.523881 57.9225296,133.677239 C60.0130435,133.830597 62.1035573,133.983955 64.1940711,134.035075 C66.5395257,134.137313 68.8849802,134.086194 71.2304348,134.137313 C71.6893281,134.137313 72.0972332,134.086194 72.5561265,134.086194 C73.3719368,134.035075 74.1367589,134.035075 74.9525692,133.983955 C75.1055336,133.983955 75.258498,133.932836 75.4114625,133.932836 C75.7683794,133.983955 76.1252964,134.137313 76.4312253,134.137313 C77.2470356,134.086194 78.0118577,133.881716 78.827668,133.830597 C79.8474308,133.728358 80.8162055,133.677239 81.8359684,133.626119 C83.1106719,133.523881 84.3853755,133.779478 85.6600791,133.575 C87.6996047,133.268284 89.8411067,133.114925 91.8806324,132.859328 C93.5632411,132.603731 95.2968379,132.297015 96.9794466,131.939179 C97.5403162,131.683582 98.0501976,131.479104 98.5090909,131.325746 Z M66.1826087,10.1727612 C66.5395257,10.1216418 66.998419,10.019403 67.5083004,9.91716418 C69.1909091,9.50820896 70.8735178,9.25261194 72.5051383,8.69029851 C73.83083,8.23022388 75.1055336,7.56567164 76.3802372,6.95223881 C78.1648221,6.03208955 79.6944664,4.70298507 80.9181818,3.06716418 C81.0711462,2.86268657 81.1731225,2.60708955 81.326087,2.35149254 C81.0711462,2.40261194 80.8671937,2.45373134 80.612253,2.55597015 C79.0826087,2.96492537 77.5019763,3.3738806 75.972332,3.78283582 C75.3094862,3.93619403 74.6466403,4.03843284 73.9837945,4.14067164 C72.9640316,4.29402985 71.9442688,4.49850746 70.9245059,4.60074627 C70.0577075,4.70298507 69.1909091,4.75410448 68.3241107,4.80522388 C67.2533597,4.85634328 66.1826087,4.85634328 65.1118577,4.85634328 C64.1940711,4.85634328 63.2252964,4.80522388 62.3075099,4.75410448 C61.7976285,4.70298507 61.3387352,4.54962687 60.8288538,4.39626866 C60.6758893,4.34514925 60.5229249,4.29402985 60.3699605,4.29402985 C59.8600791,4.29402985 59.2992095,4.39626866 58.7893281,4.34514925 C57.5656126,4.19179104 56.3928854,3.93619403 55.2201581,3.73171642 C54.6592885,3.62947761 54.0474308,3.52723881 53.4865613,3.3738806 C52.670751,3.22052239 51.8549407,2.96492537 51.0391304,2.81156716 C50.6312253,2.76044776 50.2233202,2.76044776 49.815415,2.76044776 C49.101581,2.76044776 48.4387352,2.86268657 47.7249012,2.86268657 C47.6229249,2.86268657 47.5209486,2.81156716 47.3679842,2.76044776 C47.4189723,2.91380597 47.4699605,3.06716418 47.5719368,3.16940299 C48.387747,3.73171642 48.7956522,4.75410448 49.7644269,5.1630597 C49.9683794,5.26529851 50.172332,5.46977612 50.3762846,5.62313433 C50.886166,6.03208955 51.3450593,6.44104478 51.8549407,6.85 C52.2118577,7.10559701 52.5177866,7.46343284 52.8747036,7.66791045 C53.384585,7.92350746 53.9454545,8.12798507 54.455336,8.33246269 C55.16917,8.5880597 55.9339921,8.84365672 56.6988142,9.04813433 C57.5146245,9.25261194 58.3304348,9.45708955 59.1462451,9.61044776 C60.573913,9.86604478 61.9505929,10.0705224 63.3782609,10.2238806 C64.2450593,10.2238806 65.1628458,10.1727612 66.1826087,10.1727612 Z M45.6343874,2.40261194 L45.6343874,2.30037313 C45.3794466,2.35149254 45.1245059,2.40261194 44.9205534,2.45373134 C44.3596838,2.65820896 43.8498024,2.86268657 43.2889328,3.06716418 C42.9320158,3.16940299 42.5241107,3.27164179 42.1671937,3.3738806 C42.1671937,3.3738806 42.1671937,3.62947761 42.2181818,3.68059701 C42.626087,4.19179104 42.983004,4.75410448 43.3909091,5.26529851 C43.5438735,5.52089552 43.6458498,5.82761194 43.8498024,5.98097015 C44.5636364,6.64552239 45.3284585,7.25895522 46.0932806,7.92350746 C46.8581028,8.5880597 47.6229249,9.35485075 48.4897233,9.86604478 C50.0193676,10.8373134 51.6,11.7063433 53.1806324,12.5242537 C54.2003953,13.0354478 55.3221344,13.3421642 56.3928854,13.7 C57.1067194,13.9044776 57.8205534,14.1600746 58.5343874,14.211194 C60.0640316,14.4156716 61.644664,14.5179104 63.1743083,14.6201493 C64.6019763,14.7223881 66.0806324,14.7735075 67.5592885,14.7223881 C68.8339921,14.6712687 70.1086957,14.4156716 71.3324111,14.2623134 C71.7403162,14.211194 72.1482213,14.1600746 72.5561265,14.0067164 C72.8620553,13.9044776 73.0660079,13.5977612 73.3209486,13.444403 C74.4426877,12.8820896 75.5644269,12.3708955 76.686166,11.8085821 C78.3687747,10.9906716 80.0513834,10.1727612 81.4790514,8.89477612 C82.3968379,8.07686567 83.2636364,7.15671642 84.1304348,6.28768657 C84.6403162,5.77649254 85.1501976,5.2141791 85.6600791,4.65186567 C86.1189723,4.14067164 85.9660079,3.4761194 85.4051383,3.32276119 C85.0482213,3.22052239 84.6913043,3.16940299 84.3343874,3.01604478 C84.0284585,2.91380597 83.7735178,2.81156716 83.8245059,3.32276119 C83.8245059,3.52723881 83.6715415,3.78283582 83.5695652,3.98731343 C83.0596838,4.60074627 82.5498024,5.2141791 81.9889328,5.67425373 C80.612253,6.85 79.2355731,8.02574627 77.756917,9.04813433 C76.1252964,10.1727612 74.3916996,11.2462687 72.4031621,11.6552239 C71.8932806,11.7574627 71.3833992,11.8597015 70.8735178,11.9619403 C70.3636364,12.0641791 69.8537549,12.2175373 69.3948617,12.2686567 C68.5280632,12.3708955 67.712253,12.4731343 66.8454545,12.5242537 C66.0806324,12.5753731 65.2648221,12.6264925 64.5,12.6264925 C63.8371542,12.6264925 63.1233202,12.4731343 62.4604743,12.3708955 C61.3387352,12.2175373 60.216996,12.0130597 59.0952569,11.8085821 C58.6363636,11.7063433 58.2284585,11.4507463 57.7695652,11.3485075 C57.0047431,11.1440299 56.2399209,10.9395522 55.526087,10.6839552 C55.2711462,10.5817164 55.0671937,10.530597 54.812253,10.4283582 C54.098419,10.1727612 53.4865613,9.76380597 52.7727273,9.45708955 C52.4158103,9.30373134 52.0588933,9.20149254 51.8549407,8.74141791 C51.7529644,8.4858209 51.4470356,8.23022388 51.1920949,8.17910448 C50.4272727,7.97462687 49.8664032,7.51455224 49.3565217,6.95223881 C49.1525692,6.74776119 48.8976285,6.54328358 48.5916996,6.44104478 C48.1328063,6.23656716 47.8778656,5.87873134 47.6229249,5.46977612 C47.4189723,5.1630597 46.9090909,5.0608209 46.9090909,4.54962687 C46.8581028,4.54962687 46.8071146,4.60074627 46.8071146,4.54962687 C46.5521739,4.34514925 46.2462451,4.14067164 46.0422925,3.88507463 C45.8893281,3.62947761 45.8893281,3.27164179 45.7873518,3.01604478 C45.7363636,2.81156716 45.5324111,2.70932836 45.3794466,2.55597015 C45.3794466,2.50485075 45.5324111,2.45373134 45.6343874,2.40261194 Z M101.670356,53.1130597 L101.670356,54.0843284 C101.670356,54.1865672 101.874308,54.3399254 101.976285,54.288806 C102.843083,54.0843284 103.709881,53.9309701 104.57668,53.6753731 C105.95336,53.3175373 107.33004,52.9597015 108.655731,52.5507463 C109.726482,52.2440299 110.797233,51.8350746 111.867984,51.4772388 C112.581818,51.2216418 113.34664,50.9660448 114.060474,50.7104478 C114.72332,50.5059701 115.437154,50.4037313 116.1,50.1992537 C116.813834,49.9947761 117.527668,49.6880597 118.241502,49.4835821 C119.465217,49.1257463 120.688933,48.8190299 121.810672,48.2567164 C122.881423,47.7455224 123.952174,47.2343284 125.022925,46.8253731 C125.583794,46.6208955 125.481818,46.4164179 125.277866,46.0074627 C125.022925,45.4962687 124.716996,44.9850746 124.564032,44.4738806 C124.462055,44.1160448 124.360079,44.1671642 124.105138,44.269403 C123.493281,44.525 122.830435,44.6783582 122.269565,44.9850746 C121.912648,45.1895522 121.453755,45.036194 121.147826,45.2406716 C120.535968,45.5473881 119.975099,45.9052239 119.312253,46.0074627 C119.057312,46.0585821 118.802372,46.1097015 118.649407,46.2630597 C118.394466,46.5697761 118.037549,46.7231343 117.629644,46.8253731 C117.119763,47.0298507 116.609881,47.2343284 116.049012,47.3876866 C115.488142,47.5410448 114.774308,47.5410448 114.366403,47.8477612 C113.499605,48.5123134 112.53083,48.4100746 111.613043,48.7679104 C111.052174,48.9723881 110.491304,48.9212687 109.930435,49.1257463 C109.267589,49.3302239 108.706719,49.6369403 108.043874,49.8414179 C106.259289,50.4548507 104.474704,51.0682836 102.63913,51.630597 C101.670356,52.0906716 101.670356,52.0395522 101.670356,53.1130597 Z M23.9644269,52.3973881 C24.1173913,51.9373134 23.7604743,51.9373134 23.4545455,51.8350746 C22.9956522,51.7328358 22.4857708,51.7328358 22.0268775,51.630597 C20.1403162,51.1705224 18.2027668,50.7615672 16.3162055,50.2503731 C15.1944664,49.9436567 14.1237154,49.5347015 13.0019763,49.2279851 C12.0332016,48.9723881 11.0134387,48.8190299 10.044664,48.5123134 C8.26007905,47.95 6.42450593,47.3876866 4.69090909,46.6720149 C4.13003953,46.4675373 3.92608696,46.4164179 3.67114625,47.0298507 C3.46719368,47.5921642 3.67114625,47.7966418 4.13003953,47.95 C4.43596838,48.1033582 4.74189723,48.3078358 5.09881423,48.4100746 C6.67944664,49.1257463 8.26007905,49.8414179 9.84071146,50.5059701 C10.8604743,50.9149254 11.9312253,51.2727612 13.0019763,51.630597 C13.8177866,51.886194 14.684585,52.141791 15.5513834,52.2951493 C16.9790514,52.6018657 18.4067194,52.8063433 19.7833992,53.0619403 C21.1090909,53.3175373 22.4347826,53.5731343 23.7094862,53.7776119 C23.8114625,53.7776119 23.9644269,53.6753731 23.9644269,53.6242537 C23.9644269,53.2664179 23.9644269,52.8574627 23.9644269,52.3973881 Z M118.088538,45.9563433 L118.088538,45.9052239 L117.578656,45.9052239 L117.578656,45.9563433 L118.088538,45.9563433 Z M117.578656,46.0585821 C117.527668,46.1608209 117.47668,46.2119403 117.47668,46.2630597 C117.47668,46.2630597 117.527668,46.3652985 117.578656,46.3652985 C117.629644,46.3652985 117.680632,46.3141791 117.731621,46.3141791 C117.731621,46.2119403 117.680632,46.1608209 117.578656,46.0585821 Z M102.996047,34.4033582 C102.945059,34.3522388 102.945059,34.3522388 102.996047,34.4033582 C102.945059,34.3522388 102.945059,34.4033582 102.894071,34.4033582 L102.996047,34.4033582 C102.945059,34.4033582 102.945059,34.4033582 102.996047,34.4033582 Z M120.790909,27.0932836 C120.790909,27.144403 120.790909,27.144403 120.790909,27.0932836 C120.790909,27.144403 120.841897,27.144403 120.841897,27.144403 C120.841897,27.144403 120.841897,27.144403 120.790909,27.0932836 L120.790909,27.0932836 Z" id="Shape"/>
                <path d="M122.218577,50.7615672 C122.320553,50.7615672 122.42253,50.8126866 122.524506,50.8126866 C122.524506,50.863806 122.473518,50.9149254 122.473518,50.9149254 C122.371542,50.9149254 122.269565,50.863806 122.167589,50.8126866 C122.167589,50.8126866 122.167589,50.8126866 122.218577,50.7615672 Z" id="Shape"/>
                <path d="M41.0454545,107.606343 C40.841502,107.86194 40.6885375,108.117537 40.4335968,108.270896 C39.7197628,108.679851 39.3628458,109.395522 39.056917,110.111194 C38.9549407,110.366791 38.8019763,110.571269 38.6490119,110.775746 C38.2920949,111.28694 37.629249,111.235821 37.272332,110.724627 C37.2213439,110.622388 37.2213439,110.46903 37.272332,110.366791 C37.986166,109.395522 38.6490119,108.424254 39.5158103,107.606343 C39.770751,107.350746 40.484585,107.504104 40.9944664,107.504104 C41.0454545,107.504104 41.0454545,107.606343 41.0454545,107.606343 Z" id="Shape"/>
                <path d="M36.4055336,108.219776 C36.0486166,108.015299 35.6407115,107.810821 35.2837945,107.555224 C35.2328063,107.504104 35.2328063,107.197388 35.3347826,107.095149 C35.7936759,106.481716 36.2525692,105.868284 36.8134387,105.35709 C37.0173913,105.152612 37.4762846,104.999254 37.6802372,105.101493 C38.0371542,105.30597 38.3940711,105.612687 38.0371542,106.175 C37.629249,106.788433 37.272332,107.350746 36.8644269,107.964179 C36.7624506,108.066418 36.6094862,108.066418 36.4055336,108.219776 Z" id="Shape"/>
                <path d="M112.020949,39.5152985 C111.867984,39.5664179 111.613043,39.7708955 111.562055,39.7197761 C110.899209,39.1574627 110.389328,38.441791 110.134387,37.5727612 C110.083399,37.4705224 110.33834,37.2660448 110.491304,37.1126866 C110.542292,37.1126866 110.746245,37.2149254 110.797233,37.3171642 C111.15415,37.8283582 111.460079,38.3395522 111.766008,38.8507463 C111.918972,39.0041045 111.918972,39.2085821 112.020949,39.5152985 Z" id="Shape"/>
                <path d="M35.487747,12.4220149 C35.7426877,12.3197761 35.9466403,12.2686567 36.1505929,12.1664179 C36.7624506,11.7063433 37.5272727,11.6041045 38.2920949,11.4507463 C38.343083,11.4507463 38.4960474,11.5018657 38.4960474,11.5529851 C38.4960474,11.6552239 38.4450593,11.8597015 38.3940711,11.8597015 C37.629249,12.2175373 36.915415,12.5753731 36.1505929,12.8309701 C35.9976285,12.8820896 35.7426877,12.5753731 35.487747,12.4220149 Z M36.201581,12.0130597 C36.201581,12.0130597 36.201581,12.0641791 36.201581,12.0130597 C36.201581,12.0641791 36.2525692,12.0641791 36.2525692,12.0641791 C36.2525692,12.0641791 36.2525692,12.0130597 36.201581,12.0130597 L36.201581,12.0130597 Z" id="Shape"/>
                <path d="M113.499605,38.5951493 C113.397628,38.4929104 113.34664,38.3395522 113.244664,38.3395522 C112.377866,38.186194 112.479842,37.3682836 112.275889,36.8059701 C112.224901,36.6526119 112.428854,36.3970149 112.53083,36.1414179 C112.734783,36.2436567 113.040711,36.2947761 113.0917,36.4481343 C113.295652,37.0615672 113.397628,37.675 113.550593,38.2884328 C113.601581,38.441791 113.550593,38.4929104 113.499605,38.5951493 Z" id="Shape"/>
                <path d="M39.1079051,13.3932836 C39.0059289,13.5466418 38.9549407,13.6488806 38.9039526,13.7 C38.4960474,13.9044776 38.0371542,14.0578358 37.5782609,14.211194 C37.4252964,14.2623134 37.1193676,14.1600746 37.1193676,14.1089552 C37.1193676,13.8533582 37.1703557,13.444403 37.272332,13.3932836 C37.7822134,13.2399254 38.343083,12.9843284 38.9039526,13.3421642 C38.9549407,13.3932836 39.0059289,13.3932836 39.1079051,13.3932836 Z" id="Shape"/>
                <path d="M89.0762846,81.4843284 C89.586166,81.8421642 89.9940711,82.1488806 90.4019763,82.5067164 C90.4529644,82.5578358 90.4019763,82.7623134 90.3509881,82.8134328 C90.2490119,82.9156716 90.0450593,83.0179104 89.8920949,82.966791 C89.4841897,82.8134328 89.0762846,82.6089552 88.7193676,82.3533582 C88.6683794,82.3022388 88.7193676,82.0466418 88.7703557,81.8932836 C88.872332,81.7399254 88.9233202,81.6376866 89.0762846,81.4843284 Z" id="Shape"/>
                <path d="M103.76087,32.8186567 C103.709881,32.8186567 103.658893,32.7675373 103.556917,32.7675373 C103.607905,32.7164179 103.607905,32.6652985 103.658893,32.6141791 C103.658893,32.7164179 103.709881,32.8186567 103.76087,32.8186567 C103.709881,32.8697761 103.76087,32.8186567 103.76087,32.8186567 Z" id="Shape"/>
            </g>
        </g>
    </g>
</svg>