<?xml version="1.0" encoding="UTF-8" standalone="no"?>
<svg width="79px" height="146px" viewBox="0 0 79 146" version="1.1" xmlns="http://www.w3.org/2000/svg" xmlns:xlink="http://www.w3.org/1999/xlink">
    <!-- Generator: Sketch 43.2 (39069) - http://www.bohemiancoding.com/sketch -->
    <title>women tank</title>
    <desc>Created with Sketch.</desc>
    <defs/>
    <g id="Illustrations" stroke="none" stroke-width="1" fill="none" fill-rule="evenodd">
        <g id="Illustrations-Product-Preview-Apparel---Detailed" transform="translate(-725.000000, -110.000000)" fill-rule="nonzero" fill="#41364F">
            <g id="women-tank" transform="translate(725.000000, 110.000000)">
                <path d="M78.6186207,131.126592 C78.5096552,129.868914 78.5641379,128.611236 78.2917241,127.40824 C78.0193103,125.986517 77.42,124.674157 77.0386207,123.307116 C76.8206897,122.596255 76.7117241,121.830712 76.7117241,121.065169 C76.7662069,119.041948 76.9296552,117.073408 76.9841379,115.050187 C77.0386207,113.409738 76.5482759,111.82397 76.1124138,110.292884 C75.5675862,108.1603 74.9682759,106.027715 74.6413793,103.840449 C74.3689655,101.926592 74.3689655,99.9033708 74.3689655,97.9348315 C74.3144828,95.2554307 74.26,92.57603 74.26,89.9513109 C74.26,87.6546816 74.26,85.3580524 74.4234483,83.0614232 C74.5324138,80.764794 74.8593103,78.5228464 75.0227586,76.2808989 C75.1317241,75.023221 75.1862069,73.7655431 75.2951724,72.5625468 C75.4041379,71.3048689 75.622069,70.047191 75.7855172,68.7895131 C75.9489655,67.094382 76.1124138,65.4539326 76.2758621,63.7588015 C76.3848276,62.5011236 76.5482759,61.2434457 76.6572414,59.9857678 C76.7662069,58.8921348 76.8751724,57.8531835 76.8751724,56.7595506 C76.8751724,55.0644195 77.1475862,53.42397 77.637931,51.7835206 C78.0193103,50.5258427 78.2372414,49.1588015 77.8558621,47.8464419 C77.7468966,47.4636704 77.3655172,47.1902622 77.202069,46.8074906 C77.0386207,46.4794007 76.9841379,46.0419476 76.8206897,45.7138577 C76.6572414,45.1670412 76.5482759,44.6202247 76.1124138,44.1280899 C75.84,43.8546816 75.84,43.3078652 75.7310345,42.870412 C75.2406897,41.1752809 74.8048276,39.4801498 74.3144828,37.7303371 C73.9875862,36.5820225 73.6062069,35.4337079 73.4427586,34.2853933 C73.0613793,31.7153558 72.68,29.1453184 72.5165517,26.5752809 C72.3531034,24.4973783 72.3531034,22.4194757 72.4075862,20.341573 C72.462069,18.3730337 72.5710345,16.3498127 72.68,14.3812734 C72.7889655,12.2486891 72.897931,10.0614232 73.0068966,7.92883895 C73.0613793,7.21797753 73.1703448,6.5071161 73.2248276,5.85093633 C73.2793103,5.41348315 73.2793103,5.03071161 73.2793103,4.59325843 C73.2793103,4.31985019 73.2248276,4.15580524 72.8434483,4.04644195 C71.8627586,3.77303371 70.882069,3.39026217 69.9013793,3.06217228 C68.3213793,2.46067416 66.6868966,1.85917603 65.1068966,1.31235955 C63.9082759,0.929588015 62.7096552,0.656179775 61.5110345,0.27340824 C61.402069,0.218726592 61.2931034,0.0546816479 61.1841379,0 L60.8027586,0 C60.2034483,0.656179775 59.6041379,1.31235955 59.1137931,1.96853933 C57.5337931,3.93707865 55.8448276,5.74157303 53.6110345,7.05393258 C51.5951724,8.20224719 49.5793103,9.2411985 47.3455172,9.89737828 C45.9834483,10.2801498 44.6213793,10.717603 43.1503448,10.717603 C42.2241379,10.717603 41.297931,10.9910112 40.3717241,11.1003745 C39.8268966,11.1550562 39.282069,11.0456929 38.7372414,11.0456929 C37.4841379,11.1003745 36.2855172,10.6629213 35.0868966,10.4441948 C34.542069,10.3348315 34.0517241,10.1161049 33.5068966,9.95205993 C32.7441379,9.73333333 31.9268966,9.67865169 31.1641379,9.40524345 C30.2924138,9.07715356 29.4206897,8.63970037 28.5489655,8.25692884 C27.6772414,7.81947566 26.8055172,7.38202247 25.9882759,6.88988764 C25.2255172,6.39775281 24.5717241,5.79625468 23.8089655,5.2494382 C23.1551724,4.75730337 22.3924138,4.26516854 21.7931034,3.71835206 C21.0303448,3.00749064 20.3765517,2.18726592 19.7227586,1.42172285 C19.3413793,0.984269663 18.96,0.601498127 18.5241379,0.218726592 C18.3606897,0.109363296 18.0337931,0.109363296 17.8158621,0.109363296 C17.0531034,0.218726592 16.2903448,0.382771536 15.5275862,0.492134831 C14.6013793,0.601498127 13.6751724,0.656179775 12.7489655,0.765543071 C12.1496552,0.874906367 11.4958621,1.03895131 10.8965517,1.14831461 C9.97034483,1.3670412 9.04413793,1.58576779 8.11793103,1.74981273 C7.79103448,1.80449438 7.84551724,1.85917603 7.84551724,2.07790262 C7.95448276,3.44494382 8.17241379,4.81198502 8.28137931,6.17902622 C8.5537931,9.84269663 8.77172414,13.506367 8.93517241,17.2247191 C8.98965517,18.5917603 8.98965517,19.9588015 8.88068966,21.3258427 C8.71724138,23.3490637 8.49931034,25.317603 8.28137931,27.340824 C8.17241379,28.6531835 8.11793103,29.9108614 7.95448276,31.223221 C7.79103448,32.5902622 7.51862069,33.9573034 7.2462069,35.3243446 C6.9737931,36.6913858 6.75586207,38.058427 6.37448276,39.3707865 C5.99310345,40.6284644 5.50275862,41.8861423 5.06689655,43.1438202 C4.74,44.0187266 4.41310345,44.893633 4.03172414,45.7138577 C3.48689655,46.9168539 2.83310345,48.0651685 2.28827586,49.2681648 C2.17931034,49.4322097 2.17931034,49.705618 2.17931034,49.8696629 C2.56068966,51.7835206 2.94206897,53.6973783 3.26896552,55.6659176 C3.48689655,57.0329588 3.54137931,58.4 3.70482759,59.7670412 C3.8137931,60.7513109 3.92275862,61.7355805 4.03172414,62.7198502 C4.30413793,64.7977528 4.63103448,66.8209738 4.90344828,68.8441948 C5.01241379,69.8831461 5.01241379,70.9220974 5.06689655,71.9610487 C5.12137931,73.6561798 5.17586207,75.2966292 5.17586207,76.9917603 C5.23034483,79.3430712 5.28482759,81.7490637 5.33931034,84.1003745 C5.3937931,85.576779 5.33931034,86.9985019 5.44827586,88.4749064 C5.55724138,90.8808989 5.77517241,93.2868914 5.88413793,95.7475655 C5.93862069,97.2786517 5.88413793,98.8097378 5.77517241,100.395506 C5.6662069,102.090637 5.61172414,103.840449 5.33931034,105.535581 C5.01241379,107.613483 4.35862069,109.636704 3.97724138,111.714607 C3.65034483,113.245693 3.54137931,114.831461 3.16,116.307865 C2.88758621,117.346816 3.10551724,118.331086 3.37793103,119.260674 C3.75931034,120.846442 3.65034483,122.377528 3.21448276,123.963296 C2.72413793,125.603745 2.28827586,127.244195 1.85241379,128.884644 C1.41655172,130.525094 0.980689655,132.110861 0.599310345,133.751311 C0.435862069,134.516854 0.326896552,135.282397 0.217931034,135.993258 C0.217931034,136.04794 0.217931034,136.211985 0.272413793,136.211985 C0.708275862,136.485393 1.19862069,136.813483 1.63448276,137.086891 C2.28827586,137.469663 2.99655172,137.68839 3.59586207,138.180524 C5.28482759,139.492884 7.19172414,140.36779 9.15310345,141.078652 C10.1337931,141.406742 11.1689655,141.734831 12.2041379,142.00824 C15.3641379,142.937828 18.6875862,143.320599 21.902069,144.140824 C24.1903448,144.68764 26.5331034,144.68764 28.8213793,144.961049 C31.0006897,145.179775 33.2344828,145.234457 35.4137931,145.398502 C36.7758621,145.507865 38.1924138,145.562547 39.5544828,145.617228 C41.08,145.67191 42.6055172,145.781273 44.1310345,145.726592 C46.4737931,145.562547 48.762069,145.289139 51.0503448,145.070412 C52.14,144.961049 53.1751724,144.742322 54.2103448,144.578277 C55.1365517,144.414232 56.1172414,144.250187 57.0434483,144.031461 C58.46,143.703371 59.822069,143.320599 61.2931034,143.101873 C63.3634483,142.773783 65.3248276,142.117603 67.2317241,141.297378 C68.3758621,140.805243 69.4110345,140.203745 70.5006897,139.656929 C72.3531034,138.727341 74.26,137.852434 76.1124138,136.868165 C77.0931034,136.37603 77.9648276,135.71985 78.8910345,135.173034 L78.8910345,134.516854 C78.8910345,133.204494 78.7275862,132.165543 78.6186207,131.126592 Z M68.9751724,13.506367 C68.9206897,12.4674157 68.8117241,11.3737828 68.8117241,10.3348315 C68.8117241,9.78801498 68.7572414,9.18651685 68.9751724,8.74906367 C69.2475862,8.25692884 69.1931034,7.71011236 69.302069,7.21797753 C69.52,6.23370787 69.6289655,5.19475655 69.7924138,4.21048689 C69.7924138,4.15580524 69.9558621,4.1011236 69.9558621,4.1011236 C70.3917241,4.31985019 70.7731034,4.53857678 71.2089655,4.75730337 C71.2634483,4.81198502 71.3724138,4.97602996 71.317931,5.08539326 C71.2634483,5.57752809 71.1,6.06966292 71.0455172,6.56179775 C71.0455172,6.7258427 71.1544828,6.88988764 71.1,7.05393258 C70.9910345,8.20224719 70.882069,9.29588015 70.8275862,10.4441948 C70.7731034,11.2097378 70.7731034,11.9205993 70.7186207,12.6861423 C70.6641379,13.506367 70.5006897,14.3812734 70.4462069,15.2014981 C70.3917241,16.2951311 70.5006897,17.3340824 70.5006897,18.4277154 C70.5006897,19.0838951 70.4462069,19.7947566 70.4462069,20.4509363 C70.4462069,20.9430712 70.5006897,21.3805243 70.5551724,21.8726592 C70.7186207,23.1850187 70.6641379,24.4973783 70.6641379,25.8097378 C70.6641379,27.5048689 70.7186207,29.2 70.9365517,30.8404494 C71.1,32.3715356 71.317931,33.8479401 71.6993103,35.3243446 C71.8627586,35.871161 71.7537931,36.4726592 71.8627586,37.0741573 C71.9172414,37.5116105 72.1351724,37.894382 72.2441379,38.3318352 C72.4075862,39.0973783 72.462069,39.8629213 72.6255172,40.6284644 C72.7344828,41.0659176 73.0068966,41.3940075 73.1158621,41.8314607 C73.5517241,43.1985019 73.9875862,44.5108614 74.4234483,45.8779026 C74.5868966,46.4794007 74.6413793,47.1355805 74.8048276,47.682397 C75.3496552,49.4868914 74.5868966,51.2367041 74.4234483,52.9865169 C74.4234483,53.0411985 74.3689655,53.0958801 74.26,53.2599251 C74.042069,51.7835206 73.4972414,50.5805243 72.7889655,49.3775281 C72.3531034,48.6666667 72.1896552,47.7917603 71.9717241,46.9715356 C71.5903448,45.4404494 71.2089655,43.9640449 70.882069,42.4329588 C70.6641379,41.2846442 70.5006897,40.1363296 70.3372414,38.988015 C70.0103448,37.1835206 69.6834483,35.3790262 69.4110345,33.5745318 C69.2475862,32.5902622 69.1386207,31.5513109 69.0841379,30.5123596 C69.0296552,29.2 69.0841379,27.9423221 69.0296552,26.6299625 C68.9751724,25.4816479 68.7572414,24.2786517 68.7572414,23.1303371 C68.7572414,22.3101124 68.8662069,21.435206 68.9206897,20.6149813 C68.9751724,19.7400749 68.9206897,18.8651685 68.9751724,17.9355805 C68.9751724,16.9513109 69.0296552,16.0217228 69.0296552,15.0374532 C68.9751724,14.5453184 69.0296552,13.9985019 68.9751724,13.506367 Z M20.0496552,5.63220974 C20.9758621,6.28838951 21.7931034,6.88988764 22.6103448,7.49138577 C23.5910345,8.25692884 24.4627586,9.2411985 25.5524138,9.78801498 C26.4241379,10.2254682 27.1868966,11.0456929 28.2765517,11.0456929 C28.4944828,11.0456929 28.7124138,11.3737828 28.9848276,11.4284644 C29.8565517,11.7018727 30.7827586,11.9752809 31.6544828,12.2486891 C32.1448276,12.4127341 32.6896552,12.6314607 33.18,12.7955056 C33.8337931,12.9595506 34.4331034,13.1235955 35.0868966,13.2876404 C35.9586207,13.506367 36.8303448,13.7250936 37.702069,13.8891386 C37.92,13.9438202 38.137931,13.9438202 38.3013793,13.9985019 C39.0641379,14.1078652 39.7724138,14.2719101 40.5351724,14.3265918 C41.08,14.3812734 41.6793103,14.3812734 42.2241379,14.2719101 C43.2593103,14.1625468 44.2944828,13.9985019 45.3296552,13.7797753 C46.9641379,13.4516854 48.5441379,13.0689139 50.0696552,12.3580524 C50.777931,12.0299625 51.3772414,11.5925094 52.0310345,11.2097378 C52.4668966,10.9363296 52.9572414,10.717603 53.4475862,10.4988764 C54.2648276,10.0614232 55.082069,9.56928839 55.6268966,8.74906367 C56.0082759,8.20224719 56.662069,7.92883895 57.1524138,7.49138577 C57.6972414,7.05393258 58.242069,6.6164794 58.7868966,6.12434457 C59.2227586,5.68689139 59.6586207,5.19475655 60.2034483,4.81198502 C60.1489655,5.46816479 60.1489655,6.12434457 60.0944828,6.83520599 C60.04,7.43670412 60.04,8.03820225 59.9855172,8.63970037 C59.822069,10.0067416 59.7131034,11.3737828 59.5496552,12.740824 C59.7675862,13.0142322 59.822069,13.4516854 59.4406897,13.7250936 C58.46,14.5453184 57.5337931,15.4749064 56.662069,16.4044944 C55.1910345,18.7011236 53.502069,20.8337079 52.3034483,23.4037453 C51.1593103,25.8644195 50.8324138,28.3797753 50.1786207,30.8951311 C50.1241379,31.1685393 50.1241379,31.4966292 50.0696552,31.7700375 C50.0151724,32.0981273 49.9606897,32.4808989 49.7427586,32.7543071 L49.7427586,32.8089888 C49.7972414,32.8636704 49.7972414,32.9183521 49.8517241,32.9730337 C49.9062069,33.0277154 49.5248276,33.5745318 49.2524138,33.7932584 C48.0537931,34.6134831 46.9096552,35.7071161 45.602069,36.1992509 C43.8586207,36.8007491 42.1151724,37.5116105 40.2082759,37.4569288 C39.0641379,37.4569288 37.92,37.6209738 36.7758621,37.5662921 C35.8496552,37.5116105 34.977931,37.2382022 34.0517241,37.128839 C32.0903448,36.8554307 30.7827586,35.4337079 29.5296552,34.17603 C29.2027586,33.8479401 29.3117241,33.0277154 29.2572414,32.4262172 C29.1482759,31.2779026 29.1482759,30.1842697 29.0393103,29.0359551 C28.8758621,27.9970037 28.657931,26.9580524 28.3310345,25.9737828 C28.0041379,24.9895131 27.5137931,24.0599251 27.077931,23.0756554 C26.642069,22.0913858 26.2606897,21.0524345 25.7158621,20.1228464 C25.28,19.3026217 24.6806897,18.5917603 24.1358621,17.8808989 C23.482069,17.0059925 22.8282759,16.1857678 22.1744828,15.3108614 C22.12,15.2014981 22.0655172,15.1468165 21.9565517,15.0921348 C20.54,14.2719101 20.54,12.8501873 20.4310345,11.4831461 C20.2675862,9.78801498 20.1041379,8.0928839 19.9406897,6.34307116 C20.0496552,6.17902622 20.0496552,5.90561798 20.0496552,5.63220974 Z M58.8958621,17.2247191 C58.5689655,18.3183521 58.242069,19.411985 57.9151724,20.4509363 C57.3158621,22.0913858 56.7710345,23.7318352 56.0082759,25.2629213 C55.4634483,26.411236 54.9731034,27.6689139 54.0468966,28.6531835 C53.3931034,29.3640449 52.9027586,30.1842697 52.357931,30.8951311 C52.2489655,31.059176 52.0310345,31.1685393 51.8131034,31.2779026 C51.8131034,31.059176 51.7586207,30.7857678 51.8131034,30.6217228 C52.1944828,29.8014981 52.5758621,28.9812734 52.9572414,28.1610487 C53.2296552,27.6142322 53.3931034,27.0127341 53.6655172,26.4659176 C53.9924138,25.6456929 54.3737931,24.8801498 54.7551724,24.0599251 C55.1910345,23.0756554 55.6268966,22.0913858 56.0627586,21.0524345 C56.2806897,20.505618 56.4986207,20.0134831 56.8255172,19.4666667 C56.9344828,19.2479401 57.3158621,19.1932584 57.4248276,19.0292135 C57.8062069,18.4277154 58.1331034,17.7715356 58.46,17.1700375 C58.5144828,17.0606742 58.677931,17.0059925 58.7868966,16.8966292 C58.7868966,17.0606742 58.8413793,17.1700375 58.8958621,17.2247191 Z M27.0234483,31.1138577 C27.0234483,31.223221 27.0234483,31.2779026 26.9689655,31.3872659 C26.9144828,31.3325843 26.8055172,31.2779026 26.7510345,31.1685393 C26.5875862,30.8404494 26.4241379,30.4576779 26.2062069,30.129588 C25.3344828,28.6531835 24.3537931,27.2314607 23.6455172,25.7003745 C23.0462069,24.2786517 22.7193103,22.7475655 22.2834483,21.271161 C21.9565517,20.1228464 21.5751724,18.9745318 21.2482759,17.8262172 C21.1937931,17.7168539 21.3572414,17.4981273 21.3572414,17.388764 C21.4117241,17.4981273 21.4662069,17.6074906 21.5751724,17.7168539 C21.9565517,18.2636704 22.3924138,18.8104869 22.7193103,19.411985 C23.482069,20.8337079 24.1903448,22.2554307 24.8986207,23.6771536 C25.4434483,24.8254682 25.9337931,25.9737828 26.3696552,27.1220974 C26.5875862,27.7235955 26.6965517,28.4344569 26.7510345,28.7625468 C26.9689655,29.7468165 27.0234483,30.4029963 27.0234483,31.1138577 Z M17.0531034,2.40599251 C17.162069,2.40599251 17.3255172,2.24194757 17.38,2.24194757 C18.0337931,2.40599251 17.8158621,3.00749064 17.8703448,3.39026217 C18.0882759,4.92134831 18.1972414,6.5071161 18.3062069,8.0928839 C18.3606897,8.80374532 18.3606897,9.51460674 18.4151724,10.2254682 C18.5241379,10.7722846 18.742069,11.3191011 18.9055172,11.8659176 C19.0144828,12.2486891 19.177931,12.6861423 19.0689655,13.0142322 C18.7965517,14.1625468 19.2868966,15.2014981 19.4503448,16.2404494 C19.6137931,17.4981273 19.8862069,18.7011236 20.1586207,19.9588015 C20.4855172,21.2164794 20.8668966,22.4194757 21.3027586,23.6224719 C21.7386207,24.8254682 22.1744828,26.0284644 22.6648276,27.2314607 C23.1006897,28.2157303 23.5365517,29.2 24.0268966,30.129588 C24.5717241,31.223221 25.1165517,32.3715356 25.8248276,33.4104869 C26.2606897,34.1213483 26.9144828,34.7228464 27.5682759,35.2696629 C28.8213793,36.2539326 30.0744828,37.1835206 31.382069,38.0037453 C32.8531034,38.9333333 34.542069,39.1520599 36.2310345,39.2067416 C37.702069,39.2614232 39.1731034,39.4254682 40.6441379,39.4254682 C42.0062069,39.4254682 43.4227586,39.3707865 44.6758621,38.9333333 C46.037931,38.4411985 47.2910345,37.6209738 48.4896552,36.7460674 C49.7427586,35.871161 50.8324138,34.7775281 52.0310345,33.7932584 C52.0855172,33.7385768 52.14,33.6838951 52.1944828,33.6292135 C53.6110345,32.6449438 55.4089655,30.4029963 56.0627586,29.0906367 C57.0434483,27.1220974 58.0241379,25.2082397 58.8958621,23.1850187 C59.5496552,21.7086142 60.0944828,20.1775281 60.5848276,18.6464419 C60.8572414,17.8262172 60.9662069,17.0059925 61.1296552,16.1310861 C61.2931034,15.0374532 61.5110345,13.8891386 61.5655172,12.7955056 C61.62,11.5925094 61.5655172,10.3348315 61.5655172,9.13183521 C61.5655172,8.42097378 61.6744828,7.71011236 61.7289655,6.99925094 C61.7289655,6.06966292 61.6744828,5.08539326 61.7289655,4.15580524 C61.7289655,3.49962547 61.837931,2.84344569 61.9468966,2.18726592 C62.0013793,1.96853933 62.0013793,1.64044944 62.5462069,1.85917603 C63.7993103,2.35131086 63.2,3.39026217 63.2,4.1011236 C63.2544828,6.12434457 63.1455172,8.14756554 63.1455172,10.1707865 C63.1455172,11.2644195 62.8731034,12.3580524 62.5462069,13.3970037 C62.3282759,14.1625468 62.2737931,14.9280899 62.1103448,15.7483146 C62.0558621,16.1310861 61.9468966,16.5138577 61.837931,16.8966292 C61.3475862,18.6464419 60.8027586,20.3962547 60.3124138,22.1460674 C60.0944828,22.9662921 59.9310345,23.7865169 59.7131034,24.5520599 C59.6041379,24.8801498 59.3862069,25.1535581 59.2772414,25.4816479 C58.677931,27.6689139 57.4248276,29.4734082 56.2262069,31.3325843 C55.8448276,31.9340824 55.3544828,32.5355805 55.082069,33.1917603 C54.8096552,33.8479401 54.1558621,33.7385768 53.7744828,34.17603 C53.4475862,34.5041199 53.1751724,34.8868914 52.8482759,35.2149813 C52.6848276,35.3790262 52.357931,35.4883895 52.1944828,35.7071161 C51.4317241,36.6913858 50.2875862,37.2382022 49.2524138,37.8397004 C47.9993103,38.6052434 46.6917241,39.3161049 45.3296552,39.8629213 C44.1855172,40.3550562 43.0413793,40.9018727 41.7337931,40.9565543 C39.6634483,40.6831461 37.6475862,40.3550562 35.5772414,40.0816479 C33.4524138,39.8082397 31.5455172,38.9333333 29.6931034,38.058427 C28.5489655,37.5116105 27.4593103,36.8007491 26.4786207,36.035206 C25.1710345,34.9962547 24.2448276,33.6292135 23.3731034,32.2074906 C23.1006897,31.7153558 22.7193103,31.2779026 22.4468966,30.7857678 C21.6841379,29.3640449 20.8124138,27.9423221 20.1586207,26.4659176 C19.6682759,25.3722846 19.2868966,24.1692884 18.96,22.9662921 C18.5786207,21.5445693 18.3062069,20.0681648 18.0337931,18.6464419 C17.7613793,17.2247191 17.597931,15.8029963 17.4344828,14.3265918 C17.3255172,13.3970037 17.2165517,12.4674157 17.162069,11.5378277 C17.1075862,10.8816479 17.2165517,10.2254682 17.162069,9.62397004 C17.0531034,8.63970037 16.8351724,7.65543071 16.7806897,6.67116105 C16.7262069,5.63220974 16.7262069,4.59325843 16.7262069,3.55430712 C16.7262069,3.39026217 16.7262069,3.22621723 16.6717241,3.06217228 C16.4537931,2.6247191 16.6717241,2.40599251 17.0531034,2.40599251 Z M5.3937931,54.4082397 C5.17586207,53.42397 4.90344828,52.658427 4.90344828,51.8928839 C4.90344828,51.2913858 4.41310345,50.6898876 4.90344828,50.0337079 C5.01241379,49.9243446 5.17586207,49.8149813 5.23034483,49.705618 C5.55724138,49.2134831 5.93862069,48.6666667 6.15655172,48.0651685 C6.75586207,46.588764 7.40965517,45.0576779 7.9,43.5265918 C8.66275862,41.0659176 9.42551724,38.6052434 9.69793103,35.9805243 C9.86137931,34.5588015 10.2427586,33.2464419 10.4606897,31.8247191 C10.6241379,30.5123596 10.7875862,29.1453184 10.842069,27.7782772 C10.9510345,25.8644195 11.0055172,23.9505618 10.9510345,22.0367041 C10.9510345,20.4509363 10.842069,18.8651685 10.7875862,17.2794007 C10.7331034,16.2404494 10.7875862,15.2014981 10.7331034,14.1625468 C10.6241379,12.740824 10.5151724,11.3737828 10.3517241,10.0067416 C10.1882759,8.31161049 9.91586207,6.56179775 9.75241379,4.86666667 C9.69793103,4.42921348 9.80689655,3.9917603 9.86137931,3.55430712 C9.86137931,3.49962547 10.0248276,3.49962547 10.0793103,3.49962547 C10.1882759,3.49962547 10.2972414,3.55430712 10.4062069,3.49962547 C10.6786207,3.44494382 10.9510345,3.33558052 11.2234483,3.22621723 L11.2234483,4.15580524 C11.3324138,6.01498127 11.4413793,7.8741573 11.6048276,9.73333333 C11.7682759,11.0456929 12.0406897,12.3580524 12.2586207,13.6157303 C12.3675862,14.3265918 12.3131034,15.0374532 12.422069,15.7483146 C12.5310345,17.2247191 12.6944828,18.6464419 12.8034483,20.1228464 C12.857931,20.7243446 12.8034483,21.3258427 13.1303448,21.9273408 C13.2937931,22.2007491 12.9668966,22.6928839 13.0213793,23.0756554 C13.2393103,24.8801498 13.0758621,26.6846442 12.9124138,28.4891386 C12.8034483,29.4734082 12.7489655,30.4029963 12.64,31.3872659 C12.4765517,32.6449438 12.3131034,33.9026217 12.0951724,35.1602996 C11.8772414,36.2539326 11.6048276,37.3475655 11.277931,38.3865169 C10.6241379,40.6284644 10.0248276,42.9797753 9.20758621,45.1670412 C8.11793103,48.2838951 6.70137931,51.2913858 5.3937931,54.4082397 Z M3.70482759,128.939326 C4.03172414,128.228464 4.35862069,127.517603 4.79448276,126.806742 C5.93862069,124.783521 6.53793103,122.705618 6.04758621,120.354307 C5.6662069,118.549813 5.93862069,116.8 6.53793103,115.104869 C7.13724138,113.355056 7.9,111.605243 8.33586207,109.800749 C8.77172414,108.214981 8.93517241,106.574532 9.09862069,104.934082 C9.31655172,102.746816 9.48,100.559551 9.53448276,98.3722846 C9.58896552,96.8958801 9.53448276,95.4741573 9.42551724,93.9977528 C9.31655172,92.1932584 9.15310345,90.4434457 8.98965517,88.6389513 C8.8262069,86.9985019 8.66275862,85.3580524 8.5537931,83.717603 C8.39034483,81.6397004 8.33586207,79.5071161 8.11793103,77.4292135 C7.95448276,75.4059925 7.68206897,73.3827715 7.40965517,71.3595506 C7.13724138,69.0629213 6.75586207,66.8209738 6.53793103,64.5243446 C6.37448276,62.8838951 6.26551724,61.2434457 6.10206897,59.6029963 C6.04758621,59.2202247 5.93862069,58.8921348 5.88413793,58.5093633 C5.72068966,57.6344569 5.99310345,56.8689139 6.48344828,56.1580524 C6.86482759,55.611236 6.9737931,54.9550562 7.2462069,54.3535581 C7.35517241,54.0801498 7.46413793,53.8614232 7.57310345,53.588015 C8.28137931,51.9475655 9.04413793,50.3071161 9.69793103,48.6666667 C10.5151724,46.5340824 11.2234483,44.4014981 11.9317241,42.2142322 C12.2041379,41.3940075 12.422069,40.5737828 12.64,39.7535581 C12.9668966,38.2224719 13.1303448,36.6913858 13.5117241,35.2149813 C13.6751724,34.5041199 13.6751724,33.7385768 13.8931034,33.082397 C14.3834483,31.4419476 14.437931,29.7468165 14.6013793,28.0516854 C14.7103448,27.0127341 14.7103448,25.9737828 14.7648276,24.9348315 C14.8193103,23.7865169 14.9827586,22.6382022 14.9282759,21.4898876 C14.9282759,20.5602996 14.6558621,19.6307116 14.5468966,18.7011236 L14.5468966,18.1543071 C14.4924138,17.0606742 14.7103448,15.9670412 14.3834483,14.9827715 C14.002069,13.7250936 14.3289655,12.4127341 13.7841379,11.2097378 C13.5662069,10.717603 13.5662069,10.0614232 13.5117241,9.51460674 C13.4027586,8.58501873 13.2937931,7.65543071 13.2393103,6.78052434 C13.1303448,5.57752809 13.0758621,4.31985019 13.0758621,3.11685393 C13.0758621,3.00749064 13.2393103,2.78876404 13.4027586,2.7340824 C13.7841379,2.57003745 14.1655172,2.51535581 14.4924138,2.40599251 C14.4924138,3.22621723 14.437931,3.9917603 14.4924138,4.75730337 C14.5468966,5.96029963 14.6558621,7.10861423 14.7648276,8.25692884 C14.8737931,9.2411985 14.9827586,10.2801498 15.0372414,11.2644195 C15.0917241,11.9205993 15.0917241,12.5220974 15.2006897,13.1782772 C15.3096552,13.9438202 15.4186207,14.7093633 15.582069,15.4749064 C15.8,16.7325843 15.9089655,17.9902622 16.1813793,19.2479401 C16.3993103,20.341573 16.8351724,21.435206 17.1075862,22.528839 C17.7068966,24.7707865 18.6875862,26.8486891 19.8862069,28.8172285 C20.2675862,29.4734082 20.7034483,30.129588 20.9213793,30.8951311 C20.9758621,31.0044944 21.0303448,31.1138577 21.0848276,31.1685393 C22.1744828,32.9183521 23.3186207,34.6681648 24.6806897,36.1992509 C25.3344828,36.7460674 25.9882759,37.2928839 26.642069,37.8397004 C28.44,39.3161049 30.4558621,40.3003745 32.5806897,41.1752809 C33.7248276,41.6127341 34.9234483,41.776779 36.122069,41.9955056 C37.2117241,42.2142322 38.4103448,42.6516854 39.5,42.4876404 C40.0993103,42.4329588 40.6441379,42.4876404 41.2434483,42.4876404 C42.8234483,42.2142322 44.457931,41.940824 45.9834483,41.5033708 C48.3262069,40.3003745 50.6144828,38.9333333 52.8482759,37.5116105 C52.9027586,37.4569288 52.9572414,37.4569288 53.0117241,37.4022472 C53.2841379,37.1835206 53.5565517,36.964794 53.7744828,36.7460674 C54.6462069,35.871161 55.5724138,34.941573 56.3351724,33.9573034 C57.2068966,32.8636704 57.9151724,31.7153558 58.677931,30.5670412 C59.2772414,29.6374532 59.7675862,28.7078652 60.2034483,27.7235955 C60.5303448,27.0127341 60.6393103,26.1925094 60.8572414,25.4269663 C61.0751724,24.6067416 61.3475862,23.7865169 61.62,23.0209738 C61.837931,22.3101124 62.0558621,21.6539326 62.2737931,20.9430712 C62.8186207,19.1932584 63.2,17.3340824 63.6903448,15.529588 C63.9627586,14.6 64.1806897,13.670412 64.2896552,12.6861423 C64.3986207,11.647191 64.3441379,10.5535581 64.3986207,9.51460674 C64.3986207,9.07715356 64.562069,8.69438202 64.562069,8.25692884 C64.6710345,7.05393258 64.78,5.85093633 64.8344828,4.70262172 C64.8344828,4.15580524 64.7255172,3.55430712 64.7255172,3.00749064 C64.7255172,2.89812734 64.9434483,2.67940075 65.0524138,2.67940075 C65.8696552,2.84344569 66.6868966,3.06217228 67.4496552,3.33558052 C67.5586207,3.33558052 67.6131034,3.55430712 67.6131034,3.66367041 C67.5586207,4.04644195 67.5041379,4.42921348 67.4496552,4.81198502 C67.2862069,6.06966292 67.1227586,7.27265918 66.9048276,8.53033708 C66.6868966,9.89737828 66.6868966,11.2644195 66.8503448,12.6861423 C66.9048276,13.506367 66.6868966,14.3265918 66.6868966,15.2014981 C66.6324138,17.2247191 66.6324138,19.2479401 66.6868966,21.3258427 C66.7413793,23.294382 66.8503448,25.317603 66.9048276,27.2861423 C66.9593103,28.3797753 66.9048276,29.4187266 67.0682759,30.5123596 C67.2317241,31.9340824 67.5041379,33.3558052 67.722069,34.7228464 C67.8855172,35.7617978 68.157931,36.8007491 68.3213793,37.8397004 C68.4848276,38.988015 68.5393103,40.1363296 68.8117241,41.2299625 C69.2475862,42.9250936 69.7924138,44.5108614 70.2827586,46.1513109 C70.9365517,48.2838951 71.5903448,50.4164794 72.2441379,52.5490637 C72.5710345,53.4786517 73.1703448,54.3535581 73.3882759,55.3378277 C73.6606897,56.4861423 74.042069,57.6344569 73.6062069,58.8921348 C73.2793103,59.8217228 73.3882759,60.9153558 73.2793103,61.9543071 C73.1158621,63.5947566 72.897931,65.1805243 72.7344828,66.8209738 C72.5710345,68.188015 72.4075862,69.6097378 72.2441379,70.976779 C72.0806897,72.2891386 71.9172414,73.6014981 71.7537931,74.9685393 C71.6448276,75.7340824 71.5358621,76.4996255 71.4268966,77.2104869 C71.2634483,78.4681648 71.1,79.7258427 70.9910345,80.928839 C70.8275862,82.5146067 70.7186207,84.1003745 70.6096552,85.6861423 C70.5551724,86.3423221 70.6096552,87.0531835 70.6096552,87.7093633 C70.5551724,89.3498127 70.5006897,90.9355805 70.5006897,92.57603 C70.5006897,94.3258427 70.6641379,96.0209738 70.7186207,97.7707865 C70.7186207,98.6456929 70.6096552,99.5752809 70.7186207,100.450187 C70.9365517,101.981273 71.2089655,103.51236 71.5903448,104.988764 C71.9717241,106.465169 72.462069,107.941573 72.8434483,109.472659 C73.1703448,110.620974 73.5517241,111.714607 73.6062069,112.862921 C73.7151724,114.339326 73.6062069,115.81573 73.4972414,117.292135 C73.3882759,119.260674 73.1158621,121.174532 74.042069,123.08839 C74.7503448,124.619476 75.1862069,126.259925 75.0772414,128.009738 C75.0227586,128.665918 75.1317241,129.267416 75.0772414,129.923596 C75.0772414,130.032959 74.9682759,130.197004 74.8593103,130.251685 C73.0613793,130.962547 71.2634483,131.72809 69.4655172,132.438951 C68.1034483,132.985768 66.6868966,133.587266 65.2703448,134.024719 C63.5813793,134.571536 61.8924138,135.008989 60.1489655,135.39176 C58.3510345,135.774532 56.5531034,136.04794 54.7551724,136.321348 C52.6303448,136.649438 50.5055172,137.03221 48.3806897,137.305618 C47.0186207,137.469663 45.602069,137.524345 44.1855172,137.524345 C42.0062069,137.579026 39.8268966,137.579026 37.6475862,137.633708 C36.2855172,137.633708 34.9234483,137.68839 33.5613793,137.579026 C31.9813793,137.469663 30.3468966,137.250936 28.7668966,137.086891 C27.1324138,136.868165 25.497931,136.540075 23.8634483,136.485393 C21.9565517,136.37603 20.1041379,135.938577 18.3062069,135.337079 C17.4889655,135.06367 16.6172414,134.899625 15.8,134.626217 C14.3289655,134.134082 12.857931,133.587266 11.4413793,133.040449 C8.98965517,132.05618 6.53793103,130.962547 4.03172414,129.923596 C3.65034483,129.704869 3.48689655,129.431461 3.70482759,128.939326 Z M74.4234483,134.735581 C73.6606897,135.008989 73.0068966,135.610487 72.2441379,135.938577 C71.6448276,136.211985 70.9910345,136.37603 70.3917241,136.649438 C69.1386207,137.250936 67.8855172,137.907116 66.577931,138.508614 C66.142069,138.727341 65.7062069,138.836704 65.2703448,139.000749 C64.6165517,139.219476 63.9082759,139.383521 63.3634483,139.766292 C62.2737931,140.36779 61.0751724,140.586517 59.8765517,140.859925 C59.0048276,141.078652 58.0786207,141.188015 57.1524138,141.35206 C56.0082759,141.516105 54.8096552,141.68015 53.6655172,141.844195 C50.8324138,142.226966 47.9993103,142.664419 45.1117241,142.937828 C43.5862069,143.101873 42.0062069,142.883146 40.4806897,142.883146 C39.1731034,142.883146 37.8110345,143.047191 36.5034483,142.937828 C34.2151724,142.828464 31.8724138,142.937828 29.5841379,142.391011 C28.222069,142.062921 26.7510345,142.117603 25.3889655,141.898876 C24.2993103,141.734831 23.2641379,141.461423 22.1744828,141.242697 C21.4117241,141.078652 20.6489655,140.914607 19.9406897,140.69588 C18.6331034,140.36779 17.3255172,139.985019 16.0724138,139.602247 C14.9827586,139.328839 13.8931034,139.055431 12.8034483,138.727341 C11.3868966,138.289888 10.0248276,137.68839 8.60827586,137.250936 C6.70137931,136.649438 5.17586207,135.337079 3.48689655,134.352809 C3.26896552,134.243446 2.83310345,134.079401 2.83310345,133.970037 C2.83310345,133.532584 2.99655172,133.040449 3.16,132.602996 C3.16,132.548315 3.43241379,132.548315 3.54137931,132.602996 C4.79448276,133.095131 6.04758621,133.641948 7.30068966,134.134082 C8.93517241,134.790262 10.6241379,135.446442 12.3131034,135.993258 C13.2393103,136.321348 14.2744828,136.485393 15.2006897,136.758801 C16.1813793,137.03221 17.1075862,137.414981 18.0882759,137.68839 C18.7965517,137.907116 19.5048276,137.961798 20.2131034,138.125843 C20.8668966,138.289888 21.5751724,138.399251 22.2289655,138.563296 C22.5013793,138.617978 22.7737931,138.727341 23.1006897,138.782022 C24.0813793,138.946067 25.062069,139.110112 26.0972414,139.274157 C27.5682759,139.438202 29.0937931,139.547566 30.5648276,139.71161 C31.3275862,139.766292 32.0358621,139.875655 32.7986207,139.875655 C33.9972414,139.930337 35.1958621,139.930337 36.3944828,139.985019 C37.4296552,140.0397 38.5193103,140.203745 39.5544828,140.203745 C40.5896552,140.258427 41.6248276,140.149064 42.66,140.094382 C43.8586207,140.094382 45.0572414,140.094382 46.2558621,140.0397 C48.0537931,140.0397 49.8517241,139.820974 51.6496552,139.438202 C53.2296552,139.110112 54.8096552,139.000749 56.3896552,138.727341 C57.8606897,138.508614 59.2772414,138.235206 60.7482759,137.961798 C61.8924138,137.743071 63.0365517,137.579026 64.1262069,137.196255 C65.4882759,136.758801 66.8503448,136.102622 68.2124138,135.555805 C68.9206897,135.282397 69.6289655,134.899625 70.3372414,134.680899 C71.1544828,134.407491 71.9172414,133.915356 72.6255172,133.532584 C73.3337931,133.149813 74.1510345,132.821723 74.8593103,132.329588 C75.3496552,132.001498 75.2951724,132.274906 75.3496552,132.602996 L75.3496552,133.368539 C75.3496552,134.024719 75.1317241,134.407491 74.4234483,134.735581 Z" id="Shape"/>
                <path d="M29.4751724,130.08764 C29.3662069,130.470412 29.1482759,130.306367 28.7668966,130.197004 C27.8406897,129.868914 26.9144828,129.704869 25.9882759,129.322097 C24.6262069,128.775281 23.3186207,128.119101 22.0110345,127.517603 C20.8124138,126.970787 19.6137931,126.42397 18.4696552,125.822472 C16.7806897,124.892884 15.1462069,123.963296 13.5117241,122.979026 C12.6944828,122.486891 11.9862069,121.830712 11.277931,121.229213 C10.8965517,120.901124 10.6241379,120.46367 10.3517241,120.026217 C10.1337931,119.698127 10.842069,118.713858 11.3868966,118.659176 C11.7682759,118.604494 12.2586207,118.659176 12.5310345,118.877903 C14.22,120.026217 15.8,121.338577 17.5434483,122.486891 C18.5241379,123.143071 19.6137931,123.525843 20.6489655,124.017978 C21.9565517,124.619476 23.2096552,125.275655 24.5172414,125.931835 C25.8248276,126.588015 27.1324138,127.298876 28.4944828,128.009738 C29.4751724,128.501873 30.4013793,129.048689 31.3275862,129.595506 C31.382069,129.650187 31.4910345,129.814232 31.4365517,129.868914 C31.2186207,130.142322 30.9462069,130.41573 30.6737931,130.689139 C30.6193103,130.74382 30.5103448,130.689139 30.4558621,130.634457 C30.3468966,130.579775 30.1834483,130.579775 30.0744828,130.525094 C29.8565517,130.361049 29.6931034,130.251685 29.4751724,130.08764 Z" id="Shape"/>
                <path d="M63.417931,37.0194757 C63.2,37.5662921 62.982069,38.1677903 62.7641379,38.82397 C62.6006897,39.2614232 62.5462069,39.7535581 62.3282759,40.1363296 C62.2193103,40.3550562 61.8924138,40.5191011 61.62,40.6831461 C61.5110345,40.4644195 61.402069,40.1910112 61.2931034,39.917603 C60.9117241,38.3865169 61.402069,37.0741573 62.2193103,35.8164794 C62.3282759,35.7071161 62.5462069,35.5430712 62.6551724,35.5430712 C62.8731034,35.5977528 63.1455172,35.7071161 63.2544828,35.9258427 C63.3089655,36.1992509 63.3089655,36.5820225 63.417931,37.0194757 Z" id="Shape"/>
                <path d="M34.4331034,125.002247 L34.4331034,125.330337 C34.3241379,125.275655 34.2151724,125.220974 34.1606897,125.166292 C33.6158621,124.838202 32.9075862,124.619476 32.5262069,124.127341 C31.9813793,123.525843 31.6,122.705618 31.2186207,121.940075 C31.1641379,121.830712 31.382069,121.502622 31.4910345,121.338577 C31.5455172,121.283895 31.7634483,121.393258 31.9268966,121.44794 C33.1255172,122.10412 33.7248276,123.307116 34.4331034,124.400749 C34.4875862,124.564794 34.4331034,124.783521 34.4331034,125.002247 L34.4331034,125.002247 Z" id="Shape"/>
                <path d="M38.6827586,119.752809 C39.2275862,120.080899 39.8268966,120.244944 40.2082759,120.627715 C40.6441379,121.065169 40.9710345,121.666667 41.3524138,122.158801 C41.4068966,122.268165 41.4068966,122.486891 41.4613793,122.650936 C41.297931,122.650936 41.1344828,122.705618 41.0255172,122.650936 C40.0448276,122.158801 39.0096552,121.666667 38.4648276,120.573034 C38.4103448,120.408989 38.4648276,120.190262 38.4648276,120.026217 C38.5193103,119.916854 38.6282759,119.862172 38.6827586,119.752809 Z" id="Shape"/>
                <path d="M16.8351724,58.9468165 C16.9441379,60.2044944 17.0531034,61.4621723 17.1075862,62.6651685 C17.1075862,62.8292135 16.9986207,63.0479401 16.9441379,63.2666667 C16.7806897,63.1026217 16.6172414,62.9385768 16.5082759,62.7745318 C16.2358621,62.3917603 15.8544828,62.0636704 16.3448276,61.5715356 C16.3993103,61.5168539 16.0724138,61.188764 16.0724138,60.9700375 C16.0724138,60.0951311 16.0724138,59.2749064 16.1268966,58.4 C16.1268966,58.2906367 16.2903448,58.1265918 16.3993103,58.0719101 C16.4537931,58.0719101 16.6172414,58.1265918 16.6717241,58.2359551 C16.8351724,58.4546816 16.9441379,58.7280899 17.0531034,58.9468165 C16.9986207,58.8921348 16.8896552,58.8921348 16.8351724,58.9468165 Z" id="Shape"/>
                <path d="M21.9565517,57.5797753 C21.9565517,58.0172285 22.0110345,58.5093633 21.9565517,58.9468165 C21.9565517,59.1655431 21.7386207,59.3842697 21.6296552,59.5483146 C21.5206897,59.4389513 21.3572414,59.329588 21.2482759,59.2202247 C20.4855172,58.4546816 20.6489655,57.5250936 20.757931,56.5955056 C20.757931,56.4314607 21.0303448,56.2127341 21.1937931,56.1580524 C21.3027586,56.1033708 21.5206897,56.3220974 21.6296552,56.4861423 C21.7931034,56.8142322 21.9565517,57.1423221 22.12,57.470412 C22.0655172,57.5250936 22.0110345,57.5797753 21.9565517,57.5797753 Z" id="Shape"/>
                <path d="M59.3317241,39.0973783 C59.0048276,39.5348315 58.677931,39.9722846 58.2965517,40.4097378 C58.1331034,40.5737828 57.9151724,40.7378277 57.6972414,40.7925094 C58.0786207,40.3550562 58.0241379,39.917603 57.7517241,39.4254682 C57.6972414,39.3161049 57.7517241,39.2067416 57.7517241,39.0426966 C57.8062069,38.8786517 58.5144828,38.2771536 58.7324138,38.1131086 C58.8958621,38.0037453 58.8958621,37.7850187 59.0048276,37.6209738 C59.1137931,37.4569288 59.3317241,37.3475655 59.4951724,37.2382022 C59.5496552,37.5116105 59.7131034,37.8397004 59.6586207,38.1131086 C59.7131034,38.4958801 59.4951724,38.7692884 59.3317241,39.0973783 L59.3317241,39.0973783 Z" id="Shape"/>
                <path d="M18.2517241,60.2044944 C18.2517241,59.8217228 18.1972414,59.3842697 18.2517241,59.0014981 C18.2517241,58.8374532 18.4696552,58.6187266 18.6331034,58.5640449 C18.742069,58.5093633 18.96,58.6734082 19.0689655,58.8374532 C19.6682759,59.6029963 19.3958621,60.5325843 19.3958621,61.4074906 C19.3958621,61.5168539 19.177931,61.6808989 19.0144828,61.7355805 C18.96,61.7355805 18.7965517,61.5168539 18.6875862,61.4074906 C18.4696552,61.0247191 18.3062069,60.6419476 18.0882759,60.3138577 C18.1427586,60.259176 18.1972414,60.259176 18.2517241,60.2044944 Z" id="Shape"/>
                <path d="M37.702069,123.197753 C37.1572414,123.143071 36.7758621,123.471161 36.6124138,122.7603 C36.557931,122.541573 35.9586207,122.486891 35.7406897,122.213483 C35.6317241,122.10412 35.6862069,121.721348 35.6862069,121.502622 C35.8496552,121.557303 36.0675862,121.611985 36.2310345,121.721348 C36.6668966,122.213483 37.1027586,122.650936 37.702069,123.197753 Z" id="Shape"/>
                <path d="M59.3862069,39.0973783 C59.4406897,39.0426966 59.4406897,38.988015 59.4951724,38.988015 C59.4406897,38.988015 59.3862069,39.0426966 59.3862069,39.0973783 C59.3317241,39.0973783 59.3862069,39.0973783 59.3862069,39.0973783 Z" id="Shape"/>
            </g>
        </g>
    </g>
</svg>