<?xml version="1.0" encoding="UTF-8" standalone="no"?>
<svg width="138px" height="142px" viewBox="0 0 138 142" version="1.1" xmlns="http://www.w3.org/2000/svg" xmlns:xlink="http://www.w3.org/1999/xlink">
    <!-- Generator: Sketch 43.2 (39069) - http://www.bohemiancoding.com/sketch -->
    <title>women hoodie</title>
    <desc>Created with Sketch.</desc>
    <defs/>
    <g id="Illustrations" stroke="none" stroke-width="1" fill="none" fill-rule="evenodd">
        <g id="Illustrations-Product-Preview-Apparel---Detailed" transform="translate(-863.000000, -110.000000)" fill-rule="nonzero" fill="#42374F">
            <g id="women-hoodie" transform="translate(863.000000, 110.000000)">
                <path d="M137.302527,129.244912 C137.05343,126.903158 136.754513,124.511579 136.555235,122.169825 C136.455596,121.123509 136.455596,120.027368 136.555235,119.030877 C136.704693,117.934737 137.103249,116.838596 136.903971,115.692632 C136.903971,115.642807 136.953791,115.592982 136.953791,115.543158 C137.551625,114.247719 137.402166,112.952281 137.103249,111.607018 C136.804332,110.21193 136.455596,108.767018 136.156679,107.37193 C135.857762,105.927018 135.608664,104.482105 135.210108,103.037193 C134.761733,101.492632 134.213718,99.9480702 133.665704,98.4035088 C133.11769,96.7094737 132.519856,95.0652632 132.270758,93.3214035 C132.171119,92.5242105 131.971841,91.7270175 131.822383,90.9298246 C131.573285,89.5845614 131.374007,88.2891228 131.07509,86.9438596 C130.726354,85.5487719 130.327798,84.2035088 129.929242,82.8582456 C129.729964,82.2603509 129.480866,81.6624561 129.331408,81.0147368 C128.982671,79.2210526 128.683755,77.4273684 128.384838,75.6336842 C128.285199,74.9859649 128.13574,74.3880702 128.036101,73.7403509 C127.936462,73.1922807 127.936462,72.6442105 127.836823,72.0961404 C127.737184,71.4484211 127.537906,70.7508772 127.438267,70.1031579 C127.288809,69.2063158 127.13935,68.2596491 126.940072,67.362807 C126.840433,66.7649123 126.690975,66.1670175 126.591336,65.5691228 C126.441877,64.6224561 126.441877,63.6259649 126.242599,62.6792982 C125.893863,61.0350877 125.495307,59.3410526 125.14657,57.6968421 C124.897473,56.5508772 124.598556,55.4049123 124.299639,54.2589474 C124.000722,53.2126316 123.701805,52.1663158 123.402888,51.12 C123.25343,50.6217544 123.153791,50.0736842 123.004332,49.5754386 C122.705415,48.5291228 122.356679,47.4329825 122.007942,46.3866667 C121.509747,44.7922807 120.961733,43.1978947 120.513357,41.5536842 C120.21444,40.4575439 119.915523,39.3614035 119.716245,38.2154386 C119.367509,36.3221053 118.570397,34.5782456 117.872924,32.834386 C116.876534,30.442807 115.680866,28.1508772 113.737906,26.3073684 C112.293141,24.9122807 110.898195,23.517193 109.45343,22.1719298 C107.909025,20.7768421 106.115523,19.7305263 104.222383,18.7838596 C103.52491,18.4350877 103.52491,18.4849123 103.973285,17.8870175 C103.973285,17.8870175 104.023105,17.8870175 104.023105,17.837193 C104.720578,16.8905263 105.168953,15.8442105 105.069314,14.6484211 C105.019495,13.9010526 104.870036,13.1536842 104.720578,12.4561404 C104.670758,12.0575439 104.5213,11.6589474 104.371841,11.3101754 C103.624549,9.56631579 102.229603,8.47017544 100.735018,7.42385965 C100.58556,7.32421053 100.485921,7.12491228 100.386282,6.9754386 C100.087365,6.47719298 99.8880866,5.92912281 99.5891697,5.43087719 C99.3898917,5.13192982 99.1407942,4.83298246 98.8916968,4.58385965 C98.0945848,3.88631579 97.2476534,3.13894737 96.400722,2.49122807 C95.9523466,2.1922807 95.4541516,1.89333333 94.9559567,1.74385965 C93.7104693,1.34526316 92.4649819,1.04631579 91.2194946,0.747368421 C90.7212996,0.647719298 90.2231047,0.448421053 89.7747292,0.548070175 C88.3797834,0.797192982 87.034657,0.34877193 85.6397112,0.298947368 C84.8924188,0.249122807 84.1451264,0.249122807 83.3978339,0.298947368 C82.700361,0.34877193 82.0028881,0.548070175 81.3054152,0.647719298 C80.3090253,0.797192982 79.3126354,0.896842105 78.3162455,1.04631579 C76.8714801,1.2954386 75.4267148,1.5445614 73.9819495,1.79368421 C72.4375451,2.04280702 70.8433213,2.29192982 69.298917,2.54105263 C68.701083,2.64070175 67.8541516,2.98947368 67.5054152,2.74035088 C66.7581227,2.24210526 65.9111913,2.54105263 65.1638989,2.39157895 C64.1176895,2.1922807 63.0216606,2.24210526 61.9256318,1.94315789 C60.7299639,1.64421053 59.434657,2.04280702 58.1891697,1.64421053 C57.9898917,1.59438596 57.6411552,1.84350877 57.5415162,1.74385965 C56.8938628,1.24561404 56.1465704,1.5445614 55.4490975,1.39508772 C54.6519856,1.19578947 53.8050542,1.2954386 53.0079422,1.24561404 C52.6592058,1.24561404 52.3104693,0.996491228 52.0115523,1.34526316 C51.7126354,1.09614035 51.3638989,1.09614035 51.1148014,1.39508772 C51.0649819,1.34526316 51.0649819,1.2954386 51.0151625,1.24561404 C50.8158845,1.19578947 50.566787,1.04631579 50.367509,1.04631579 C50.0685921,1.04631579 49.7198556,1.19578947 49.4209386,1.19578947 C47.9761733,1.09614035 46.5314079,1.39508772 45.2361011,1.89333333 C43.7913357,2.44140351 42.4462094,3.23859649 41.101083,3.98596491 C39.3574007,5.0322807 37.9126354,6.42736842 36.667148,8.02175439 C35.9696751,8.86877193 35.4714801,9.91508772 34.8736462,10.8617544 C34.6743682,11.1607018 34.4252708,11.4596491 34.4252708,11.7585965 C34.2758123,12.8049123 34.1761733,13.8512281 34.1761733,14.8975439 C34.1761733,16.0933333 34.3256318,17.3389474 34.9234657,18.285614 C34.3754513,18.5347368 33.8274368,18.8336842 33.2296029,18.9831579 C32.332852,19.1326316 31.6353791,19.5810526 30.9877256,20.2287719 C30.5891697,20.6273684 30.0909747,20.9761404 29.6425993,21.3249123 C28.9949458,21.922807 28.2476534,22.4708772 27.699639,23.2182456 C26.9025271,24.2645614 26.2548736,25.4105263 25.6072202,26.5564912 C25.1588448,27.3536842 24.6606498,28.1508772 24.2620939,28.9480702 C23.5646209,30.442807 22.867148,31.9873684 22.2194946,33.4821053 C21.6714801,34.8273684 21.1732852,36.2722807 20.6252708,37.6673684 C19.8779783,39.7101754 19.1306859,41.802807 18.333574,43.845614 C17.7357401,45.3901754 16.9884477,46.8849123 16.4404332,48.4294737 C15.8425993,50.0736842 15.3942238,51.7178947 14.9458484,53.4119298 C14.3978339,55.4547368 13.8498195,57.4477193 13.3018051,59.4905263 C12.8534296,61.2842105 12.4548736,63.1277193 12.0064982,64.9712281 C11.7075812,66.2168421 11.3588448,67.4624561 11.0101083,68.7080702 C10.8108303,69.5052632 10.6613718,70.3024561 10.4620939,71.0996491 C10.0635379,72.4947368 9.61516245,73.8898246 9.26642599,75.2849123 C8.76823105,77.2778947 8.3198556,79.2708772 7.82166065,81.2638596 C7.42310469,82.8084211 6.97472924,84.3031579 6.52635379,85.7978947 C6.02815884,87.5915789 5.43032491,89.3354386 4.93212996,91.0792982 C4.43393502,92.8231579 3.93574007,94.6168421 3.48736462,96.3607018 C2.83971119,98.8021053 2.14223827,101.243509 1.54440433,103.684912 C1.14584838,105.279298 0.846931408,106.873684 0.54801444,108.517895 C0.348736462,109.464561 0.298916968,110.411228 0.199277978,111.407719 C0.149458484,112.155088 0.0996389892,112.952281 0.199277978,113.699649 C0.298916968,114.496842 0.597833935,115.294035 0.797111913,116.141053 C0.896750903,116.589474 0.946570397,117.087719 1.04620939,117.585965 C1.09602888,117.785263 1.24548736,117.984561 1.34512635,118.233684 C1.49458484,118.73193 1.59422383,119.230175 1.69386282,119.728421 C1.79350181,120.176842 1.99277978,120.724912 1.89314079,121.123509 C1.34512635,123.21614 0.747292419,125.258947 0.149458484,127.351579 C-0.0498194946,128.049123 0.348736462,129.344561 0.797111913,129.593684 C2.09241877,130.241404 3.38772563,130.938947 4.73285199,131.487018 C6.32707581,132.134737 7.92129964,132.732632 9.56534296,133.280702 C10.9602888,133.778947 12.4050542,134.177544 13.8498195,134.526316 C14.7963899,134.725614 15.6433213,135.323509 16.6895307,135.024561 C16.7393502,135.024561 16.8389892,135.074386 16.8888087,135.074386 C17.9350181,135.174035 18.9314079,135.273684 19.9776173,135.373333 C20.0274368,135.373333 20.0772563,135.273684 20.1270758,135.273684 C21.1234657,135.074386 21.2729242,134.177544 21.4722022,133.430175 C21.8209386,132.234386 22.0700361,130.988772 22.3689531,129.743158 C22.6180505,128.647018 23.066426,127.600702 23.9631769,126.952982 C24.7104693,126.404912 25.3083032,125.856842 25.7068592,125.059649 C26.3545126,123.814035 26.9025271,122.518596 27.500361,121.223158 C27.6,123.415439 28.5963899,125.258947 29.7422383,127.052632 C29.9415162,127.351579 30.0909747,127.700351 30.0909747,127.999298 C30.0411552,128.995789 29.9415162,129.942456 29.8916968,130.938947 C29.7920578,132.38386 29.8418773,133.828772 29.5927798,135.22386 C29.3935018,136.270175 29.7422383,136.768421 30.5393502,137.167018 C30.6888087,137.266667 30.8382671,137.316491 31.0375451,137.366316 C33.1797834,137.914386 35.2722022,138.512281 37.4642599,139.060351 C38.9090253,139.409123 40.4036101,139.658246 41.8483755,139.907368 C42.4960289,140.007018 43.1436823,140.206316 43.7913357,140.25614 C45.1862816,140.405614 46.6310469,140.505263 48.0259928,140.604912 C50.6166065,140.854035 53.2072202,141.103158 55.7978339,141.302456 C56.8938628,141.402105 57.9898917,141.402105 59.0859206,141.45193 C59.1855596,141.45193 59.2353791,141.501754 59.3350181,141.551579 L66.6086643,141.551579 C66.8577617,141.402105 67.1068592,141.252632 67.3559567,141.152982 C67.4057762,141.152982 67.4555957,141.202807 67.5054152,141.202807 C67.7545126,141.252632 68.0036101,141.402105 68.2527076,141.402105 C69.4981949,141.402105 70.7935018,141.352281 72.0389892,141.302456 C73.4837545,141.202807 74.9285199,141.103158 76.3234657,141.003509 C77.2700361,140.90386 78.2166065,140.754386 79.1631769,140.654737 C80.3090253,140.555088 81.4050542,140.505263 82.5509025,140.455439 C83.5971119,140.405614 84.6433213,140.355789 85.6397112,140.25614 C87.333574,140.106667 88.9776173,139.957193 90.6714801,139.757895 C91.5184116,139.658246 92.4151625,139.508772 93.2620939,139.309474 C94.0093863,139.16 94.7566787,139.010526 95.4541516,138.861053 C96.6,138.61193 97.7458484,138.412632 98.8916968,138.113684 C99.4895307,137.964211 99.9877256,137.665263 100.58556,137.515789 C102.179783,137.067368 103.823827,136.668772 105.46787,136.220351 C105.567509,136.170526 105.766787,136.070877 105.766787,135.971228 C105.766787,135.074386 105.716968,134.177544 105.667148,133.330526 C105.567509,132.134737 105.46787,130.988772 105.318412,129.792982 C105.119134,128.447719 105.069314,127.152281 105.418051,125.856842 C105.46787,125.657544 105.617329,125.408421 105.667148,125.209123 C105.916245,123.714386 106.264982,122.219649 106.364621,120.724912 C106.46426,119.28 106.364621,117.785263 106.314801,116.340351 C106.264982,115.194386 106.115523,114.048421 106.065704,112.902456 C106.015884,112.155088 106.165343,111.357895 106.065704,110.610526 C105.916245,108.567719 105.667148,106.574737 105.46787,104.581754 C105.418051,104.183158 105.418051,103.734737 105.368231,103.33614 C105.916245,105.08 106.41444,106.82386 106.912635,108.617544 C107.610108,111.258246 108.307581,113.849123 109.005054,116.489825 C109.254152,117.486316 109.652708,118.432982 109.802166,119.429474 C110.001444,120.924211 110.798556,122.169825 111.39639,123.515088 C111.944404,124.810526 113.239711,125.807018 113.189892,127.401404 C113.189892,127.451228 113.189892,127.501053 113.239711,127.501053 C113.937184,127.849825 113.787726,128.597193 113.987004,129.195088 C114.485199,130.789474 114.883755,132.483509 115.28231,134.127719 C115.481588,134.974737 116.029603,135.622456 116.627437,136.220351 C116.727076,136.32 116.976173,136.270175 117.075812,136.369825 C117.474368,136.718596 117.823105,137.067368 118.171841,137.41614 C118.221661,137.465965 118.27148,137.515789 118.3213,137.515789 C118.719856,137.41614 119.068592,137.266667 119.467148,137.167018 C119.815884,137.067368 120.21444,137.017544 120.612996,136.917895 C121.459928,136.718596 122.406498,136.917895 123.20361,136.419649 C123.502527,136.270175 123.851264,136.220351 124.2,136.220351 C124.797834,136.120702 125.395668,136.120702 125.993502,136.021053 C126.541516,135.921404 127.089531,135.821754 127.687365,135.672281 C128.285199,135.522807 128.883032,135.323509 129.480866,135.174035 C130.277978,134.974737 131.07509,134.875088 131.822383,134.725614 C132.519856,134.57614 133.217329,134.526316 133.914801,134.327018 C134.562455,134.177544 135.259928,134.077895 135.807942,133.778947 C136.156679,133.579649 137.352347,133.828772 136.704693,132.732632 C136.903971,132.782456 137.103249,132.832281 137.153069,132.782456 C137.451986,132.433684 137.850542,132.134737 137.800722,131.636491 C137.501805,130.789474 137.402166,129.992281 137.302527,129.244912 Z M3.48736462,124.362105 C3.28808664,125.358596 3.18844765,126.404912 3.03898917,127.401404 C3.03898917,127.550877 2.93935018,127.700351 2.88953069,127.849825 L2.69025271,127.849825 C2.64043321,127.700351 2.59061372,127.600702 2.64043321,127.451228 C2.83971119,126.504561 3.08880866,125.50807 3.23826715,124.561404 C3.38772563,123.664561 3.48736462,122.817544 3.58700361,121.920702 C3.58700361,121.771228 3.6866426,121.671579 3.78628159,121.522105 C3.88592058,121.671579 4.08519856,121.821053 4.08519856,121.970526 C3.88592058,122.767719 3.6368231,123.564912 3.48736462,124.362105 Z M6.52635379,125.707368 C6.32707581,126.70386 6.07797834,127.650526 5.87870036,128.647018 C5.77906137,129.045614 5.72924188,129.344561 5.23104693,128.945965 C4.93212996,128.696842 4.33429603,128.597193 4.28447653,128.34807 C4.18483755,127.750175 4.28447653,127.102456 4.38411552,126.504561 C4.53357401,125.50807 4.73285199,124.561404 4.93212996,123.564912 C4.98194946,123.315789 4.98194946,123.016842 5.08158845,122.817544 C5.23104693,122.518596 5.23104693,121.671579 5.87870036,122.468772 C6.37689531,122.219649 6.52635379,122.967018 7.02454874,122.867368 C7.07436823,122.867368 7.17400722,123.016842 7.17400722,123.016842 C6.92490975,124.063158 6.72563177,124.860351 6.52635379,125.707368 Z M10.2628159,128.098947 C10.1133574,128.945965 9.96389892,129.842807 9.81444043,130.689825 C9.81444043,130.739649 9.61516245,130.839298 9.56534296,130.839298 C8.91768953,130.64 8.2700361,130.390877 7.62238267,130.141754 C7.52274368,130.09193 7.3732852,129.842807 7.42310469,129.743158 C7.77184116,128.049123 8.12057762,126.305263 8.51913357,124.611228 C8.56895307,124.362105 8.81805054,124.112982 8.91768953,123.963509 C9.66498195,124.162807 10.2129964,124.262456 10.7610108,124.41193 C10.9104693,124.461754 11.0101083,124.810526 10.9602888,124.96 C10.7111913,126.006316 10.4620939,127.052632 10.2628159,128.098947 Z M13.2021661,131.038596 C13.1523466,131.287719 13.1025271,131.437193 12.8534296,131.337544 C12.6043321,131.237895 12.0563177,131.437193 12.1559567,130.889123 C12.4050542,129.344561 12.7039711,127.849825 13.0527076,126.305263 C13.1025271,126.05614 13.1523466,125.757193 13.2519856,125.50807 C13.3018051,125.408421 13.401444,125.358596 13.501083,125.258947 C14.0490975,125.408421 14.4476534,125.458246 14.8462094,125.607719 C14.9458484,125.657544 14.9458484,126.006316 14.8960289,126.155789 C14.6967509,126.654035 14.3978339,127.102456 14.198556,127.650526 C13.8,128.796491 13.501083,129.892632 13.2021661,131.038596 Z M17.2873646,126.654035 C16.8389892,128.397895 16.4404332,130.141754 15.9920578,131.885614 C15.9422383,132.084912 15.9422383,132.334035 15.5935018,132.134737 C15.3942238,132.035088 15.1949458,132.035088 14.9956679,131.935439 C14.7963899,131.885614 14.6469314,131.835789 14.7465704,131.487018 C15.2447653,129.992281 15.6433213,128.497544 16.0916968,127.002807 C16.1415162,126.803509 16.1415162,126.504561 16.2411552,126.404912 C16.4404332,126.255439 16.6895307,126.255439 16.9386282,126.255439 C17.0382671,126.255439 17.1877256,126.355088 17.3371841,126.404912 C17.3371841,126.554386 17.2873646,126.604211 17.2873646,126.654035 Z M20.5754513,127.8 C20.1270758,129.344561 19.6288809,130.938947 19.1805054,132.483509 C19.1306859,132.682807 19.0310469,132.832281 18.9314079,133.031579 C18.4830325,132.882105 18.134296,132.782456 17.8353791,132.632982 C17.7357401,132.583158 17.5862816,132.433684 17.5862816,132.334035 C17.8851986,130.988772 18.233935,129.643509 18.5826715,128.298246 C18.632491,127.999298 18.73213,127.750175 18.73213,127.451228 C18.831769,126.853333 18.9812274,126.70386 19.5790614,126.903158 C19.7783394,126.952982 19.9776173,127.102456 20.1768953,127.052632 C21.0736462,126.952982 20.6750903,127.451228 20.5754513,127.8 Z M33.4787004,131.885614 C33.4288809,132.134737 33.3790614,132.433684 33.3292419,132.682807 C33.2794224,133.579649 33.2296029,134.426667 33.1299639,135.273684 C33.1299639,135.323509 32.9805054,135.472982 32.9306859,135.423158 C32.6815884,135.273684 32.233213,135.174035 32.1833935,134.974737 C32.0837545,134.526316 32.1833935,134.02807 32.233213,133.529825 C32.2830325,132.483509 32.3826715,131.437193 32.432491,130.390877 C32.432491,130.141754 32.432491,130.09193 32.6815884,130.191579 C33.6281588,130.440702 33.7277978,130.689825 33.4787004,131.885614 Z M36.368231,136.170526 C36.368231,136.32 36.0693141,136.519298 35.9696751,136.519298 C35.6209386,136.419649 35.2223827,136.32 34.9234657,136.070877 C34.7740072,135.971228 34.7241877,135.622456 34.7740072,135.373333 C34.8238267,133.878596 34.8736462,132.38386 34.9234657,130.889123 C34.9234657,130.839298 35.0729242,130.739649 35.1227437,130.739649 C35.3220217,130.739649 35.5212996,130.839298 35.7205776,130.889123 C36.766787,131.038596 36.766787,131.088421 36.866426,132.184561 C36.667148,133.529825 36.5176895,134.875088 36.368231,136.170526 Z M40.2043321,137.167018 C39.3574007,137.017544 38.6599278,136.917895 38.0122744,136.768421 C37.8628159,136.718596 37.7631769,136.369825 37.7631769,136.120702 C37.7133574,135.174035 37.7133574,134.227368 37.7631769,133.330526 C37.8129964,132.682807 37.9126354,131.985263 37.9624549,131.337544 C37.9624549,131.287719 38.1119134,131.18807 38.1617329,131.18807 C38.4606498,131.18807 38.7595668,131.18807 39.0584838,131.138246 C39.9552347,131.038596 39.8057762,131.536842 39.8057762,132.134737 C39.8057762,133.48 39.9054152,134.775439 40.0050542,136.120702 C40.0050542,136.369825 40.1545126,136.569123 40.2541516,136.818246 C40.2541516,136.86807 40.2043321,136.967719 40.2043321,137.167018 Z M42.0974729,137.316491 C41.499639,137.117193 41.698917,136.469474 41.599278,136.070877 C41.300361,134.675789 41.5494585,133.230877 41.499639,131.785965 C41.499639,131.437193 41.6490975,131.387368 41.9480144,131.437193 C43.0440433,131.636491 43.0440433,131.636491 43.0938628,132.832281 C43.1935018,134.177544 43.3429603,135.522807 43.4924188,136.86807 C43.5422383,137.117193 43.7913357,137.366316 44.0902527,137.715088 C43.3429603,137.565614 42.6953069,137.515789 42.0974729,137.316491 Z M47.2288809,137.964211 C46.9797834,137.914386 46.6808664,137.864561 46.431769,137.864561 C45.4851986,137.814737 45.4353791,137.814737 45.3357401,136.917895 C45.1862816,135.622456 45.0866426,134.277193 44.9870036,132.981754 C44.9870036,132.732632 44.9371841,132.433684 44.9371841,132.184561 C44.9371841,131.686316 44.9371841,131.686316 45.3855596,131.73614 C45.9833935,131.785965 46.5812274,131.785965 47.1790614,131.835789 C47.2288809,131.835789 47.3285199,131.935439 47.3285199,131.985263 C47.3783394,132.682807 47.3285199,133.380351 47.3783394,134.077895 C47.4779783,135.22386 47.5277978,136.369825 47.7270758,137.515789 C47.7768953,137.964211 47.6274368,138.014035 47.2288809,137.964211 Z M50.9155235,138.412632 C50.4173285,138.362807 50.0685921,138.263158 49.6700361,138.263158 C49.1718412,138.263158 49.1220217,137.964211 49.1220217,137.615439 C49.0223827,136.668772 48.9227437,135.77193 48.8231047,134.825263 C48.7732852,133.978246 48.7234657,133.081404 48.6736462,132.234386 C48.6736462,132.134737 48.9227437,131.985263 49.0722022,131.985263 C49.6202166,131.985263 50.2180505,131.985263 50.766065,132.035088 C50.865704,132.035088 51.0649819,132.234386 51.0649819,132.334035 L51.0649819,136.32 C51.0649819,136.967719 51.2144404,137.615439 51.2642599,138.263158 C51.2642599,138.312982 50.965343,138.362807 50.9155235,138.412632 Z M55.399278,138.661754 C54.7516245,138.512281 54.0541516,138.562105 53.3566787,138.462456 C53.2570397,138.462456 53.0577617,138.213333 53.0577617,138.06386 C52.9581227,136.32 52.8584838,134.57614 52.8086643,132.882105 C52.8086643,132.782456 52.7588448,132.682807 52.7588448,132.632982 C52.5595668,132.334035 52.6093863,132.184561 53.0079422,132.184561 L54.0043321,132.184561 L54.0043321,132.184561 C54.4527076,132.234386 55.000722,132.084912 55.2498195,132.334035 C55.4490975,132.533333 55.299639,133.131228 55.299639,133.529825 C55.299639,135.174035 55.3494585,136.818246 55.7480144,138.412632 C55.7978339,138.512281 55.8476534,138.761404 55.399278,138.661754 Z M58.8368231,138.861053 C57.8404332,138.861053 57.7906137,138.910877 57.6411552,137.914386 C57.4916968,136.967719 57.4916968,135.971228 57.3920578,135.024561 C57.3422383,134.327018 57.3422383,133.629474 57.2425993,132.93193 C57.1429603,132.334035 57.1429603,132.084912 57.9400722,132.184561 C58.7870036,132.334035 59.6837545,132.234386 60.5805054,132.284211 C60.7299639,132.284211 60.9292419,132.533333 60.9292419,132.682807 C60.9790614,133.529825 60.9790614,134.426667 60.9790614,135.273684 C61.0288809,136.021053 61.1285199,136.768421 61.1783394,137.465965 C61.2281588,137.914386 61.3277978,138.412632 61.3776173,138.811228 C60.5805054,138.811228 59.733574,138.811228 58.8368231,138.861053 Z M65.0642599,138.861053 C64.4166065,138.910877 63.7689531,138.910877 63.1212996,138.861053 C62.9718412,138.861053 62.7227437,138.61193 62.6729242,138.462456 C62.5732852,137.914386 62.5234657,137.316491 62.5234657,136.768421 C62.4736462,136.170526 62.4736462,135.572632 62.4238267,134.974737 C62.3740072,134.476491 62.3740072,134.02807 62.3241877,133.529825 C62.2743682,133.081404 62.2245487,132.632982 62.1747292,132.234386 L64.2173285,132.234386 C64.5162455,132.234386 64.6158845,132.284211 64.665704,132.533333 C64.765343,133.828772 64.765343,135.124211 64.9148014,136.419649 C65.0144404,137.117193 64.8649819,137.914386 65.3133574,138.562105 C65.3631769,138.61193 65.1638989,138.861053 65.0642599,138.861053 Z M69.4483755,138.811228 C68.800722,138.861053 68.1032491,138.861053 67.4555957,138.811228 C67.3061372,138.811228 67.1566787,138.412632 67.1068592,138.213333 C67.0570397,137.565614 67.0570397,136.917895 67.0072202,136.270175 C66.9075812,135.174035 66.7581227,134.02807 66.6086643,132.93193 C66.5588448,132.483509 66.7581227,132.234386 67.1566787,132.284211 C67.8541516,132.334035 68.601444,132.38386 69.298917,132.433684 C69.3487365,132.38386 69.398556,132.334035 69.4483755,132.334035 C69.398556,132.38386 69.398556,132.483509 69.3487365,132.533333 L69.3487365,137.465965 C69.3487365,137.814737 69.4483755,138.213333 69.5978339,138.462456 C69.9465704,138.811228 69.5978339,138.811228 69.4483755,138.811228 Z M72.9357401,138.61193 C71.7400722,139.060351 71.3415162,138.711579 71.1920578,137.316491 L71.1920578,133.629474 C71.1920578,133.330526 71.0924188,132.981754 71.1422383,132.682807 C71.1422383,132.583158 71.3415162,132.433684 71.4411552,132.433684 C71.8397112,132.38386 72.2880866,132.38386 72.6866426,132.433684 C72.8361011,132.433684 73.0353791,132.682807 73.0353791,132.832281 C73.0353791,133.878596 72.9855596,134.924912 72.9855596,135.971228 C72.9855596,136.768421 73.0851986,137.615439 73.1350181,138.412632 C73.1350181,138.462456 73.0353791,138.562105 72.9357401,138.61193 Z M75.4765343,138.312982 C75.3768953,138.312982 75.1277978,138.163509 75.1277978,138.06386 C75.0779783,137.465965 75.0281588,136.818246 74.9783394,136.220351 C74.9285199,135.373333 74.8787004,134.526316 74.8288809,133.729123 C74.8288809,133.280702 74.7790614,132.832281 74.7790614,132.38386 C74.7790614,132.334035 74.8787004,132.284211 74.9783394,132.284211 C75.8252708,132.184561 76.6223827,132.134737 77.4693141,132.084912 C77.5689531,132.084912 77.7184116,132.284211 77.7184116,132.433684 C77.6685921,133.529825 77.5689531,134.57614 77.5191336,135.672281 C77.5191336,136.220351 77.5689531,136.768421 77.6187726,137.316491 C77.6685921,137.615439 77.7184116,137.914386 77.768231,138.163509 C77.0209386,138.163509 76.2238267,138.263158 75.4765343,138.312982 Z M81.8534296,137.814737 C81.8534296,137.764912 81.8534296,137.715088 81.8036101,137.665263 C81.3054152,137.764912 80.7574007,137.814737 80.2592058,137.914386 C79.8606498,137.964211 79.5617329,138.113684 79.6115523,137.465965 C79.6613718,136.668772 79.5119134,135.871579 79.4620939,135.074386 C79.4620939,134.675789 79.5119134,134.277193 79.5119134,133.878596 C79.4620939,133.330526 79.3624549,132.732632 79.3126354,132.184561 C79.2628159,131.636491 79.4122744,131.636491 79.9602888,131.785965 C80.2592058,131.835789 80.6577617,131.636491 81.0064982,131.636491 C81.2057762,131.636491 81.4548736,131.636491 81.6541516,131.73614 C81.9032491,131.885614 81.6043321,131.985263 81.6043321,132.134737 C81.5545126,132.38386 81.5545126,132.682807 81.6043321,132.981754 C81.8036101,133.729123 82.1025271,134.426667 82.2519856,135.174035 C82.401444,135.971228 82.501083,136.768421 82.5509025,137.565614 C82.5509025,137.615439 82.1025271,137.715088 81.8534296,137.814737 Z M84.3444043,137.615439 C84.2447653,137.615439 83.9956679,137.41614 83.9458484,137.266667 C83.6469314,135.921404 83.4476534,134.625965 83.198556,133.280702 L83.198556,133.280702 C83.098917,132.782456 83.0490975,132.284211 82.999278,131.73614 C82.999278,131.686316 83.198556,131.487018 83.3480144,131.487018 C84.2447653,131.437193 85.1913357,131.437193 86.0880866,131.337544 C86.3371841,131.337544 86.3371841,131.337544 86.3371841,131.586667 C86.3870036,132.583158 86.3870036,133.529825 86.4866426,134.526316 C86.5862816,135.423158 86.7855596,136.32 86.9350181,137.266667 C86.1379061,137.366316 85.2411552,137.515789 84.3444043,137.615439 Z M91.0700361,136.967719 C90.5220217,136.718596 89.9740072,136.718596 89.4259928,136.917895 C88.7783394,137.117193 88.7285199,136.469474 88.7285199,136.170526 C88.6288809,135.423158 88.6787004,134.625965 88.6288809,133.828772 C88.5790614,133.181053 88.5292419,132.533333 88.5292419,131.835789 C88.5292419,131.785965 88.5790614,131.73614 88.5292419,131.686316 C88.4296029,131.487018 88.3797834,131.287719 88.2801444,131.138246 C88.6288809,131.038596 88.9277978,130.938947 89.2765343,130.889123 C89.6750903,130.789474 90.1234657,130.839298 90.5220217,130.689825 C91.0202166,130.490526 91.0700361,130.64 90.9703971,131.038596 L90.9703971,131.287719 L90.8707581,131.287719 C90.9703971,132.93193 91.0202166,134.57614 91.1198556,136.220351 C91.1198556,136.369825 91.2693141,136.469474 91.3191336,136.618947 C91.3689531,136.718596 91.4187726,136.818246 91.5184116,136.917895 C91.3191336,136.917895 91.1198556,137.017544 91.0700361,136.967719 Z M93.8599278,136.818246 C93.1624549,137.017544 92.9631769,136.768421 93.0129964,136.120702 C93.0628159,135.672281 92.9133574,135.22386 92.8137184,134.725614 C92.6642599,133.629474 92.5646209,132.533333 92.4151625,131.437193 C92.365343,131.18807 92.265704,130.988772 92.2158845,130.739649 C92.2158845,130.64 92.265704,130.390877 92.3155235,130.390877 C92.7638989,130.241404 93.2122744,130.141754 93.6606498,130.042105 C93.7104693,130.042105 93.9097473,130.341053 93.9595668,130.540351 C94.0592058,131.686316 94.1090253,132.782456 94.2086643,133.928421 C94.2584838,134.57614 94.3581227,135.22386 94.4577617,135.871579 C94.5075812,136.120702 94.7068592,136.32 94.8563177,136.569123 C94.6072202,136.618947 94.2584838,136.718596 93.8599278,136.818246 Z M97.6960289,135.921404 C97.2974729,136.021053 96.898917,136.120702 96.500361,136.170526 C96.4505415,136.170526 96.301083,136.021053 96.2512635,135.971228 C96.201444,135.77193 96.2512635,135.572632 96.2512635,135.373333 L96.301083,135.373333 C96.1516245,134.376842 96.0021661,133.380351 95.8527076,132.433684 C95.7530686,131.636491 95.7032491,130.789474 95.5039711,129.992281 C95.4043321,129.643509 95.6036101,129.593684 95.8028881,129.54386 C96.2512635,129.444211 96.699639,129.344561 97.1480144,129.294737 C97.2476534,129.294737 97.4469314,129.494035 97.4469314,129.593684 C97.5465704,130.64 97.5963899,131.686316 97.6960289,132.782456 C97.7458484,133.380351 97.6462094,134.02807 97.8454874,134.526316 C98.0447653,134.974737 97.7458484,135.323509 97.8953069,135.722105 C97.9451264,135.722105 97.7956679,135.921404 97.6960289,135.921404 Z M100.485921,135.22386 C100.236823,135.323509 99.9877256,135.323509 99.7386282,135.373333 C99.0411552,135.522807 98.9415162,135.124211 98.9913357,134.57614 L98.9913357,134.227368 L98.8916968,134.227368 L98.8916968,130.241404 C98.8916968,130.09193 98.8418773,129.992281 98.7920578,129.842807 C98.7920578,129.494035 98.5429603,129.045614 99.1906137,128.945965 C99.5891697,128.89614 99.9877256,128.647018 100.436101,128.497544 C100.735018,128.397895 100.735018,128.447719 100.735018,128.746667 C100.735018,130.291228 100.735018,131.885614 100.784838,133.430175 C100.784838,133.878596 100.834657,134.327018 100.834657,134.775439 C100.784838,134.974737 100.635379,135.174035 100.485921,135.22386 Z M103.325632,133.978246 C103.325632,134.177544 103.076534,134.327018 102.976895,134.526316 C102.877256,134.327018 102.777617,134.177544 102.777617,133.978246 C102.677978,132.981754 102.578339,132.035088 102.52852,131.038596 C102.4787,130.241404 102.4787,129.494035 102.52852,128.696842 C102.52852,128.447719 102.927076,128.298246 103.126354,128.049123 C103.176173,128.098947 103.275812,128.098947 103.325632,128.148772 L103.325632,131.287719 L103.325632,133.978246 Z M117.673646,134.725614 C117.225271,134.775439 117.075812,134.57614 117.025993,134.177544 C116.976173,133.729123 116.776895,133.280702 116.627437,132.782456 L116.727076,132.782456 C116.627437,132.284211 116.527798,131.835789 116.428159,131.337544 C116.2787,130.590175 116.029603,129.842807 115.880144,129.045614 C115.830325,128.89614 115.880144,128.547368 115.979783,128.497544 C116.2787,128.298246 116.677256,128.248421 117.025993,128.148772 C117.025993,128.148772 117.075812,128.248421 117.075812,128.298246 C117.125632,128.597193 117.225271,128.89614 117.225271,129.195088 C117.27509,129.54386 117.225271,129.942456 117.27509,130.341053 C117.474368,131.387368 117.723466,132.38386 117.922744,133.380351 C117.972563,133.629474 117.922744,133.878596 118.022383,134.077895 C118.27148,134.476491 118.122022,134.625965 117.673646,134.725614 Z M115.979783,125.408421 C115.730686,125.458246 115.481588,125.557895 115.33213,125.607719 C115.033213,124.910175 114.833935,124.212632 114.485199,123.515088 C113.588448,121.771228 112.841155,120.027368 112.39278,118.134035 C112.044043,116.838596 111.595668,115.543158 111.246931,114.247719 C110.948014,113.151579 110.748736,112.005614 110.499639,110.909474 C110.001444,108.866667 109.503249,106.82386 108.955235,104.830877 C108.606498,103.635088 108.108303,102.489123 107.759567,101.243509 C107.062094,98.8021053 106.46426,96.3108772 105.816606,93.8196491 C105.418051,92.2750877 105.019495,90.7305263 104.720578,89.1361404 C104.5213,88.04 104.571119,86.8940351 104.47148,85.7480702 C104.421661,85.0007018 104.322022,84.2533333 104.222383,83.4561404 C104.172563,82.7087719 104.172563,82.0112281 104.072924,81.2638596 C103.923466,79.9185965 103.774007,78.5733333 103.674368,77.2778947 C103.624549,76.7796491 103.724188,76.2315789 103.574729,75.7333333 C103.176173,74.1887719 103.275812,72.594386 103.375451,71 C103.47509,69.754386 103.873646,68.5585965 104.072924,67.362807 C104.222383,66.3164912 104.272202,65.2203509 104.371841,64.1242105 C104.421661,63.3768421 104.5213,62.5796491 104.571119,61.8322807 C104.670758,60.3873684 104.870036,58.9922807 104.919856,57.5473684 C104.969675,55.8035088 104.870036,54.0098246 104.770397,52.2659649 C104.720578,51.0203509 104.571119,49.8245614 104.322022,48.5789474 C103.873646,46.4364912 103.425271,44.2940351 102.976895,42.1515789 C102.927076,41.9522807 102.827437,41.802807 102.727798,41.6533333 C102.677978,41.6035088 102.677978,41.6035088 102.628159,41.5536842 C102.4787,41.6035088 102.379061,41.6533333 102.080144,41.802807 C102.279422,41.5038596 102.379061,41.3045614 102.52852,41.1550877 C102.628159,41.0554386 102.628159,41.1052632 102.4787,40.9557895 C101.781227,40.4077193 102.129964,41.3045614 101.930686,41.354386 C102.179783,42.0021053 101.781227,42.6498246 101.980505,43.397193 C102.229603,44.3936842 101.930686,45.4898246 101.980505,46.5361404 C102.030325,47.8814035 102.129964,49.2266667 102.179783,50.5719298 C102.179783,51.3691228 102.129964,52.2161404 102.129964,53.0133333 C102.129964,54.1592982 102.229603,55.3550877 102.229603,56.5010526 L102.229603,60.3375439 C102.229603,61.3838596 102.229603,62.4301754 102.080144,63.4266667 C101.831047,64.9712281 101.382671,66.4659649 101.083755,68.0105263 C100.984116,68.5585965 100.934296,69.1564912 100.834657,69.7045614 C100.485921,71.9964912 100.137184,74.2884211 99.7386282,76.5803509 C99.3898917,78.6729825 98.8916968,80.765614 98.1942238,82.8084211 C97.8454874,83.8049123 97.6960289,84.9010526 97.4967509,85.9473684 C97.2974729,86.8442105 97.0483755,87.6912281 96.8490975,88.5880702 C96.699639,89.1859649 96.6498195,89.7838596 96.6,90.3817544 C96.6,90.4315789 96.6,90.4814035 96.6498195,90.5312281 C96.799278,90.7305263 98.0447653,90.9796491 98.2440433,90.88 C98.3935018,90.7803509 98.6425993,90.6308772 98.6924188,90.4814035 C99.2404332,89.285614 99.6888087,88.04 99.7884477,86.6947368 C99.7884477,86.3957895 99.8382671,86.0968421 99.8880866,85.7978947 C99.8880866,85.7480702 99.9877256,85.6982456 100.037545,85.6484211 C100.087365,85.7480702 100.187004,85.7978947 100.236823,85.8975439 C100.336462,86.445614 100.436101,86.9936842 100.485921,87.5417544 C100.58556,88.5880702 100.635379,89.634386 100.735018,90.6807018 C100.834657,91.5277193 101.033935,92.3747368 101.183394,93.2715789 C101.332852,94.4673684 101.432491,95.6631579 101.581949,96.8589474 C101.731408,98.2540351 101.880866,99.6491228 102.030325,101.044211 C102.129964,101.990877 102.179783,102.937544 102.279422,103.884211 C102.379061,104.880702 102.52852,105.877193 102.578339,106.873684 C102.628159,107.92 102.628159,108.966316 102.628159,109.962807 C102.677978,110.959298 102.677978,111.955789 102.727798,112.952281 C102.827437,114.945263 103.026715,116.938246 103.026715,118.881404 C103.026715,119.877895 102.777617,120.924211 102.677978,121.920702 C102.578339,123.016842 102.279422,124.013333 101.831047,125.009825 C101.631769,125.408421 101.581949,125.856842 101.382671,126.255439 C101.283032,126.404912 100.934296,126.404912 100.685199,126.404912 C100.286643,126.454737 99.8382671,126.504561 99.4397112,126.604211 C98.4433213,126.753684 97.3971119,126.952982 96.400722,127.152281 C95.7032491,127.301754 95.0555957,127.501053 94.3581227,127.650526 C93.7104693,127.8 93.0129964,127.899649 92.3155235,127.999298 C90.5718412,128.198596 88.8779783,128.447719 87.134296,128.597193 C85.8389892,128.746667 84.5436823,128.846316 83.2483755,128.945965 C81.8036101,129.095439 80.3588448,129.244912 78.9140794,129.394386 C77.9176895,129.494035 76.8714801,129.494035 75.8252708,129.54386 C74.7292419,129.593684 73.633213,129.693333 72.5371841,129.743158 C71.3913357,129.792982 70.1956679,129.792982 69,129.842807 C68.1530686,129.892632 67.3559567,129.992281 66.5090253,129.992281 C65.5126354,129.942456 64.466426,129.792982 63.4700361,129.743158 C61.7761733,129.643509 60.0823105,129.593684 58.3884477,129.494035 C56.6447653,129.444211 54.8512635,129.394386 53.1075812,129.344561 C51.5133574,129.294737 49.9689531,129.244912 48.3747292,129.145263 C46.132852,128.995789 43.8909747,128.796491 41.6490975,128.597193 C40.2541516,128.447719 38.8093863,128.34807 37.4144404,128.098947 C36.368231,127.949474 35.3220217,127.600702 34.2758123,127.351579 C34.0267148,127.301754 33.7776173,127.202105 33.5285199,127.202105 C32.7812274,127.152281 32.4823105,126.654035 32.133574,126.105965 C31.0375451,124.212632 30.0909747,122.269474 30.3400722,119.977544 C30.4895307,118.283509 30.6389892,116.589474 30.7884477,114.895439 C30.8382671,114.197895 30.8880866,113.550175 30.9379061,112.852632 C30.9877256,111.108772 31.1371841,109.414737 31.3862816,107.720702 C31.5855596,106.126316 31.6353791,104.482105 31.7848375,102.887719 C31.934296,101.243509 32.1833935,99.5992982 32.3826715,97.9052632 C32.53213,96.7094737 32.7812274,95.4638596 32.9805054,94.2680702 C33.2296029,92.3747368 33.4787004,90.4315789 33.6779783,88.4884211 C33.8274368,87.0933333 33.9768953,85.6982456 34.0765343,84.3529825 C34.2259928,82.6589474 34.2758123,80.9649123 34.4252708,79.2708772 C34.4252708,79.1712281 34.6245487,79.0217544 34.7241877,78.9221053 C34.7740072,79.0217544 34.9234657,79.0715789 34.9234657,79.1712281 C35.6209386,81.0645614 35.9696751,83.0077193 36.4180505,84.9508772 C36.866426,86.7445614 37.4144404,88.4884211 37.9624549,90.2821053 C38.2115523,91.0294737 39.3574007,91.7768421 40.0050542,91.677193 C40.1545126,91.677193 40.3039711,91.2785965 40.3039711,91.0792982 C40.2043321,89.8835088 40.1046931,88.6378947 39.9054152,87.4421053 C39.7061372,86.2463158 39.4072202,85.1003509 39.1083032,83.954386 C38.7097473,82.3101754 38.3111913,80.7157895 37.9126354,79.0715789 C37.5638989,77.6764912 37.2151625,76.2814035 36.866426,74.8863158 C36.3184116,72.8435088 35.7703971,70.8505263 35.2722022,68.8077193 C34.8736462,67.1136842 34.4750903,65.3698246 34.1263538,63.6757895 C33.7776173,61.9817544 33.4787004,60.2877193 33.2296029,58.5936842 C33.1299639,57.8463158 33.1797834,57.0989474 33.1299639,56.3515789 C33.0801444,55.6042105 33.0801444,54.9066667 33.0303249,54.1592982 L33.0303249,52.6645614 C33.0303249,51.3192982 33.0303249,50.0238596 33.0801444,48.6785965 C33.0801444,48.1305263 33.2296029,47.5824561 33.2794224,47.034386 C33.3292419,46.4863158 33.2794224,45.8884211 33.2794224,45.3403509 C33.2794224,45.0414035 33.3292419,44.7922807 33.3292419,44.4933333 C33.3790614,43.4968421 33.4288809,42.5003509 33.5285199,41.5536842 C33.5783394,40.9557895 33.7776173,40.4077193 33.9270758,39.8596491 C33.9768953,39.6105263 34.0267148,39.4112281 34.1263538,39.0624561 C33.6281588,39.4112281 33.0303249,39.6105263 32.8808664,39.9592982 C32.6815884,40.4575439 32.332852,40.8063158 32.133574,41.2049123 C31.5357401,42.2512281 31.4859206,43.4470175 31.3364621,44.642807 C31.1371841,46.0378947 30.8880866,47.4329825 30.7386282,48.8280702 C30.5393502,50.8210526 30.3898917,52.8638596 30.3400722,54.8568421 C30.2902527,56.2519298 30.4397112,57.6470175 30.5891697,59.0421053 C30.7386282,60.5368421 30.9379061,62.0814035 31.1870036,63.5761404 C31.3862816,64.6722807 31.6353791,65.7684211 31.8844765,66.8645614 C32.1833935,68.2098246 32.133574,69.6049123 31.9841155,70.9501754 C31.8844765,71.8470175 31.8844765,72.7936842 31.834657,73.6905263 C31.7848375,74.9361404 31.7848375,76.1817544 31.7350181,77.4273684 C31.6851986,78.5235088 31.5855596,79.6196491 31.4859206,80.765614 C31.4361011,81.6624561 31.3364621,82.5592982 31.2368231,83.4063158 C31.0873646,84.9010526 30.9379061,86.3459649 30.7884477,87.8407018 C30.6389892,89.1361404 30.3898917,90.4315789 30.1906137,91.7270175 C29.9415162,93.3712281 29.6425993,95.0154386 29.3935018,96.7094737 C29.2440433,97.5564912 29.1942238,98.4035088 29.0945848,99.2505263 C28.9451264,100.097544 28.7956679,100.894737 28.6462094,101.741754 C28.3472924,103.385965 28.0981949,105.030175 27.799278,106.674386 C27.6498195,107.471579 27.4505415,108.268772 27.500361,109.065965 C27.5501805,110.510877 27.1516245,111.806316 26.8527076,113.151579 C26.5537906,114.546667 26.1054152,115.941754 25.5574007,117.237193 C24.9097473,118.981053 24.1624549,120.675088 23.3155235,122.319298 C22.867148,123.166316 22.1198556,123.913684 21.6216606,124.710877 C21.2231047,125.358596 20.6750903,125.308772 20.1270758,125.109474 C17.5364621,124.212632 14.9458484,123.365614 12.3552347,122.468772 C11.2093863,122.070175 10.0635379,121.821053 8.96750903,121.372632 C8.02093863,121.02386 7.07436823,120.525614 6.12779783,120.077193 C5.92851986,119.977544 5.72924188,119.927719 5.5299639,119.82807 C4.78267148,119.578947 4.38411552,119.080702 4.18483755,118.333333 C3.88592058,117.436491 3.48736462,116.539649 3.33790614,115.642807 C3.18844765,114.447018 3.23826715,113.201404 3.18844765,111.955789 C3.18844765,111.557193 3.13862816,111.108772 3.18844765,110.710175 C3.38772563,108.617544 3.43754513,106.524912 3.83610108,104.53193 C4.23465704,102.588772 4.93212996,100.645614 5.4801444,98.7522807 C6.32707581,95.762807 7.22382671,92.7733333 8.07075812,89.7838596 C8.61877256,87.8905263 9.11696751,85.997193 9.61516245,84.1038596 C10.0137184,82.6589474 10.3126354,81.1642105 10.7111913,79.6694737 C11.2093863,77.7761404 11.7075812,75.9326316 12.2555957,74.0392982 C12.5545126,73.042807 12.9530686,72.0463158 13.3018051,71.0498246 C14.098917,68.3592982 14.9458484,65.6687719 15.6931408,62.9284211 C16.1913357,61.1347368 16.4902527,59.2414035 16.9386282,57.3978947 C17.4866426,55.1059649 18.034657,52.7642105 18.73213,50.5221053 C19.1805054,48.9277193 19.8281588,47.3333333 20.4259928,45.7887719 C21.0238267,44.0449123 21.5718412,42.3508772 22.2194946,40.6070175 C23.1162455,38.2652632 24.0628159,35.9733333 25.0093863,33.6315789 C25.5075812,32.3859649 26.0555957,31.1403509 26.6036101,29.8947368 C26.7032491,29.7452632 26.8527076,29.5957895 26.9523466,29.4463158 C27.4505415,28.4498246 27.9487365,27.4035088 28.4469314,26.4070175 C28.7458484,25.8091228 29.1942238,25.3108772 29.5429603,24.762807 C29.6425993,24.6133333 29.7422383,24.4638596 29.7920578,24.3642105 C30.0411552,25.0119298 30.3400722,25.6596491 30.6389892,26.3073684 C30.8382671,26.7557895 31.0873646,27.154386 31.2866426,27.602807 C31.4361011,27.9017544 31.4361011,28.2505263 31.8844765,28.2505263 C31.9841155,28.2505263 32.133574,28.4498246 32.0837545,28.4996491 C31.8844765,29.0477193 32.2830325,29.4463158 32.4823105,29.8449123 C32.7812274,30.2933333 32.7314079,31.0407018 33.5783394,31.0407018 C33.6779783,31.0407018 33.7776173,31.4891228 33.9270758,31.7880702 C33.9768953,31.7382456 33.9768953,31.6385965 34.0267148,31.5887719 C34.0765343,31.4891228 34.1263538,31.3894737 34.1761733,31.2898246 C34.2259928,31.3894737 34.3256318,31.4392982 34.3754513,31.5389474 C34.5249097,31.7382456 34.6245487,32.037193 34.8238267,32.1368421 C35.1725632,32.3859649 35.2223827,32.037193 35.1227437,31.8378947 C34.8736462,31.2898246 34.6245487,30.7915789 34.3256318,30.2933333 C33.7776173,29.2470175 33.0303249,28.3501754 32.8310469,27.1045614 C32.7314079,26.5564912 32.332852,26.0084211 32.033935,25.5101754 C31.6851986,24.9122807 31.2368231,24.314386 30.8382671,23.7164912 C30.7884477,23.6666667 30.7386282,23.517193 30.7386282,23.517193 C31.1371841,23.1684211 31.5357401,22.7698246 31.9841155,22.4210526 C32.432491,22.0224561 32.8808664,21.6238596 33.3292419,21.2750877 C33.5783394,21.0757895 33.8274368,20.9263158 34.0765343,20.7270175 C34.1761733,20.6273684 34.2758123,20.4778947 34.3754513,20.3782456 C34.6245487,20.2287719 34.8736462,20.0792982 35.1227437,19.9298246 C35.2223827,19.88 35.3718412,19.8301754 35.5212996,19.8301754 C35.6209386,19.8301754 35.7205776,19.7803509 35.7703971,19.8301754 C36.46787,20.3782456 37.165343,20.9761404 37.9126354,21.474386 C38.3610108,21.7733333 38.9090253,21.9726316 39.4072202,22.2217544 C40.3039711,22.6701754 41.200722,23.1684211 42.1472924,23.517193 C43.0440433,23.8659649 43.9906137,24.0652632 44.8873646,24.3642105 C45.933574,24.7129825 46.9797834,25.0617544 47.9761733,25.5101754 C48.4743682,25.7094737 48.8231047,26.1578947 48.7732852,26.8554386 C48.6736462,28.2007018 48.6736462,29.4961404 48.7234657,30.8414035 C48.7732852,32.7347368 48.9227437,34.6280702 48.9725632,36.5214035 C49.0223827,38.8631579 49.4209386,41.1052632 50.0685921,43.3473684 C50.6166065,45.2407018 51.3140794,47.034386 52.4101083,48.6785965 C52.7090253,49.1270175 52.9581227,49.5754386 53.2072202,50.0238596 C53.3068592,49.9740351 53.4064982,49.9740351 53.5559567,50.0238596 C54.7018051,50.1733333 55.7978339,49.1768421 56.6945848,48.3796491 C56.6447653,48.28 56.5949458,48.1803509 56.4953069,48.0807018 C56.3458484,47.9312281 56.4454874,47.5326316 56.3458484,47.2336842 C56.0967509,46.5859649 55.8476534,45.9382456 55.5487365,45.2905263 C54.9509025,43.9452632 54.5523466,42.5501754 54.2534296,41.1052632 C53.9545126,39.7101754 53.8548736,38.2652632 53.8548736,36.8203509 C53.8548736,36.2224561 53.7054152,35.674386 53.6555957,35.0764912 C53.6555957,34.9768421 53.7054152,34.877193 53.7054152,34.7775439 L53.7054152,32.834386 C53.7552347,32.3361404 53.8050542,31.8378947 53.9046931,31.3396491 C53.9545126,30.8912281 54.0541516,30.3929825 54.1039711,29.9445614 C54.2036101,29.0975439 54.5025271,28.2007018 54.3530686,27.3536842 C54.2036101,26.357193 54.7018051,26.7059649 55.1501805,26.805614 C55.7978339,26.9550877 56.4953069,26.7557895 57.1429603,27.0547368 C57.4418773,27.2042105 57.8902527,27.154386 58.1891697,27.0547368 C58.6375451,26.9052632 58.6375451,26.4568421 58.0895307,25.9585965 C57.9400722,25.8091228 57.9400722,25.7592982 57.8902527,25.56 C57.7906137,25.0617544 57.2924188,24.9122807 56.7942238,24.8624561 C56.1963899,24.8126316 55.598556,24.762807 55.0505415,24.7129825 C54.7516245,24.6631579 54.5523466,24.5635088 54.6519856,24.1649123 C54.901083,22.9192982 54.901083,21.6238596 54.5523466,20.3782456 C54.5025271,20.1291228 54.3530686,19.9298246 54.2036101,19.7305263 C53.6057762,19.1824561 53.1075812,18.5347368 52.2606498,18.3852632 C51.9119134,18.3354386 51.5631769,18.1859649 51.2144404,18.0863158 C50.666426,17.8870175 50.4173285,18.3852632 50.3176895,18.634386 C49.9191336,19.6807018 49.6202166,20.7270175 49.3212996,21.7733333 C49.2216606,22.1221053 49.3212996,22.4708772 49.1718412,22.7698246 C49.1220217,22.9192982 48.7234657,23.0687719 48.5241877,23.0189474 C47.4779783,22.6701754 46.4815884,22.1221053 45.4353791,21.8729825 C44.1898917,21.5740351 43.1436823,20.9263158 41.9480144,20.4778947 C41.200722,20.2287719 40.4036101,19.88 39.7061372,19.3319298 C39.0584838,18.7838596 38.3610108,18.3852632 37.7133574,17.8870175 C37.3148014,17.5880702 37.2151625,17.1396491 37.1155235,16.4919298 C37.065704,16.242807 36.866426,16.0933333 36.8166065,15.8442105 C36.7169675,14.997193 36.6173285,14.1003509 36.6173285,13.2035088 C36.6173285,12.8547368 36.866426,12.5557895 37.0158845,12.2070175 C37.4642599,11.1607018 38.3111913,10.4133333 39.0086643,9.61614035 C39.8555957,8.71929825 40.7025271,7.82245614 41.698917,7.07508772 C42.7451264,6.27789474 43.8909747,5.58035088 45.0368231,4.93263158 C45.5848375,4.58385965 46.232491,4.28491228 46.8303249,4.08561404 C47.9761733,3.78666667 49.1718412,3.68701754 50.2180505,3.23859649 C50.7162455,3.03929825 51.1148014,3.23859649 51.5631769,3.18877193 C51.8122744,3.13894737 52.0115523,3.08912281 52.2606498,3.08912281 C52.5097473,3.08912281 52.7588448,3.13894737 53.0577617,3.18877193 C53.2570397,3.18877193 53.4563177,3.13894737 53.6555957,3.13894737 L55.4490975,3.13894737 L55.4490975,2.93964912 C55.9472924,3.23859649 56.4953069,2.88982456 57.0433213,3.03929825 C57.5913357,3.18877193 58.1393502,3.33824561 58.7371841,3.4877193 C59.0859206,3.53754386 59.4844765,3.53754386 59.833213,3.58736842 C59.932852,3.58736842 60.032491,3.68701754 60.1819495,3.73684211 C60.0823105,3.78666667 59.9826715,3.88631579 59.8830325,3.88631579 C58.5379061,4.23508772 57.1429603,4.53403509 55.7978339,4.88280702 C55.5487365,4.93263158 55.399278,5.28140351 55.2,5.53052632 C55.2498195,5.58035088 55.299639,5.58035088 55.299639,5.63017544 C55.3494585,5.77964912 55.498917,5.97894737 55.498917,6.12842105 C55.4490975,6.47719298 55.7480144,6.82596491 56.0967509,6.77614035 C56.5451264,6.72631579 56.9935018,6.52701754 57.4418773,6.82596491 C57.5415162,6.87578947 57.8902527,6.62666667 58.1891697,6.47719298 C58.4880866,7.02526316 59.1357401,6.67649123 59.5841155,6.62666667 C61.0288809,6.42736842 62.4238267,6.07859649 63.8187726,5.82947368 C64.9646209,5.63017544 66.1104693,5.48070175 67.2563177,5.28140351 C68.800722,5.0322807 70.2953069,4.68350877 71.8397112,4.43438596 C72.8859206,4.28491228 73.9819495,4.18526316 75.0779783,4.03578947 C76.0245487,3.88631579 76.9212996,3.73684211 77.86787,3.58736842 C78.166787,3.53754386 78.465704,3.53754386 78.7646209,3.58736842 C80.4584838,3.83649123 82.0527076,3.38807018 83.6967509,3.23859649 C84.6931408,3.13894737 85.7393502,3.13894737 86.7357401,3.13894737 C88.0310469,3.13894737 89.2765343,3.18877193 90.5718412,3.23859649 C92.3155235,3.28842105 94.1090253,3.38807018 95.7530686,4.08561404 C96.6,4.43438596 97.2974729,5.08210526 97.8454874,5.87929825 C99.2404332,7.92210526 98.9913357,10.0645614 98.4433213,12.2568421 C98.3935018,12.3564912 98.4433213,12.5059649 98.4433213,12.605614 C98.5927798,12.605614 98.7920578,12.605614 98.8916968,12.5059649 C99.9379061,11.6589474 100.485921,10.5129825 100.386282,9.1677193 L100.386282,8.17122807 C101.432491,9.1677193 101.831047,10.3635088 102.129964,11.6091228 C102.229603,12.0575439 102.229603,12.5557895 102.279422,13.0042105 C102.428881,14.3992982 101.831047,15.4954386 101.033935,16.5417544 C100.137184,17.6378947 99.1407942,18.5845614 98.0447653,19.4814035 C97.0981949,20.2287719 96.0021661,20.6273684 94.9559567,21.0757895 C93.5111913,21.6736842 91.9169675,22.0224561 90.4223827,22.4708772 C89.8245487,22.6701754 89.1768953,22.8196491 88.5292419,22.9691228 L88.4794224,23.0189474 C87.4830325,23.3677193 86.4866426,23.7164912 85.4404332,24.0652632 C85.3906137,24.0652632 85.2411552,23.9157895 85.2411552,23.8659649 C85.1913357,23.0189474 85.1415162,22.1221053 85.0418773,21.2750877 C84.9422383,20.5775439 84.7927798,19.8301754 84.6433213,19.1326316 C84.5935018,18.9831579 84.3942238,18.7838596 84.2945848,18.7838596 C83.198556,18.7340351 82.1523466,18.8835088 81.2057762,19.4315789 C80.6577617,19.7305263 80.4086643,20.2287719 80.3588448,20.8764912 C80.2592058,22.1719298 80.0101083,23.4673684 79.9104693,24.8126316 C79.7610108,26.5066667 79.8606498,28.2505263 80.3090253,29.8947368 C80.7075812,31.4392982 81.1061372,32.9838596 81.6541516,34.4287719 C82.2021661,35.8736842 82.999278,37.2189474 83.6469314,38.6638596 C84.1451264,39.76 84.6433213,40.8063158 84.9920578,41.9522807 C85.4902527,43.7459649 85.7393502,45.5396491 85.7891697,47.3831579 C85.8389892,48.3796491 85.9386282,49.3761404 86.0382671,50.3726316 C86.0382671,50.4722807 86.1379061,50.5719298 86.2375451,50.5719298 C87.333574,50.7214035 88.4794224,50.9207018 89.5754513,51.0203509 C90.3227437,51.0701754 90.6714801,50.7214035 90.5718412,49.9242105 C90.4223827,48.4294737 90.2231047,46.9347368 89.9740072,45.44 C89.8245487,44.2442105 89.6252708,42.9985965 89.3761733,41.802807 C89.2765343,41.2547368 89.0274368,40.7066667 88.8281588,40.1585965 C88.4296029,38.8133333 88.0310469,37.4182456 87.632491,36.0729825 C87.0844765,34.2792982 86.5364621,32.4357895 85.9884477,30.6421053 C85.8888087,30.2435088 85.6397112,29.8947368 85.5400722,29.4961404 C85.4902527,29.2470175 85.1913357,28.8982456 85.6397112,28.6989474 C85.6895307,28.6989474 85.5898917,28.4498246 85.5898917,28.3003509 C85.4902527,27.602807 85.3906137,26.9052632 85.3407942,26.2077193 C85.3407942,26.1080702 85.5898917,25.9087719 85.7393502,25.8589474 C86.8851986,25.7592982 88.0310469,25.7592982 89.1768953,25.6596491 C90.0238267,25.56 90.9205776,25.4105263 91.767509,25.1614035 C92.6642599,24.9122807 93.5610108,24.5635088 94.4577617,24.2645614 C95.2548736,24.0154386 96.1018051,23.8161404 96.898917,23.517193 C97.4469314,23.3178947 97.9949458,23.1185965 98.5429603,22.8694737 C99.7884477,22.2715789 100.784838,21.3747368 101.831047,20.4778947 C101.930686,20.3782456 102.279422,20.3782456 102.428881,20.4778947 C103.774007,21.3249123 105.168953,22.0722807 106.314801,23.2182456 C106.862816,23.7663158 107.46065,24.2147368 108.058484,24.762807 C108.257762,24.9122807 108.307581,25.0119298 108.158123,25.3108772 C107.311191,26.8554386 106.514079,28.4 105.716968,29.994386 C105.716968,30.5424561 105.667148,31.1403509 105.667148,31.6884211 L105.766787,31.6884211 C105.966065,31.6385965 106.165343,31.5389474 106.314801,31.4891228 C106.41444,31.4392982 106.46426,31.4392982 106.563899,31.4392982 C107.111913,31.0905263 107.41083,30.4926316 107.659928,29.9445614 C107.809386,29.645614 108.058484,29.7452632 108.158123,29.4961404 C108.606498,28.4996491 109.204332,27.602807 109.702527,26.6063158 C109.851986,26.2575439 109.951625,26.4070175 110.101083,26.5564912 C110.449819,26.9052632 110.798556,27.3038596 111.097473,27.7024561 C111.844765,28.7487719 112.641877,29.7950877 113.33935,30.8912281 C113.787726,31.5887719 114.136462,32.3361404 114.435379,33.1333333 C115.232491,35.1761404 116.029603,37.1691228 116.776895,39.2617544 C117.025993,40.0091228 117.025993,40.8561404 117.225271,41.6533333 C117.32491,42.2512281 117.524188,42.7992982 117.723466,43.3473684 C118.122022,44.4933333 118.520578,45.5894737 118.869314,46.7354386 C119.417329,48.4294737 119.915523,50.0736842 120.413718,51.7677193 C120.812274,53.2126316 121.161011,54.6575439 121.509747,56.0526316 C122.007942,58.045614 122.456318,60.0385965 122.954513,62.0315789 C123.103971,62.6294737 123.303249,63.1775439 123.552347,63.725614 C123.851264,64.3733333 123.801444,65.0708772 123.801444,65.7684211 C123.801444,66.565614 124.000722,67.362807 124.150181,68.16 C124.349458,69.3059649 124.548736,70.5017544 124.797834,71.6477193 C125.296029,74.0392982 125.794224,76.4308772 126.242599,78.8224561 C126.392058,79.5698246 126.441877,80.317193 126.591336,81.0147368 C126.790614,81.9115789 127.089531,82.7585965 127.338628,83.605614 C127.587726,84.6519298 127.836823,85.7480702 128.036101,86.8442105 C128.484477,89.0364912 128.932852,91.2287719 129.381227,93.4210526 C129.680144,94.8659649 129.929242,96.3607018 130.377617,97.805614 C130.875812,99.4996491 131.573285,101.193684 132.1213,102.887719 C132.420217,103.784561 132.669314,104.681404 132.818773,105.578246 C133.11769,106.973333 133.466426,108.368421 133.566065,109.813333 C133.715523,111.706667 134.512635,113.550175 134.163899,115.443509 C133.914801,116.98807 133.615884,118.532632 133.366787,120.077193 C133.267148,120.774737 133.11769,121.472281 133.018051,122.12 C132.968231,122.418947 132.868592,122.568421 132.519856,122.618246 C131.12491,122.717895 129.729964,122.717895 128.335018,123.166316 C127.936462,123.265965 127.537906,123.365614 127.089531,123.465263 C126.989892,123.465263 126.890253,123.515088 126.840433,123.465263 C125.943682,122.967018 125.096751,123.515088 124.249819,123.614737 C123.103971,123.764211 121.958123,123.963509 120.812274,124.212632 C119.218051,124.611228 117.623827,125.009825 115.979783,125.408421 Z M51.2144404,28.8982456 C51.2144404,28.4996491 51.3140794,28.1010526 51.3140794,27.7522807 C51.3140794,27.3536842 51.2642599,27.0049123 51.3140794,26.6063158 C51.4137184,25.5101754 51.5133574,24.4140351 51.6129964,23.3178947 C51.7126354,22.2715789 51.7624549,21.2252632 51.8620939,20.2287719 L51.8620939,20.0792982 C51.9617329,19.8301754 52.0613718,19.5810526 52.1610108,19.3319298 C52.3104693,19.5810526 52.4599278,19.8301754 52.6093863,20.0792982 C52.6592058,20.1291228 52.6592058,20.2287719 52.6592058,20.2785965 C53.0577617,20.7768421 52.9083032,21.3249123 52.7090253,21.8231579 C52.6592058,21.922807 52.6093863,22.1221053 52.6093863,22.1221053 C53.3566787,22.7698246 52.7090253,23.517193 52.7090253,24.1649123 C52.7090253,25.4603509 52.5097473,26.7557895 52.4101083,28.1010526 C52.3104693,29.2470175 52.1610108,30.3431579 52.0613718,31.4891228 C52.0115523,32.3361404 52.0115523,33.2329825 51.9119134,34.1298246 C51.7624549,35.6245614 51.7126354,37.1192982 52.2108303,38.5642105 C52.3602888,38.962807 52.2108303,39.4112281 52.2606498,39.8098246 C52.4101083,40.7066667 52.5595668,41.6035088 52.7588448,42.4505263 C52.8584838,42.9487719 52.8086643,43.0982456 52.1111913,43.0484211 C52.0613718,42.9985965 51.9617329,42.8491228 51.9119134,42.6996491 C51.5133574,41.2547368 51.1646209,39.8098246 50.8158845,38.3649123 C50.7162455,37.8666667 50.666426,37.3684211 50.766065,36.7705263 C50.965343,35.5747368 50.9155235,34.3789474 50.965343,33.1333333 C51.0151625,32.037193 51.1148014,30.8912281 51.1646209,29.7950877 L51.2144404,29.7452632 C50.865704,29.4463158 51.1646209,29.197193 51.2144404,28.8982456 Z M53.1075812,43.845614 C53.1574007,43.845614 53.3068592,43.8954386 53.3068592,43.9950877 C53.5559567,44.5929825 53.7552347,45.1908772 54.0541516,45.7389474 C54.2036101,46.0877193 54.4527076,46.3866667 54.6519856,46.7354386 C54.7516245,46.8849123 54.8512635,47.034386 54.9509025,47.1838596 C54.801444,47.5326316 54.6021661,47.8814035 54.4527076,48.2301754 C54.3530686,48.1803509 54.2036101,48.1305263 54.1039711,48.0308772 C53.7054152,47.2835088 53.3068592,46.5361404 52.9083032,45.7887719 C52.8086643,45.6392982 52.7090253,45.44 52.6592058,45.2905263 C52.4101083,44.7922807 52.6592058,44.0449123 53.1075812,43.845614 Z M87.4830325,46.8849123 C87.433213,46.0877193 87.233935,45.3403509 87.134296,44.5431579 C87.9812274,44.4435088 87.9812274,44.9915789 88.0310469,45.5894737 C88.1306859,46.6357895 88.2801444,47.6322807 88.4296029,48.6785965 C88.4296029,48.8280702 88.5292419,49.0273684 88.4794224,49.1768421 C88.4794224,49.3761404 88.3797834,49.7249123 88.3299639,49.7249123 C88.0808664,49.7249123 87.7819495,49.6750877 87.632491,49.525614 C87.4830325,49.4259649 87.4830325,49.077193 87.4830325,48.8778947 C87.4830325,48.2301754 87.532852,47.5326316 87.4830325,46.8849123 Z M87.433213,43.397193 C87.134296,43.4968421 86.8851986,43.397193 86.8353791,43.0484211 C86.7357401,42.4505263 86.5862816,41.9024561 86.4866426,41.3045614 C86.2375451,39.9094737 85.6397112,38.6638596 84.9422383,37.4680702 C84.4938628,36.7207018 84.1949458,35.8736842 83.6967509,35.1263158 C83.3480144,34.6280702 83.4476534,33.9305263 82.899639,33.5319298 C82.8498195,33.4821053 82.899639,33.3824561 82.899639,33.282807 C82.899639,33.0835088 82.9494585,32.834386 82.899639,32.6350877 C82.700361,31.6385965 82.501083,30.6421053 82.2519856,29.645614 C82.1523466,29.1473684 81.9032491,28.6989474 81.8534296,28.2007018 C81.8036101,27.7024561 81.9032491,27.154386 81.8534296,26.6561404 C81.8036101,26.1578947 81.7039711,25.6596491 81.6043321,25.1115789 C81.6043321,25.0617544 81.5545126,24.9621053 81.6043321,24.9621053 C82.3018051,24.8126316 81.7537906,24.2645614 81.9032491,23.9157895 C82.0527076,23.517193 82.1025271,23.0687719 82.1523466,22.6701754 C82.2021661,22.2217544 82.1523466,21.7733333 82.2021661,21.3249123 C82.2519856,20.8764912 82.3018051,20.3782456 82.4512635,19.9298246 C82.5509025,19.6807018 82.9494585,19.5810526 83.198556,19.3817544 C83.2483755,19.4814035 83.2981949,19.6308772 83.3480144,19.7305263 C83.2981949,19.7305263 83.2483755,19.7305263 83.198556,19.7803509 C83.198556,21.4245614 83.1487365,23.0189474 83.198556,24.6631579 C83.198556,25.7094737 83.2981949,26.7059649 83.4476534,27.7522807 C83.5971119,28.9480702 83.6469314,30.1936842 83.9458484,31.3396491 C84.3942238,32.9340351 85.0418773,34.4287719 85.5898917,35.9733333 C86.0382671,37.2687719 86.3870036,38.6140351 86.7855596,39.9592982 C87.034657,40.7564912 87.233935,41.5536842 87.4830325,42.4007018 C87.532852,42.6 87.532852,42.8491228 87.532852,43.0484211 C87.532852,43.1480702 87.532852,43.3473684 87.433213,43.397193 Z M120.961733,134.227368 C120.812274,134.277193 120.662816,134.227368 120.513357,134.277193 C119.965343,134.476491 119.915523,134.426667 119.915523,133.729123 C119.716245,133.131228 119.815884,132.284211 119.26787,131.636491 C119.118412,131.487018 119.218051,131.138246 119.168231,130.889123 C118.968953,129.942456 118.819495,129.045614 118.620217,128.098947 C118.570397,127.849825 118.570397,127.550877 118.968953,127.550877 C119.068592,127.550877 119.118412,127.550877 119.218051,127.501053 C119.616606,127.451228 120.015162,127.351579 120.363899,127.301754 C120.363899,127.700351 120.413718,128.098947 120.413718,128.497544 C120.463538,128.846316 120.463538,129.244912 120.563177,129.593684 C120.862094,130.889123 121.161011,132.134737 121.459928,133.430175 C121.509747,133.629474 121.609386,133.778947 121.709025,133.978246 C121.459928,134.077895 121.21083,134.177544 120.961733,134.227368 Z M124.797834,133.529825 C124.299639,133.629474 123.801444,133.729123 123.303249,133.828772 C123.20361,133.828772 123.004332,133.729123 123.004332,133.679298 C122.954513,133.330526 122.904693,133.031579 122.904693,132.682807 L123.004332,132.682807 C122.705415,131.536842 122.406498,130.440702 122.157401,129.294737 C122.007942,128.647018 121.908303,127.949474 121.808664,127.25193 C121.808664,127.202105 121.958123,127.102456 122.057762,127.052632 C122.356679,127.002807 122.655596,126.952982 122.954513,126.853333 C123.303249,126.753684 123.552347,126.803509 123.602166,127.301754 C123.651986,127.650526 123.801444,127.999298 123.901083,128.34807 C123.901083,128.397895 123.950903,128.497544 123.950903,128.497544 C124.648375,128.547368 124.648375,128.995789 124.648375,129.494035 C124.648375,130.241404 124.698195,130.988772 124.748014,131.73614 C124.797834,132.234386 124.897473,132.732632 124.997112,133.230877 C124.997112,133.330526 124.897473,133.529825 124.797834,133.529825 Z M128.683755,132.334035 C128.633935,132.533333 128.285199,132.632982 128.036101,132.732632 C127.587726,132.93193 127.13935,133.031579 126.641155,133.181053 L126.641155,133.181053 C126.491697,132.533333 126.342238,131.935439 126.242599,131.337544 C126.043321,130.291228 125.445487,129.294737 125.495307,128.148772 C125.495307,127.8 125.395668,127.401404 125.246209,127.102456 C124.897473,126.504561 125.19639,126.404912 125.694585,126.305263 C126.441877,126.155789 127.18917,125.956491 128.13574,125.757193 C127.637545,126.355088 127.288809,126.70386 127.637545,127.401404 C127.836823,127.849825 127.687365,128.447719 127.787004,128.945965 C127.986282,129.792982 128.235379,130.590175 128.484477,131.437193 C128.584116,131.73614 128.783394,132.035088 128.683755,132.334035 Z M131.224549,132.234386 L130.626715,132.234386 C129.929242,132.234386 129.580505,131.73614 129.630325,131.038596 C129.630325,130.540351 129.530686,129.992281 129.381227,129.444211 C129.181949,128.547368 128.982671,127.600702 128.733574,126.70386 L128.733574,126.454737 C128.534296,125.607719 128.783394,125.358596 129.680144,125.408421 C129.979061,125.408421 130.427437,125.109474 130.527076,125.707368 C130.576895,126.006316 130.576895,126.305263 130.626715,126.604211 C130.776173,127.849825 130.975451,129.145263 131.12491,130.390877 C131.224549,130.938947 131.274368,131.487018 131.374007,132.035088 C131.423827,132.134737 131.324188,132.234386 131.224549,132.234386 Z M134.662094,131.18807 C134.06426,131.387368 133.516245,131.586667 132.918412,131.73614 C132.918412,131.73614 132.818773,131.636491 132.818773,131.586667 C132.719134,130.988772 132.719134,130.341053 132.619495,129.743158 C132.519856,129.294737 132.370397,128.846316 132.320578,128.34807 C132.220939,127.750175 132.1213,127.102456 132.021661,126.504561 C131.971841,126.255439 131.922022,126.006316 131.872202,125.757193 C131.822383,125.50807 131.722744,125.258947 131.722744,125.009825 C131.722744,124.96 131.872202,124.910175 131.971841,124.860351 C132.569675,124.710877 133.11769,124.611228 133.715523,124.511579 C133.815162,124.511579 134.01444,124.611228 134.01444,124.661053 C134.163899,126.05614 134.313357,127.501053 134.462816,128.89614 L134.363177,128.89614 C134.512635,129.54386 134.612274,130.191579 134.711913,130.839298 C134.711913,130.988772 134.711913,131.18807 134.662094,131.18807 Z" id="Shape"/>
                <path d="M126.690975,133.181053 C126.641155,133.181053 126.591336,133.181053 126.690975,133.181053 L126.690975,133.181053 Z" id="Shape"/>
                <path d="M9.01732852,123.814035 L9.01732852,123.814035 C8.96750903,123.86386 9.01732852,123.86386 9.01732852,123.913684 C9.06714801,123.86386 9.06714801,123.814035 9.01732852,123.814035 L9.01732852,123.814035 Z" id="Shape"/>
                <path d="M58.1891697,14.6484211 C56.2960289,14.0505263 54.5025271,13.3529825 52.7588448,12.3564912 C52.1111913,12.0077193 51.4635379,11.5592982 50.766065,11.36 C50.367509,11.2603509 50.1184116,11.0112281 49.7696751,10.9115789 C49.2714801,10.7122807 48.8231047,10.4133333 48.4245487,10.114386 C47.8267148,9.61614035 47.5277978,8.91859649 47.1292419,8.27087719 C46.9797834,8.02175439 46.7805054,7.77263158 46.6808664,7.52350877 C46.6310469,7.37403509 46.5812274,7.12491228 46.6310469,7.07508772 C46.8303249,6.9754386 47.0794224,6.82596491 47.2787004,6.87578947 C48.4245487,7.42385965 49.6202166,7.97192982 50.7162455,8.56982456 C51.6628159,9.06807018 52.6093863,9.71578947 53.5559567,10.1642105 C54.6021661,10.6624561 55.7978339,10.9614035 56.7444043,11.6091228 C57.9898917,12.4063158 58.8368231,11.6589474 59.833213,11.2603509 C61.1285199,10.7621053 62.4736462,10.3136842 63.8187726,9.86526316 C64.7155235,9.56631579 65.6620939,9.41684211 66.6086643,9.21754386 C68.2527076,8.91859649 69.8967509,8.66947368 71.5407942,8.37052632 C73.93213,7.97192982 76.3732852,7.52350877 78.7646209,7.2245614 C80.4086643,7.02526316 82.0527076,7.02526316 83.6967509,7.12491228 C84.8924188,7.17473684 86.0880866,7.47368421 87.233935,7.8722807 C88.2303249,8.22105263 89.0772563,8.81894737 89.7747292,9.61614035 C90.0238267,9.91508772 89.8743682,10.9115789 89.5754513,11.1607018 C88.8779783,11.8084211 88.2801444,12.5059649 87.532852,13.0540351 C86.9350181,13.5024561 86.1877256,13.7515789 85.4902527,14.1003509 C85.4404332,14.0505263 85.4404332,14.0505263 85.3906137,14.0007018 L85.3906137,14.1501754 C84.9920578,14.4491228 84.5935018,14.7978947 84.1949458,15.0470175 C82.999278,15.6947368 81.8036101,16.3424561 80.6079422,16.9901754 C79.5617329,17.5880702 78.5155235,18.1859649 77.4693141,18.8336842 C76.0245487,19.7803509 74.5797834,20.7270175 73.0851986,21.6736842 C71.9891697,22.3712281 70.8433213,23.0687719 69.7472924,23.8161404 C68.900361,24.4140351 68.1032491,25.0617544 67.2563177,25.6596491 C66.8079422,26.0084211 66.3097473,26.357193 65.8115523,26.6561404 C65.6122744,26.7557895 65.3631769,26.8554386 65.1638989,27.0049123 C64.765343,27.2042105 64.665704,27.0049123 64.7155235,26.3073684 L64.7155235,26.1578947 C64.665704,26.1578947 64.665704,26.2077193 64.6158845,26.2077193 C64.267148,26.1578947 64.1176895,25.6596491 64.366787,25.3607018 C65.4628159,24.2645614 66.6086643,23.1684211 67.7545126,22.1719298 C68.5018051,21.5242105 69.3487365,20.9761404 70.1458484,20.3782456 C70.2953069,20.2785965 70.1458484,19.9796491 69.8469314,19.7803509 C68.601444,19.1326316 67.3559567,18.4350877 66.1104693,17.7873684 C65.6122744,17.5382456 65.0642599,17.3887719 64.566065,17.1894737 C64.2173285,17.0898246 63.8685921,17.04 63.5198556,16.8407018 C62.9220217,16.5417544 62.4238267,16.2926316 61.7263538,16.242807 C61.3277978,16.242807 60.9292419,15.794386 60.4808664,15.6449123 C60.13213,15.4954386 59.7833935,15.4954386 59.434657,15.3459649 C58.9364621,15.1466667 58.4880866,14.9473684 58.0397112,14.7480702 C58.0397112,14.6982456 58.0895307,14.6982456 58.0895307,14.6484211 C58.2888087,14.5985965 58.2389892,14.6484211 58.1891697,14.6484211 Z M71.7898917,11.0610526 C71.7400722,11.0610526 71.6902527,11.0610526 71.5906137,11.0112281 C71.6404332,11.0610526 71.6902527,11.0610526 71.6902527,11.1108772 C71.4909747,11.2105263 71.2916968,11.3101754 71.0425993,11.36 C70.7935018,11.4098246 70.3451264,11.2105263 70.2454874,11.36 C69.7472924,11.9578947 69,11.7087719 68.4021661,11.9578947 C68.0036101,12.157193 67.5054152,12.0575439 67.0570397,12.2070175 C66.2599278,12.4561404 65.4628159,12.7550877 64.665704,13.0540351 C63.9184116,13.3031579 63.1711191,13.5024561 62.3241877,13.8014035 C62.8223827,13.9508772 63.1711191,14.1003509 63.5198556,14.2 C64.1176895,14.4491228 64.765343,14.6982456 65.3133574,14.9473684 C65.7617329,15.1466667 66.1104693,15.5452632 66.5588448,15.6449123 C67.3061372,15.794386 67.9039711,16.1929825 68.4519856,16.6414035 C69,17.04 69.5480144,17.4385965 70.1458484,17.837193 C70.6440433,18.1859649 71.1422383,18.4350877 71.5906137,18.8835088 C71.7898917,19.082807 71.8397112,19.1326316 72.0888087,18.9831579 C73.0353791,18.3354386 73.93213,17.7375439 74.9285199,17.1396491 C76.2238267,16.3424561 77.5689531,15.5452632 78.8642599,14.7480702 C79.9602888,14.1003509 81.1061372,13.5024561 82.2021661,12.9045614 C83.4974729,12.2070175 84.9422383,11.6589474 86.0880866,10.6624561 C86.1877256,10.562807 86.2375451,10.4631579 86.3371841,10.3635088 C86.1877256,10.3136842 85.9884477,10.2140351 85.8389892,10.2140351 C85.6397112,10.2140351 85.3906137,10.3635088 85.2909747,10.3136842 C84.8425993,10.0147368 84.3444043,10.0645614 83.8462094,10.0645614 C82.999278,10.0645614 82.1523466,10.114386 81.3552347,10.1642105 C80.8072202,10.2140351 80.1595668,9.96491228 79.6115523,10.3136842 C79.5617329,10.3635088 79.4122744,10.3136842 79.3126354,10.3136842 C79.0137184,10.3136842 78.6649819,10.2140351 78.366065,10.2638596 C77.9176895,10.3635088 77.5191336,10.562807 77.0707581,10.6126316 C76.4729242,10.7122807 75.8252708,10.7122807 75.2274368,10.8119298 C74.5299639,10.9115789 73.832491,11.36 73.0851986,10.8617544 C73.0851986,10.9115789 73.0353791,10.9614035 73.0353791,10.9614035 C72.9357401,11.3101754 72.2382671,11.36 71.7898917,11.0610526 Z" id="Shape"/>
                <path d="M81.2555957,122.269474 C82.5509025,122.12 83.8462094,122.020351 85.0916968,121.821053 C86.2873646,121.621754 87.4830325,121.223158 88.7285199,120.924211 C89.0772563,120.824561 89.4259928,120.824561 89.7747292,120.824561 C89.8743682,120.824561 90.0238267,120.974035 90.0238267,121.02386 C90.0238267,121.57193 90.5220217,121.821053 90.7212996,122.269474 C90.8707581,122.618246 90.6216606,123.016842 90.1732852,123.166316 C88.2801444,123.664561 86.3870036,124.162807 84.4938628,124.611228 C83.5971119,124.810526 82.700361,124.910175 81.8036101,125.059649 C81.7039711,125.059649 81.6043321,124.96 81.5545126,124.910175 C81.5046931,124.860351 81.4548736,124.810526 81.4050542,124.760702 C81.2555957,125.159298 80.9068592,124.96 80.6577617,124.96 C80.6079422,124.96 80.6079422,125.009825 80.6079422,125.059649 C79.7610108,125.109474 78.9638989,125.159298 78.166787,125.258947 C77.768231,125.308772 77.4194946,125.408421 77.0209386,125.458246 C76.6722022,125.50807 76.3732852,125.408421 76.0245487,125.458246 C75.7754513,125.50807 75.5263538,125.607719 75.2772563,125.657544 C75.0779783,125.707368 74.8288809,125.757193 74.6296029,125.807018 C73.633213,125.906667 72.6866426,126.05614 71.6902527,126.105965 C70.7436823,126.155789 69.7971119,126.155789 68.8505415,126.155789 C68.3523466,126.155789 67.9039711,126.155789 67.4057762,126.205614 C65.9111913,126.305263 64.4166065,126.504561 62.8722022,126.554386 C61.7761733,126.604211 60.6303249,126.504561 59.534296,126.454737 C58.4880866,126.404912 57.3920578,126.404912 56.3458484,126.305263 C55.299639,126.205614 54.2534296,126.006316 53.2072202,125.856842 C51.7624549,125.607719 50.3176895,125.458246 48.9227437,125.109474 C46.8801444,124.661053 44.8375451,124.063158 42.7949458,123.564912 C42.6953069,123.515088 42.5458484,123.515088 42.4462094,123.465263 C42.2469314,123.365614 42.0974729,123.21614 41.8981949,123.116491 C42.0476534,122.917193 42.1472924,122.618246 42.3465704,122.518596 C42.5956679,122.418947 42.9444043,122.369123 43.1935018,122.418947 C44.4389892,122.66807 45.634657,123.016842 46.8801444,123.166316 C48.0758123,123.365614 49.2714801,123.365614 50.5169675,123.465263 C51.5133574,123.564912 52.4599278,123.714386 53.4563177,123.714386 C55.2,123.764211 56.8938628,123.764211 58.6375451,123.764211 C59.4844765,123.764211 60.3314079,123.714386 61.2281588,123.664561 C62.3241877,123.614737 63.4202166,123.465263 64.5162455,123.415439 C66.0606498,123.365614 67.6548736,123.315789 69.199278,123.265965 C70.3949458,123.21614 71.5407942,123.016842 72.7364621,122.917193 C73.732852,122.817544 74.7292419,122.817544 75.7754513,122.767719 C76.4729242,122.717895 77.2202166,122.618246 77.9176895,122.568421 C79.0137184,122.468772 80.1595668,122.468772 81.2555957,122.369123 C81.2057762,122.319298 81.2555957,122.269474 81.2555957,122.269474 Z" id="Shape"/>
                <path d="M86.7357401,84.3031579 C86.3371841,84.2533333 86.1379061,84.8512281 85.6895307,84.6519298 C85.6895307,85.1003509 85.2411552,85.0007018 85.0418773,85.1003509 C84.0953069,85.4491228 83.198556,85.7480702 82.1523466,85.7978947 C81.3054152,85.7978947 80.5083032,86.0470175 79.7111913,86.1466667 C78.4158845,86.2961404 77.0707581,86.3957895 75.7754513,86.5452632 C75.2274368,86.5950877 74.6794224,86.7445614 74.1314079,86.7445614 C73.0353791,86.794386 71.9891697,86.794386 70.8931408,86.8442105 L69.2490975,86.8442105 L67.4555957,86.8442105 C66.9574007,86.8442105 66.4592058,86.8940351 65.9610108,86.8940351 C64.267148,86.8940351 62.5732852,86.9438596 60.8296029,86.9438596 C59.833213,86.9438596 58.8368231,86.8940351 57.8404332,86.8442105 C56.4953069,86.794386 55.1501805,86.6947368 53.8050542,86.5950877 C52.4599278,86.4954386 51.0649819,86.4954386 49.7198556,86.3459649 C49.2714801,86.2961404 48.7732852,86.0470175 48.3747292,85.7978947 C47.9263538,85.5487719 48.6736462,85.3494737 48.5241877,85.2498246 C48.2750903,85.1003509 47.9263538,85.0007018 48.3249097,84.7515789 C48.6238267,84.5522807 49.0223827,84.5024561 49.3711191,84.4526316 C51.1148014,84.3031579 52.8584838,84.2035088 54.6021661,84.1038596 C55.9971119,84.0540351 57.4418773,84.1038596 58.8368231,84.1038596 C60.231769,84.1038596 61.6765343,84.0540351 63.0714801,84.0540351 C64.2173285,84.0540351 65.3133574,84.1038596 66.4592058,84.1038596 L69.1494585,84.1038596 C70.3451264,84.1038596 71.5407942,84.0540351 72.6866426,84.0042105 C74.031769,83.954386 75.3768953,83.8049123 76.7718412,83.7052632 C78.1169675,83.605614 79.4620939,83.5059649 80.8570397,83.4063158 C81.3054152,83.3564912 81.7039711,83.2568421 82.1523466,83.3066667 C83.1487365,83.3564912 84.1451264,83.5059649 85.1415162,83.605614 C85.1913357,83.605614 85.2411552,83.7550877 85.2909747,83.8049123 C85.4902527,84.3031579 85.7891697,84.402807 86.7357401,84.3031579 Z" id="Shape"/>
                <path d="M87.8815884,87.3424561 C87.9812274,87.8905263 88.0808664,88.3887719 88.1306859,88.9368421 C88.2801444,90.0329825 88.3797834,91.0792982 88.5790614,92.1754386 C88.8281588,93.6701754 89.1270758,95.2147368 89.4758123,96.7094737 C89.8743682,98.6526316 90.2231047,100.595789 90.6714801,102.538947 C91.1696751,104.482105 91.7176895,106.425263 92.3155235,108.368421 C92.8137184,110.012632 93.4613718,111.607018 94.0093863,113.201404 C94.5075812,114.745965 95.0555957,116.240702 95.4541516,117.785263 C95.5537906,118.18386 95.3545126,118.632281 95.3046931,119.030877 C95.1054152,118.981053 94.9061372,118.981053 94.6570397,118.931228 C94.5075812,118.931228 94.4079422,118.831579 94.2584838,118.831579 C93.7104693,118.881404 93.4613718,118.432982 93.2122744,118.084211 C92.5148014,116.938246 91.8173285,115.742456 91.2194946,114.496842 C90.6216606,113.301053 90.0736462,112.055439 89.6750903,110.76 C89.2267148,109.464561 88.9277978,108.119298 88.5292419,106.774035 C88.2303249,105.677895 87.9314079,104.631579 87.632491,103.535439 C87.3833935,102.489123 87.1841155,101.392982 86.9350181,100.296842 C86.6859206,98.9515789 86.4866426,97.5564912 86.1877256,96.2610526 C85.7891697,94.4673684 85.6397112,92.6238596 85.5898917,90.7803509 C85.5898917,89.7838596 85.4902527,88.837193 85.4902527,87.8407018 C85.4902527,87.3922807 85.4902527,86.8442105 86.2375451,87.0435088 C86.3371841,87.0435088 86.5364621,86.9936842 86.5364621,86.9438596 C86.6361011,86.445614 87.134296,86.6947368 87.3833935,86.4954386 C87.532852,86.7445614 87.6823105,86.9936842 87.7819495,87.242807 C87.9314079,87.3424561 87.9314079,87.3424561 87.8815884,87.3424561 Z M95.2548736,118.632281 C95.2548736,118.682105 95.2548736,118.682105 95.2548736,118.632281 C95.2548736,118.682105 95.3046931,118.682105 95.3046931,118.682105 C95.3046931,118.682105 95.3046931,118.632281 95.2548736,118.632281 L95.2548736,118.632281 Z" id="Shape"/>
                <path d="M47.6772563,88.0898246 C47.5776173,90.1824561 47.5277978,92.1754386 47.3783394,94.1185965 C47.2288809,95.6631579 46.9299639,97.2077193 46.6808664,98.7024561 C46.5314079,99.6491228 46.3819495,100.645614 46.1826715,101.592281 C45.8837545,102.937544 45.5848375,104.332632 45.2361011,105.677895 C44.8375451,107.222456 44.4389892,108.767018 44.0404332,110.261754 C43.3927798,112.50386 42.6454874,114.745965 41.9978339,116.98807 C41.7487365,117.735439 41.599278,118.532632 41.300361,119.230175 C41.0512635,119.778246 40.7025271,120.276491 40.3537906,120.824561 C40.3039711,120.874386 40.2043321,120.874386 40.1046931,120.874386 C38.8093863,120.625263 38.2613718,119.678596 38.6599278,118.383158 C39.3075812,116.290526 39.9552347,114.197895 40.6028881,112.105263 C41.101083,110.510877 41.5494585,108.866667 41.9480144,107.222456 C42.3465704,105.727719 42.5956679,104.232982 42.9942238,102.738246 C43.2433213,101.791579 43.6418773,100.894737 43.9407942,99.9480702 C44.1898917,99.0512281 44.3891697,98.154386 44.6382671,97.3073684 C44.9870036,96.0617544 45.2859206,94.8659649 45.5350181,93.6203509 C45.734296,92.6238596 45.833935,91.5775439 45.9833935,90.5810526 C46.132852,89.634386 46.232491,88.6378947 46.33213,87.6912281 C46.3819495,87.4421053 46.33213,87.1431579 46.3819495,86.8940351 C46.431769,86.7445614 46.5314079,86.4954386 46.5812274,86.4954386 C46.7805054,86.4954386 47.0296029,86.5950877 47.1292419,86.7445614 C47.3285199,87.1929825 47.4779783,87.6912281 47.6772563,88.0898246 Z" id="Shape"/>
                <path d="M17.9350181,119.628772 C17.7357401,119.678596 17.5364621,119.778246 17.4866426,119.728421 C16.8888087,119.329825 16.2411552,118.931228 15.6931408,118.482807 C15.3444043,118.18386 14.9956679,117.884912 14.7465704,117.486316 C14.4974729,117.037895 13.899639,116.838596 13.8498195,116.240702 C13.8498195,116.091228 13.5509025,115.941754 13.4512635,115.792281 C13.0028881,115.144561 12.5545126,114.546667 12.1559567,113.849123 C11.3588448,112.50386 10.6115523,111.108772 9.91407942,109.713684 C9.61516245,109.115789 9.51552347,108.418246 9.41588448,107.770526 C9.36606498,107.571228 9.56534296,107.272281 9.71480144,107.072982 C9.76462094,107.023158 10.0635379,107.122807 10.2129964,107.222456 C10.9602888,107.670877 11.5083032,108.268772 11.7574007,109.215439 C11.9566787,110.012632 12.5046931,110.76 12.9530686,111.457544 C13.700361,112.802807 14.4476534,114.098246 15.2447653,115.393684 C15.9920578,116.539649 16.7891697,117.635789 17.5862816,118.781754 C17.6859206,118.981053 17.7855596,119.28 17.9350181,119.628772 Z" id="Shape"/>
                <path d="M83.4476534,111.258246 C83.4476534,111.407719 83.4476534,111.507368 83.3978339,111.607018 C83.0490975,112.105263 82.700361,112.653333 82.3018051,113.101754 C81.8534296,113.550175 81.3054152,113.898947 80.8570397,114.347368 C80.6079422,114.546667 80.5083032,114.845614 80.2592058,115.044912 C79.6613718,115.493333 79.0635379,115.941754 78.5155235,116.390175 C78.366065,116.539649 78.3162455,116.838596 78.1169675,116.938246 C77.5689531,117.386667 77.0209386,118.084211 76.3234657,118.233684 C75.4765343,118.383158 75.0779783,118.981053 74.4303249,119.329825 C73.9819495,119.578947 73.4837545,119.728421 73.0353791,119.927719 C72.9855596,119.927719 72.8361011,119.877895 72.7862816,119.877895 C72.6866426,119.529123 72.4375451,119.130526 72.8361011,118.781754 C74.5797834,117.436491 76.3234657,116.041404 78.067148,114.69614 C78.7646209,114.14807 79.3624549,113.500351 79.9602888,112.902456 C80.6577617,112.155088 81.3054152,111.407719 82.0028881,110.660351 C82.1523466,110.510877 82.501083,109.912982 82.8498195,110.560702 C82.8498195,110.610526 82.999278,110.510877 83.098917,110.510877 C83.5472924,110.411228 83.6469314,110.76 83.7465704,111.009123 C83.7963899,111.009123 83.5472924,111.208421 83.4476534,111.258246 Z" id="Shape"/>
                <path d="M111.794946,76.7796491 C111.645487,77.3775439 111.496029,77.9754386 111.39639,78.5733333 C111.197112,79.5698246 111.197112,80.6161404 110.798556,81.5129825 C110.499639,82.2105263 110.698917,82.9080702 110.4,83.605614 C110.150903,84.2035088 110.001444,84.8512281 109.901805,85.4989474 C109.851986,85.6982456 110.001444,85.997193 109.901805,86.1466667 C109.702527,86.4954386 109.702527,86.8442105 109.652708,87.1929825 C109.553069,87.6414035 109.40361,88.0898246 109.254152,88.5382456 C109.054874,89.0364912 108.805776,89.5347368 108.556679,90.0329825 C108.506859,90.1326316 108.207942,90.1824561 108.158123,90.1326316 C107.958845,89.9831579 107.759567,89.7340351 107.759567,89.5347368 C107.809386,88.3389474 107.958845,87.1929825 108.307581,86.0470175 C108.706137,84.8014035 108.905415,83.5059649 109.204332,82.2603509 C109.40361,81.3635088 109.602888,80.4168421 109.851986,79.52 C110.200722,78.1747368 110.549458,76.8294737 110.997834,75.4842105 C111.147292,74.9859649 111.545848,74.5873684 111.994224,74.1389474 L111.994224,75.9824561 L111.994224,76.7796491 C111.844765,76.7298246 111.844765,76.7298246 111.794946,76.7796491 Z" id="Shape"/>
                <path d="M23.166065,63.277193 C22.8173285,63.4764912 23.265704,64.0245614 22.7176895,64.3235088 C22.1198556,64.6722807 21.8707581,64.2736842 21.6714801,63.9249123 C21.3227437,63.277193 21.0736462,62.5298246 20.8245487,61.8322807 C20.4758123,60.7361404 20.1768953,59.64 19.8779783,58.5936842 C19.7285199,58.1452632 19.5790614,57.7466667 20.3263538,57.8463158 C20.3761733,57.8463158 20.4259928,57.7964912 20.4758123,57.7466667 C20.7747292,57.2982456 21.1732852,57.4477193 21.3227437,57.7466667 C21.6216606,58.2947368 21.8707581,58.9424561 22.0700361,59.5901754 C22.3689531,60.437193 22.66787,61.3340351 22.966787,62.1810526 C23.0166065,62.5298246 23.066426,62.8785965 23.166065,63.277193 Z" id="Shape"/>
                <path d="M74.2310469,113.201404 C74.5299639,113.301053 74.9285199,113.301053 75.0281588,113.500351 C75.1776173,113.749474 74.9783394,114.098246 74.6296029,114.197895 C74.5299639,114.247719 74.5299639,114.397193 74.4303249,114.447018 C74.031769,114.795789 73.6830325,115.294035 73.234657,115.493333 C72.8361011,115.692632 72.4375451,115.941754 72.2382671,116.240702 C71.9393502,116.689123 71.4411552,116.639298 71.1422383,116.888421 C70.7436823,117.237193 70.3949458,117.635789 69.9465704,117.984561 C69.5978339,118.233684 69.2490975,118.432982 68.800722,118.682105 C69,118.134035 69.099639,117.53614 69.398556,117.187368 C70.1458484,116.290526 70.9429603,115.34386 71.8895307,114.596491 C72.4873646,114.14807 72.7862816,113.400702 73.4837545,113.05193 C73.6830325,112.952281 73.8823105,112.752982 74.0815884,112.752982 C74.5299639,112.703158 74.1812274,112.952281 74.1812274,113.101754 L74.0815884,113.201404 C74.0815884,113.201404 74.1314079,113.201404 74.2310469,113.201404 Z" id="Shape"/>
                <path d="M114.734296,88.4385965 C114.933574,87.5915789 115.132852,86.8442105 115.33213,86.0968421 C115.381949,85.8975439 115.431769,85.6484211 115.531408,85.4491228 C115.880144,84.8512281 116.228881,84.2533333 116.577617,83.7052632 C116.627437,83.6554386 116.776895,83.605614 116.826715,83.6554386 C116.926354,83.7550877 117.075812,83.9045614 117.075812,84.0042105 C117.125632,84.7017544 117.125632,85.4491228 117.075812,86.1466667 C117.075812,86.2961404 116.926354,86.445614 116.876534,86.6449123 C116.826715,86.8442105 116.826715,87.0435088 116.727076,87.242807 C116.577617,87.6414035 116.378339,88.0898246 116.179061,88.4884211 C116.079422,88.6378947 115.929964,88.7375439 115.780505,88.837193 C115.581227,88.9866667 115.33213,89.0863158 115.132852,89.1859649 C114.933574,88.8870175 114.833935,88.6378947 114.734296,88.4385965 Z" id="Shape"/>
                <path d="M17.6361011,112.005614 C18.0844765,112.354386 18.5826715,112.553684 18.831769,112.902456 C19.6288809,113.948772 20.3263538,115.044912 21.0736462,116.141053 C21.1732852,116.290526 21.0736462,116.589474 21.0238267,116.838596 C20.8245487,116.788772 20.5754513,116.788772 20.4259928,116.689123 C20.0274368,116.44 19.5292419,116.190877 19.2801444,115.842105 C18.5826715,114.795789 17.9350181,113.649825 17.3371841,112.553684 C17.2873646,112.454035 17.5364621,112.204912 17.6361011,112.005614 Z" id="Shape"/>
                <path d="M111.645487,86.3957895 C111.944404,85.4491228 112.243321,84.5024561 112.542238,83.5557895 C112.641877,83.2568421 112.691697,82.9080702 112.791336,82.6091228 C113.040433,82.0610526 113.33935,81.562807 113.588448,81.0645614 C113.588448,81.0147368 113.787726,81.0147368 113.837545,81.0147368 C113.937184,81.2140351 114.136462,81.4631579 114.086643,81.6624561 C114.036823,82.0610526 113.887365,82.4596491 113.787726,82.8084211 C113.488809,83.954386 113.189892,85.1003509 112.890975,86.2463158 C112.791336,86.5452632 112.592058,86.794386 112.39278,87.0435088 C112.34296,87.0933333 112.044043,87.1431579 112.044043,87.0933333 C111.844765,86.9438596 111.794946,86.6947368 111.645487,86.3957895 Z" id="Shape"/>
                <path d="M20.7747292,64.2238596 C20.6750903,64.4231579 20.5754513,64.6224561 20.4758123,64.7719298 C20.3263538,64.6224561 20.1768953,64.522807 20.0274368,64.3733333 C19.9277978,64.3235088 19.8281588,64.2238596 19.7783394,64.2238596 C19.3299639,64.3733333 19.1306859,64.1242105 18.9812274,63.7754386 C18.7819495,63.2273684 18.4830325,62.6294737 18.333574,62.0814035 C18.2837545,61.8322807 18.433213,61.3340351 18.532852,61.3340351 C18.8815884,61.2842105 19.3299639,61.3340351 19.6288809,61.4835088 C19.8281588,61.5831579 19.9776173,61.8821053 20.0274368,62.1312281 C20.3263538,62.7789474 20.5256318,63.4764912 20.7747292,64.2238596 Z" id="Shape"/>
                <path d="M20.9740072,109.763509 C21.4722022,110.112281 21.9703971,110.361404 22.3689531,110.76 C22.66787,111.058947 22.867148,111.457544 23.066426,111.806316 C23.1162455,111.905965 23.066426,112.105263 22.966787,112.204912 C22.9169675,112.254737 22.7176895,112.304561 22.568231,112.254737 C22.1198556,112.055439 21.6714801,111.905965 21.2231047,111.656842 C21.0736462,111.607018 21.0238267,111.407719 20.9241877,111.258246 C20.8245487,111.058947 20.7249097,110.809825 20.6750903,110.560702 C20.6252708,110.361404 20.5754513,110.162105 20.5754513,110.012632 C20.6750903,109.962807 20.8743682,109.863158 20.9740072,109.763509 Z" id="Shape"/>
                <path d="M23.1162455,64.4729825 L23.0166065,64.5726316 L23.066426,64.6224561 C23.066426,64.5726316 23.066426,64.522807 23.1162455,64.4729825 L23.1162455,64.4729825 Z" id="Shape"/>
                <path d="M102.777617,41.6533333 C102.827437,41.6533333 102.877256,41.6035088 102.927076,41.6035088 C102.877256,41.6533333 102.877256,41.7031579 102.827437,41.7529825 C102.827437,41.7031579 102.777617,41.6533333 102.777617,41.6533333 Z" id="Shape"/>
                <path d="M55.5487365,3.08912281 C55.5487365,3.13894737 55.498917,3.13894737 55.498917,3.18877193 C55.5487365,3.13894737 55.5487365,3.08912281 55.5487365,3.08912281 L55.5487365,3.08912281 Z" id="Shape"/>
                <path d="M80.6079422,124.96 C80.6079422,125.009825 80.6577617,125.009825 80.6577617,125.059649 L80.5083032,125.059649 C80.5581227,125.009825 80.6079422,124.96 80.6079422,124.96 Z" id="Shape"/>
                <path d="M81.2057762,122.319298 C81.2057762,122.269474 81.1559567,122.269474 81.1559567,122.219649 L81.3054152,122.219649 C81.2555957,122.269474 81.2057762,122.319298 81.2057762,122.319298 Z" id="Shape"/>
                <polygon id="Shape" points="85.5400722 83.5557895 85.5898917 83.5059649 85.5898917 83.5557895"/>
                <path d="M111.894585,76.7298246 L111.894585,76.8792982 C111.844765,76.8294737 111.844765,76.8294737 111.794946,76.7796491 C111.844765,76.7298246 111.844765,76.7298246 111.894585,76.7298246 Z" id="Shape"/>
                <polygon id="Shape" points="23.1162455 64.4729825 23.1162455 64.4231579"/>
                <path d="M88.4794224,22.9691228 C88.4296029,22.9192982 88.4296029,22.9192982 88.3797834,22.8694737 C88.4296029,22.8694737 88.4794224,22.9192982 88.5292419,22.9192982 C88.5292419,22.9192982 88.5292419,22.9691228 88.4794224,22.9691228 Z" id="Shape"/>
                <path d="M83.198556,133.280702 C83.2483755,133.280702 83.2981949,133.280702 83.2981949,133.230877 L83.2981949,133.280702 C83.2981949,133.330526 83.2483755,133.280702 83.198556,133.280702 L83.198556,133.280702 Z" id="Shape"/>
            </g>
        </g>
    </g>
</svg>