<?xml version="1.0" encoding="UTF-8" standalone="no"?>
<svg width="115px" height="139px" viewBox="0 0 115 139" version="1.1" xmlns="http://www.w3.org/2000/svg" xmlns:xlink="http://www.w3.org/1999/xlink">
    <!-- Generator: Sketch 43.2 (39069) - http://www.bohemiancoding.com/sketch -->
    <title>women tee</title>
    <desc>Created with Sketch.</desc>
    <defs/>
    <g id="Illustrations" stroke="none" stroke-width="1" fill="none" fill-rule="evenodd">
        <g id="Illustrations-Product-Preview-Apparel---Detailed" transform="translate(-539.000000, -112.000000)" fill-rule="nonzero" fill="#423750">
            <g id="women-tee" transform="translate(539.000000, 112.000000)">
                <path d="M114.531674,41.9602996 C114.479638,42.0123596 114.427602,42.0123596 114.427602,42.0644195 C114.479638,43.3659176 113.386878,43.5741573 112.554299,44.0426966 C111.253394,44.7715356 109.900452,45.5003745 108.495475,46.1250936 C107.246606,46.6977528 106.049774,47.4265918 104.644796,47.6348315 C104.176471,47.6868914 103.760181,47.9992509 103.343891,48.2074906 C102.927602,48.4157303 102.511312,48.62397 102.095023,48.7801498 C101.31448,49.0925094 100.533937,49.4048689 99.7013575,49.6651685 C99.0248869,49.8734082 98.3484163,49.8734082 97.6719457,50.029588 C96.6832579,50.2898876 95.6945701,50.6543071 94.7058824,51.0707865 C93.6131222,51.5393258 92.4162896,51.7996255 91.2714932,52.1640449 C90.5429864,52.3722846 90.1266968,52.8928839 90.0226244,53.6217228 C89.7624434,55.6520599 89.5022624,57.7344569 89.2941176,59.764794 C89.0859729,61.5868914 88.9819005,63.3569288 88.7737557,65.1790262 C88.5656109,67.0011236 88.2533937,68.8752809 88.0452489,70.6973783 C87.9932127,71.2700375 87.9411765,71.7906367 87.9411765,72.3632959 C87.9411765,75.0183521 87.9932127,77.6213483 87.8891403,80.2764045 C87.8371041,81.6820225 88.0452489,83.0876404 88.2533937,84.4411985 C88.5135747,86.1071161 88.5135747,87.8771536 89.2420814,89.4910112 C89.5542986,90.2198502 89.8144796,91.0007491 90.0746606,91.729588 C90.2307692,92.0940075 90.3348416,92.5104869 90.4909502,92.8749064 C90.8031674,93.6558052 91.1153846,94.488764 91.479638,95.2696629 C91.9479638,96.3108614 92,97.4561798 91.9479638,98.5494382 C91.8438914,100.527715 91.739819,102.505993 91.6877828,104.53633 C91.6877828,105.108989 92.1040724,105.473408 92.4683258,105.837828 C93.1447964,106.514607 93.8733032,107.139326 94.5497738,107.816105 C95.1221719,108.388764 95.2262443,109.169663 95.3303167,110.002622 C95.4864253,111.4603 95.7986425,112.917978 96.0067873,114.375655 C96.1108597,115.052434 96.2149321,115.729213 96.3190045,116.405993 C96.3710407,116.666292 96.4751131,116.874532 96.5271493,117.134831 C96.8393665,118.22809 97.0995475,119.321348 97.4117647,120.414607 C97.6199095,121.247566 97.8800905,122.080524 98.1402715,122.913483 C98.4524887,123.954682 98.7647059,124.94382 99.0248869,125.985019 C99.0248869,126.089139 98.9728507,126.245318 98.8687783,126.297378 C98.5045249,126.557678 98.1402715,126.870037 97.7239819,127.078277 C96.7352941,127.598876 95.6945701,128.067416 94.7058824,128.588015 C93.561086,129.212734 92.4683258,129.889513 91.2714932,130.462172 C89.8144796,131.191011 88.3054299,131.81573 86.8484163,132.440449 C85.9638009,132.856929 85.0271493,133.273408 84.0904977,133.585768 C82.9977376,133.898127 81.9570136,134.574906 80.7081448,134.418727 C80.6561086,134.418727 80.6040724,134.470787 80.5520362,134.522846 C80.2918552,134.679026 80.0837104,134.991386 79.8235294,135.043446 C78.4705882,135.147566 77.3257919,135.824345 76.0769231,136.188764 C74.6199095,136.605243 73.1108597,136.917603 71.60181,137.229963 C70.6651584,137.438202 69.6764706,137.594382 68.739819,137.750562 C67.9072398,137.854682 67.0746606,137.958801 66.1900452,138.062921 C65.2013575,138.167041 64.2126697,138.271161 63.1719457,138.375281 C61.5067873,138.531461 59.7895928,138.635581 58.1244344,138.7397 C57.239819,138.79176 56.3552036,138.89588 55.418552,138.89588 C54.2737557,138.94794 53.1809955,138.94794 52.0361991,138.89588 C50.4751131,138.79176 48.9140271,138.68764 47.3529412,138.479401 C46.0520362,138.323221 44.7511312,138.010861 43.39819,137.750562 C42.6696833,137.594382 41.8891403,137.490262 41.1606335,137.334082 C39.8076923,137.021723 38.4547511,136.657303 37.1538462,136.344944 C36.0090498,136.032584 34.9162896,135.720225 33.7714932,135.407865 C33.0950226,135.199625 32.418552,134.887266 31.6900452,134.679026 C30.7533937,134.366667 29.8167421,134.106367 28.9321267,133.794007 C27.5791855,133.325468 26.2782805,132.908989 24.9253394,132.440449 C23.9366516,132.07603 23,131.71161 22.0633484,131.295131 C20.918552,130.826592 19.7217195,130.462172 18.5769231,129.889513 C18.0045249,129.629213 17.5361991,129.108614 16.9638009,128.692135 C16.8076923,128.588015 16.6515837,128.431835 16.4954751,128.379775 C15.7149321,128.223596 15.8710407,127.546816 15.7669683,126.974157 C15.7669683,126.974157 15.7669683,126.922097 15.8190045,126.922097 C15.4547511,126.817978 15.6108597,126.505618 15.5588235,126.245318 C15.4027149,125.30824 15.0384615,124.371161 15.0384615,123.382022 C14.9864253,122.132584 15.1425339,120.883146 15.2986425,119.633708 C15.5067873,118.28015 15.7669683,116.874532 16.1312217,115.520974 C16.4434389,114.323596 16.9117647,113.230337 17.2239819,112.032959 C17.6402715,110.523221 17.9524887,109.013483 18.3687783,107.555805 C18.6289593,106.566667 19.0452489,105.577528 19.3574661,104.58839 C20.138009,102.037453 20.8665158,99.4865169 21.5950226,96.9876404 C22.3235294,94.488764 23.1040724,92.0419476 23.6764706,89.5430712 C24.1968326,87.2524345 24.4570136,84.9097378 24.8733032,82.6191011 C25.1334842,81.1614232 25.4977376,79.7037453 25.7579186,78.1940075 C25.9660633,77.1007491 26.0701357,76.0074906 26.2262443,74.9142322 C26.3823529,73.4044944 26.5904977,71.8426966 26.6945701,70.3329588 C26.7466063,69.5520599 26.6945701,68.771161 26.5904977,67.9902622 C26.3303167,66.5325843 26.0180995,65.0749064 25.7579186,63.6172285 C25.5497738,62.4719101 25.341629,61.2745318 25.1334842,60.1292135 C24.9253394,59.088015 24.6651584,58.0468165 24.4049774,57.005618 C24.040724,55.5479401 23.6244344,54.0382022 23.260181,52.5805243 C23.260181,52.5284644 23.2081448,52.4243446 23.1561086,52.4243446 C22.5316742,52.3202247 21.9072398,52.3202247 21.3348416,52.0599251 C20.4502262,51.6434457 19.5135747,51.5393258 18.6289593,51.3310861 C17.9524887,51.1749064 17.3280543,50.9666667 16.6515837,50.758427 C15.9751131,50.5501873 15.2986425,50.3419476 14.6221719,50.0816479 C13.3733032,49.6651685 12.1764706,49.1966292 10.9276018,48.7801498 C9.93891403,48.4677903 8.89819005,48.2074906 7.96153846,47.7910112 C6.86877828,47.3224719 5.8800905,46.6977528 4.83936652,46.1250936 C3.79864253,45.5524345 2.65384615,45.0318352 1.71719457,44.2509363 C1.04072398,43.7303371 0.416289593,42.9494382 0.156108597,42.1164794 C-1.41539558e-13,41.5958801 0.468325792,40.8670412 0.676470588,40.2423221 C1.04072398,39.3052434 1.61312217,38.4202247 1.71719457,37.4831461 C1.82126697,36.5981273 2.28959276,35.9213483 2.60180995,35.1404494 C3.59049774,32.5895131 4.68325792,30.0906367 5.6719457,27.5397004 C6.19230769,26.2382022 6.76470588,24.8846442 7.18099548,23.5310861 C7.80542986,21.5007491 8.27375566,19.4183521 8.89819005,17.388015 C9.26244344,16.2947566 9.78280543,15.305618 10.3031674,14.3164794 C11.1877828,12.7026217 12.3325792,11.2449438 13.7895928,10.0996255 C14.6742081,9.42284644 15.6628959,8.79812734 16.6515837,8.27752809 C18.3687783,7.39250936 20.0859729,6.61161049 21.8552036,5.77865169 C22.1674208,5.62247191 22.5316742,5.57041199 22.8438914,5.51835206 C24.1447964,5.15393258 25.4977376,4.73745318 26.7986425,4.32097378 C27.4751131,4.11273408 28.1515837,3.90449438 28.8280543,3.69625468 C29.9728507,3.33183521 31.0135747,2.81123596 32.1063348,2.39475655 C33.3031674,1.92621723 34.5520362,1.71797753 35.800905,1.35355805 C36.6855204,1.09325843 37.5701357,0.780898876 38.5067873,0.572659176 C40.2239819,0.260299625 41.9932127,-0.10411985 43.7624434,0.2082397 C44.8552036,0.416479401 46,0.416479401 47.0927602,0.624719101 C48.7579186,0.885018727 50.3710407,1.30149813 52.0361991,1.56179775 C54.2217195,1.97827715 56.459276,2.34269663 58.6968326,2.18651685 C59.8936652,2.13445693 61.0384615,2.18651685 62.2352941,2.13445693 C63.4321267,2.082397 64.6289593,2.082397 65.8257919,1.92621723 C67.4909502,1.6659176 69.1561086,1.14531835 70.821267,0.989138577 C72.4864253,0.780898876 74.2036199,0.520599251 75.9208145,0.989138577 C76.0248869,0.989138577 76.1289593,1.09325843 76.1809955,1.09325843 C76.8574661,0.728838951 77.2737557,1.19737828 77.7941176,1.50973783 C78.0022624,1.61385768 78.2104072,1.6659176 78.418552,1.71797753 C79.7714932,2.082397 81.1764706,2.44681648 82.581448,2.81123596 C82.9457014,2.91535581 83.361991,2.96741573 83.7782805,3.01947566 C84.2466063,3.12359551 84.7149321,3.22771536 85.1312217,3.38389513 C85.8597285,3.59213483 86.6402715,3.80037453 87.3687783,4.11273408 C87.7850679,4.26891386 88.2013575,4.58127341 88.6176471,4.73745318 C88.9819005,4.89363296 89.3461538,4.94569288 89.7104072,4.99775281 C90.6470588,5.20599251 91.5316742,5.36217228 92.4683258,5.62247191 C92.8325792,5.72659176 93.1968326,5.88277154 93.561086,6.03895131 C94.2895928,6.29925094 95.0701357,6.45543071 95.8506787,6.71573034 C96.5791855,6.97602996 97.2556561,7.28838951 97.9321267,7.65280899 C98.3484163,7.86104869 98.7126697,8.32958801 99.1809955,8.48576779 C100.4819,8.95430712 101.522624,9.78726592 102.511312,10.7243446 C103.08371,11.2970037 103.5,12.0258427 104.020362,12.6505618 C104.748869,13.4835206 105.00905,14.5247191 105.373303,15.5138577 C106.414027,18.4292135 107.350679,21.3966292 108.079186,24.4161049 C108.495475,25.9779026 109.067873,27.4876404 109.588235,29.0494382 C110.108597,30.7153558 110.628959,32.3812734 111.201357,33.9951311 C111.513575,34.9322097 111.929864,35.8692884 112.294118,36.858427 C112.762443,38.0037453 113.230769,39.1490637 113.699095,40.3464419 C113.90724,40.8149813 114.115385,41.2835206 114.323529,41.7520599 C114.531674,41.7520599 114.531674,41.8561798 114.531674,41.9602996 Z M78.9909502,7.49662921 C78.938914,7.44456929 78.8348416,7.34044944 78.7828054,7.23632959 C78.6266968,7.44456929 78.4705882,7.60074906 78.3665158,7.80898876 C78.2104072,8.06928839 78.158371,8.43370787 77.89819,8.58988764 C77.5339367,8.79812734 77.2737557,9.16254682 76.9615385,9.37078652 C75.9208145,10.1516854 74.8800905,10.9325843 73.7873303,11.6614232 C73.0067873,12.1820225 72.2262443,12.7546816 71.3936652,13.0149813 C69.4162896,13.6917603 67.3868778,14.1602996 65.4095023,14.8370787 C63.5882353,15.4617978 61.7149321,15.5659176 59.841629,15.6179775 C58.0723982,15.6700375 56.2511312,15.5138577 54.4819005,15.4097378 C53.3891403,15.3576779 52.2963801,15.3576779 51.2036199,15.2535581 C50.5791855,15.2014981 49.9547511,14.9932584 49.3823529,14.628839 C48.60181,14.1602996 47.6651584,14.0041199 46.8325792,13.6397004 C45.739819,13.171161 44.7511312,12.5985019 43.658371,12.0258427 C42.4615385,11.4011236 41.2647059,10.8284644 40.1199095,10.0996255 C39.1832579,9.47490637 38.2986425,8.69400749 37.5180995,7.91310861 C36.7895928,7.18426966 36.2171946,6.35131086 35.5927602,5.57041199 C35.4366516,5.41423221 35.3846154,5.20599251 35.2285068,5.04981273 C35.020362,4.84157303 34.760181,4.63333333 34.5,4.47715356 C34.3959276,4.37303371 34.239819,4.16479401 34.1877828,4.21685393 C33.5633484,4.32097378 32.938914,4.47715356 32.3665158,4.68539326 C31.8461538,4.84157303 31.3778281,5.15393258 30.8574661,5.31011236 C29.4524887,5.83071161 27.9954751,6.29925094 26.5384615,6.76779026 C24.2488688,7.49662921 21.9072398,8.17340824 19.6176471,8.90224719 C19.3054299,9.00636704 18.9411765,9.11048689 18.7850679,9.52696629 C18.7330317,9.63108614 18.5769231,9.73520599 18.4728507,9.83932584 C16.8076923,10.6202247 15.6108597,11.9217228 14.3099548,13.171161 C14.0497738,13.4314607 13.7375566,13.6917603 13.581448,14.0041199 C13.0090498,15.2014981 12.020362,16.1385768 11.6561086,17.4921348 C11.3438914,18.6374532 10.719457,19.7307116 10.3552036,20.87603 C9.99095023,22.0734082 9.73076923,23.2707865 9.36651584,24.4681648 C9.05429864,25.4052434 8.53393665,26.2382022 8.32579186,27.1752809 C8.11764706,28.1123596 7.54524887,28.7891386 7.28506787,29.6741573 C6.81674208,31.2359551 6.08823529,32.693633 5.41176471,34.2033708 C4.73529412,35.8692884 4.00678733,37.5872659 3.33031674,39.2531835 C3.27828054,39.3573034 3.33031674,39.6696629 3.43438914,39.7217228 C4.11085973,40.0861423 4.78733032,40.4505618 5.5158371,40.7108614 C6.29638009,41.023221 7.12895928,41.2835206 7.96153846,41.5438202 C8.37782805,41.7 8.84615385,41.8561798 9.26244344,42.0644195 C10.5633484,42.5850187 11.8122172,43.105618 13.1131222,43.5741573 C14.10181,43.9385768 15.1945701,43.8865169 16.0271493,44.5632959 C16.1832579,44.6674157 16.4434389,44.7194757 16.7036199,44.7194757 C17.8484163,44.7194757 18.9411765,45.0838951 20.0339367,45.4483146 C20.8144796,45.7086142 21.5950226,45.9168539 22.3755656,46.1250936 C22.479638,46.1771536 22.7918552,46.0209738 22.7918552,45.9689139 C22.8438914,45.5003745 22.8438914,45.0318352 22.8438914,44.5632959 L22.8438914,40.1902622 C22.8438914,38.888764 22.739819,37.6393258 22.7918552,36.3378277 C22.8438914,34.77603 23,33.1621723 23.1561086,31.6003745 C23.260181,30.2988764 23.3642534,29.0494382 23.5723982,27.7479401 C23.780543,26.6026217 24.0927602,25.4573034 24.3529412,24.311985 C24.561086,23.3749064 24.9253394,22.6981273 25.9660633,22.5940075 C26.1742081,22.5940075 26.5904977,22.5419476 26.6425339,22.5940075 C26.7466063,22.8022472 26.7986425,23.1146067 26.6945701,23.3749064 C26.4864253,24.2078652 26.1742081,25.040824 26.0180995,25.9258427 C25.8099548,27.071161 25.7579186,28.2164794 25.6538462,29.4138577 C25.5497738,30.611236 25.3936652,31.8086142 25.3936652,33.0059925 C25.341629,34.5157303 25.1334842,36.0254682 25.2375566,37.535206 C25.2895928,38.0037453 25.1855204,38.4202247 25.1855204,38.888764 C25.1855204,40.5546816 25.2375566,42.2205993 25.2895928,43.8865169 L25.2895928,46.9059925 C25.2895928,48.1554307 25.3936652,49.4048689 25.7058824,50.6022472 C26.1742081,52.7367041 26.5384615,54.871161 27.0588235,56.9535581 C27.3710407,58.2029963 27.8393665,59.4003745 28.2036199,60.5977528 C28.9841629,63.252809 29.8167421,65.8558052 30.5452489,68.5108614 C31.2217195,70.8535581 31.7420814,73.2483146 32.3665158,75.5910112 C32.8868778,77.4131086 33.459276,79.1310861 34.0316742,80.9531835 C34.8122172,83.4 35.6968326,85.8468165 36.061086,88.3977528 C36.1651584,89.2827715 36.3733032,90.1157303 36.061086,90.8445693 C35.4886878,90.7925094 34.9683258,90.6883895 34.760181,90.2198502 C34.8122172,90.1677903 34.9683258,90.1157303 35.0723982,90.0636704 C34.9683258,90.0116105 34.9162896,89.8554307 34.8122172,89.8554307 C34.2918552,89.8554307 34.239819,89.3868914 34.1357466,89.0745318 C33.5633484,87.6168539 33.0950226,86.159176 32.5746606,84.7014981 C31.9502262,82.8273408 31.2737557,80.9011236 30.6493213,79.0269663 C30.2330317,77.6734082 29.8167421,76.3719101 29.4004525,75.0183521 C29.3484163,75.2265918 29.1923077,75.4348315 29.1923077,75.5910112 C29.1402715,76.47603 29.0882353,77.3089888 29.1402715,78.1940075 C29.2443439,79.5475655 29.0361991,80.8490637 28.6719457,82.1505618 C28.0995475,84.5973783 27.6312217,87.0962547 27.0067873,89.5430712 C26.7466063,90.7404494 26.4864253,91.9378277 26.0701357,93.135206 C25.3936652,95.1655431 24.9773756,97.3 24.4049774,99.3303371 C23.9886878,100.892135 23.4683258,102.453933 23,104.01573 C22.219457,106.618727 21.4909502,109.221723 20.7104072,111.772659 C20.3461538,113.022097 19.8778281,114.271536 19.5135747,115.520974 C18.9932127,117.343071 18.5769231,119.217228 18.1085973,121.039326 C18.0045249,121.403745 18.3687783,121.716105 18.0565611,122.028464 C18.4728507,122.392884 18.8371041,122.861423 19.3574661,123.069663 C20.5542986,123.590262 21.8031674,124.006742 23.0520362,124.475281 C23.260181,124.527341 23.4683258,124.527341 23.6244344,124.579401 C24.4570136,124.94382 25.2895928,125.30824 26.1221719,125.672659 C27.1108597,126.037079 28.0995475,126.297378 29.0882353,126.661798 C30.1809955,127.026217 31.2737557,127.494757 32.3665158,127.859176 C33.3552036,128.171536 34.3959276,128.483895 35.3846154,128.796255 C36.581448,129.160674 37.7782805,129.629213 38.9751131,129.993633 C40.2760181,130.358052 41.6809955,130.618352 42.9819005,130.982772 C43.5542986,131.138951 44.1266968,131.295131 44.699095,131.399251 C45.1674208,131.503371 45.6877828,131.399251 46.1561086,131.503371 C46.8325792,131.607491 47.5090498,131.91985 48.2375566,131.97191 C49.3303167,132.12809 50.4751131,132.18015 51.5678733,132.23221 C52.5565611,132.28427 53.5452489,132.33633 54.5339367,132.33633 C56.3552036,132.33633 58.2285068,132.28427 60.0497738,132.23221 C61.1425339,132.23221 62.2352941,132.28427 63.3280543,132.02397 C64.4728507,131.71161 65.7217195,131.659551 66.918552,131.503371 C68.6877828,131.295131 70.4570136,130.982772 72.2262443,130.462172 C74.8280543,129.681273 77.5339367,129.108614 80.1357466,128.431835 C81.3846154,128.067416 82.6334842,127.650936 83.8823529,127.234457 C85.4434389,126.661798 87.0565611,126.141199 88.6176471,125.516479 C89.7624434,125.04794 90.8031674,124.423221 91.8959276,123.850562 C92.6244344,123.486142 93.300905,122.965543 94.0294118,122.653184 C95.0701357,122.184644 95.0701357,122.236704 94.861991,121.195506 C94.6538462,120.206367 94.4457014,119.217228 94.1855204,118.22809 C93.8733032,117.082772 93.4570136,115.937453 93.1447964,114.740075 C92.9366516,113.907116 92.8325792,113.074157 92.6764706,112.241199 C92.520362,111.35618 92.260181,110.419101 92.1561086,109.534082 C92.0520362,108.492884 92.1040724,107.451685 91.1674208,106.670787 C90.5950226,106.202247 90.178733,105.629588 89.6063348,105.161049 C89.0859729,104.744569 88.6176471,104.27603 88.6176471,103.651311 C88.6176471,102.037453 88.5656109,100.423596 88.7737557,98.8097378 C89.0339367,96.8314607 88.7737557,94.9573034 87.9411765,93.135206 C87.4728507,92.0419476 86.9004525,91.0007491 86.4841629,89.9074906 C86.1199095,88.8662921 85.8597285,87.7730337 85.5995475,86.7318352 C85.4434389,86.0550562 85.4434389,85.3782772 85.3914027,84.7014981 C85.2873303,83.7123596 85.0271493,82.723221 85.0271493,81.7861423 C85.0271493,80.2764045 85.1312217,78.7666667 85.2352941,77.2569288 C85.2873303,76.0074906 85.3914027,74.8101124 85.4954751,73.5606742 C85.7556561,71.3741573 86.0678733,69.1355805 86.3280543,66.9490637 C86.6402715,64.7104869 86.9004525,62.4198502 87.1606335,60.1812734 C87.3167421,58.7235955 87.4728507,57.2138577 87.5769231,55.7561798 C87.6809955,54.2985019 87.7850679,52.840824 87.8371041,51.3831461 C87.8891403,50.1337079 87.9411765,48.8842697 87.9411765,47.6348315 C87.9411765,47.1662921 87.8891403,46.6977528 87.8891403,46.2292135 C87.9411765,44.5632959 88.1493213,42.8453184 88.0972851,41.1794007 C88.0452489,39.3573034 87.7850679,37.535206 87.6289593,35.7131086 C87.4728507,34.0992509 87.2647059,32.4853933 87.0565611,30.8194757 C86.8484163,28.8411985 86.6402715,26.8629213 86.4841629,24.8846442 C86.4321267,24.1558052 86.7443439,23.9475655 87.3687783,24.2078652 L87.3687783,23.6872659 C87.3687783,23.5831461 87.4208145,23.4790262 87.4728507,23.3749064 C87.6289593,23.4269663 87.8371041,23.4790262 87.8891403,23.5831461 C88.2013575,24.3640449 88.5135747,25.1970037 88.7217195,26.0299625 C88.9819005,27.1752809 89.138009,28.3726592 89.39819,29.5179775 C89.5022624,29.9865169 89.7104072,30.4550562 89.7624434,30.9235955 C89.9705882,32.1730337 90.1266968,33.4224719 90.2828054,34.72397 C90.438914,35.9734082 90.6470588,37.2228464 90.7511312,38.4722846 C90.8031674,38.888764 90.699095,39.3573034 90.6470588,39.8258427 C90.6470588,39.8779026 90.699095,39.9820225 90.699095,39.9820225 L90.959276,39.9820225 C90.9072398,39.5655431 91.3755656,39.4093633 91.479638,39.0449438 C91.5316742,38.7325843 91.5837104,38.3681648 91.6357466,38.0558052 C91.7918552,37.0146067 92,36.0254682 92.1561086,34.9842697 C92.1561086,34.8280899 92.3642534,34.72397 92.3642534,34.6198502 C92.3122172,33.7868914 92.4683258,33.3183521 93.0927602,32.8498127 C93.4049774,32.5895131 93.7171946,32.3292135 94.1334842,31.964794 C94.081448,32.5374532 93.9773756,33.0059925 94.0294118,33.4745318 C94.081448,34.2033708 94.0294118,34.5157303 93.6131222,35.0883895 C93.6131222,35.1404494 93.6131222,35.2445693 93.6651584,35.2966292 C93.7171946,35.4007491 93.8733032,35.452809 93.8733032,35.5048689 C93.821267,36.129588 93.7171946,36.7022472 93.6131222,37.3269663 C93.5090498,37.8475655 93.300905,38.3161049 93.1968326,38.8367041 C93.0927602,39.3573034 93.040724,39.8779026 93.040724,40.4505618 C93.040724,40.9191011 92.6764706,41.2835206 92.7285068,41.8561798 C92.7285068,42.5850187 92.4162896,43.3138577 92.260181,43.9906367 C92.0520362,44.8235955 91.7918552,45.6565543 91.5837104,46.4895131 C91.5837104,46.593633 91.6877828,46.8539326 91.739819,46.8539326 C92.3122172,46.7498127 92.8325792,46.593633 93.4049774,46.4374532 C93.6651584,46.3333333 93.8733032,46.1250936 94.1334842,46.0209738 C95.1742081,45.6044944 96.2669683,45.2400749 97.3076923,44.8756554 C98.1923077,44.5632959 99.0769231,44.1988764 99.9615385,43.8865169 C100.533937,43.6782772 101.106335,43.5741573 101.626697,43.3138577 C103.08371,42.6370787 104.488688,41.9082397 105.893665,41.1794007 C106.830317,40.7108614 107.714932,40.294382 108.651584,39.8779026 C109.276018,39.617603 109.900452,39.1490637 110.524887,39.1490637 C111.409502,39.2011236 110.941176,38.5764045 110.88914,38.4722846 C110.576923,37.7434457 110.160633,37.1187266 109.848416,36.3898876 C109.223982,34.72397 108.651584,33.0580524 108.079186,31.3921348 C107.662896,30.2468165 107.298643,29.0494382 106.882353,27.9041199 C106.257919,26.0299625 105.68552,24.1558052 105.061086,22.229588 C104.748869,21.1363296 104.540724,19.9910112 104.124434,18.8977528 C103.5,17.1797753 102.927602,15.4097378 101.730769,14.0041199 C100.950226,13.0670412 100.117647,12.0779026 99.1289593,11.3490637 C97.8800905,10.411985 96.5271493,9.57902622 95.0180995,9.05842697 C93.9773756,8.69400749 92.9886878,8.27752809 91.9479638,7.96516854 C90.959276,7.65280899 89.8665158,7.54868914 88.8778281,7.23632959 C87.9932127,6.97602996 87.1085973,6.61161049 86.2239819,6.29925094 C84.6628959,5.72659176 83.0497738,5.20599251 81.4886878,4.63333333 C81.020362,4.47715356 80.8642534,4.73745318 80.7081448,4.99775281 C80.6561086,5.04981273 80.7081448,5.15393258 80.6561086,5.20599251 C79.9276018,5.77865169 79.4072398,6.55955056 78.9909502,7.49662921 Z M43.2941176,2.75917603 C42.4615385,2.81123596 41.7850679,2.86329588 41.0565611,2.96741573 C40.9524887,2.96741573 40.8484163,3.17565543 40.8484163,3.17565543 C41.2647059,3.69625468 41.6289593,4.37303371 42.1493213,4.73745318 C43.6063348,5.67453184 45.1153846,6.55955056 46.6244344,7.39250936 C47.4570136,7.86104869 48.341629,8.32958801 49.2262443,8.58988764 C50.5271493,9.00636704 51.8280543,9.26666667 53.1809955,9.47490637 C54.89819,9.73520599 56.6674208,9.83932584 58.3846154,9.68314607 C59.6334842,9.57902622 60.8823529,9.57902622 62.1312217,9.42284644 C63.1719457,9.31872659 64.2126697,9.05842697 65.2533937,8.79812734 C67.3348416,8.32958801 69.260181,7.49662921 71.081448,6.40337079 C72.4864253,5.57041199 73.6312217,4.47715356 74.6719457,3.27977528 C74.7239819,3.22771536 74.7760181,3.12359551 74.7760181,3.01947566 C74.6719457,3.01947566 74.5678733,2.96741573 74.4638009,2.96741573 C73.3190045,3.07153558 72.1742081,3.17565543 71.081448,3.33183521 C69.5723982,3.54007491 68.0633484,3.85243446 66.5542986,4.11273408 L66.4502262,4.11273408 C66.4502262,3.48801498 66.138009,3.90449438 65.9298643,3.95655431 C65.6696833,4.00861423 65.3574661,3.90449438 65.1493213,4.06067416 C64.7850679,4.32097378 64.4728507,3.85243446 64.1606335,4.00861423 C63.7963801,4.21685393 63.4321267,4.26891386 63.0158371,4.06067416 C62.7556561,3.95655431 62.2873303,3.90449438 62.1312217,4.06067416 C61.7149321,4.52921348 61.1945701,4.06067416 60.7262443,4.32097378 C60.361991,4.52921348 59.7895928,4.37303371 59.321267,4.37303371 C58.4886878,4.42509363 57.6561086,4.47715356 56.8755656,4.47715356 C56.3552036,4.47715356 55.7828054,4.32097378 55.2624434,4.26891386 C54.638009,4.21685393 53.9615385,4.32097378 53.3371041,4.21685393 C52.2443439,4.06067416 51.1515837,3.85243446 50.1108597,3.59213483 C49.7466063,3.48801498 49.1742081,3.54007491 49.0180995,3.01947566 C49.0180995,2.96741573 48.6538462,3.01947566 48.4977376,3.07153558 C48.3936652,3.07153558 48.2895928,3.27977528 48.1855204,3.22771536 C47.6131222,2.96741573 46.9886878,3.07153558 46.4162896,3.07153558 C45.3235294,3.01947566 44.2307692,2.86329588 43.2941176,2.75917603 Z M95.6425339,124.214981 C95.1742081,124.631461 94.7058824,125.04794 94.2375566,125.3603 C93.5090498,125.776779 92.7285068,126.141199 92,126.557678 C91.0113122,127.078277 90.0746606,127.650936 89.0859729,128.119476 C88.3574661,128.483895 87.5769231,128.744195 86.8484163,129.004494 C85.8597285,129.368914 84.8190045,129.733333 83.7782805,130.045693 C82.9457014,130.305993 82.1651584,130.514232 81.3325792,130.722472 C80.1357466,131.034831 78.938914,131.503371 77.6900452,131.71161 C76.6493213,131.86779 75.6085973,132.492509 74.5158371,132.18015 C74.4638009,132.18015 74.4117647,132.28427 74.3597285,132.28427 C74.2036199,132.38839 74.0995475,132.440449 73.9434389,132.492509 C73.2149321,132.752809 72.4864253,132.544569 71.7579186,132.908989 C71.1855204,133.221348 70.3529412,132.961049 69.6764706,133.117228 C68.6357466,133.377528 67.6470588,133.794007 66.5542986,134.002247 C65.0452489,134.262547 63.5882353,134.679026 62.0791855,134.470787 C61.6628959,134.418727 61.1945701,134.418727 60.7782805,134.418727 C60.2058824,134.418727 59.581448,134.522846 59.0090498,134.522846 C57.4479638,134.522846 55.938914,134.574906 54.3778281,134.522846 C53.3891403,134.470787 52.3484163,134.314607 51.3597285,134.262547 C50.2149321,134.210487 49.0701357,134.262547 47.9253394,134.106367 C47.040724,134.002247 46.2081448,133.950187 45.3235294,133.585768 C44.7511312,133.325468 43.9705882,133.533708 43.2941176,133.273408 C42.5135747,133.013109 41.6809955,132.856929 40.9004525,132.648689 C39.9638009,132.440449 39.0271493,132.23221 38.0904977,131.97191 C37.2579186,131.76367 36.4773756,131.659551 35.6447964,131.399251 C34.1357466,130.930712 32.678733,130.410112 31.1696833,129.889513 C29.7647059,129.420974 28.3597285,129.108614 27.0067873,128.588015 C25.4457014,128.015356 23.9366516,127.286517 22.3755656,126.609738 C21.5429864,126.245318 20.7104072,125.828839 20.0339367,125.30824 C19.4615385,124.8397 19.1493213,124.058801 18.3687783,123.746442 C18.0045249,123.590262 17.7443439,123.329963 17.7443439,124.006742 C17.7443439,124.162921 17.6923077,124.319101 17.6402715,124.475281 C17.4841629,124.99588 17.3800905,125.516479 18.1606335,125.672659 C18.2647059,125.672659 18.3687783,125.828839 18.4728507,125.880899 C19.2533937,126.349438 20.0339367,126.870037 20.8665158,127.286517 C21.699095,127.702996 22.5837104,127.963296 23.3642534,128.327715 C23.8846154,128.535955 24.3529412,128.900375 24.8733032,129.108614 C26.5904977,129.733333 28.2556561,130.358052 29.9728507,130.930712 C32.0022624,131.659551 34.0316742,132.440449 36.1131222,133.065169 C37.4140271,133.481648 38.7669683,133.689888 40.0678733,133.950187 C41.4208145,134.210487 42.8257919,134.418727 44.178733,134.731086 C45.2714932,134.939326 46.3122172,135.303745 47.4049774,135.511985 C47.9253394,135.616105 48.4977376,135.616105 49.0701357,135.668165 C49.9027149,135.772285 50.7352941,135.928464 51.5678733,135.980524 C52.5045249,136.032584 53.4932127,135.980524 54.4298643,135.980524 C56.0950226,136.032584 57.7081448,136.136704 59.3733032,136.188764 C60.2579186,136.188764 61.1425339,136.136704 62.0271493,136.084644 C63.7963801,135.980524 65.5656109,135.876404 67.3348416,135.720225 C68.0633484,135.668165 68.739819,135.511985 69.4683258,135.407865 C69.6764706,135.355805 69.9366516,135.459925 70.1447964,135.355805 C70.8733032,135.095506 71.60181,134.835206 72.3823529,134.783146 C73.0588235,134.783146 73.7873303,134.731086 74.4117647,134.314607 C74.7760181,134.054307 75.2963801,134.210487 75.6085973,133.846067 C75.7647059,133.689888 76.0248869,133.637828 76.2850679,133.585768 C77.89819,133.065169 79.5633484,132.544569 81.1764706,131.97191 C82.3733032,131.555431 83.5701357,131.086891 84.7669683,130.566292 C86.3280543,129.941573 87.9411765,129.420974 89.4502262,128.640075 C90.438914,128.119476 91.4276018,127.755056 92.4683258,127.338577 C93.2488688,127.026217 94.081448,126.765918 94.8099548,126.453558 C95.1221719,126.297378 95.6425339,126.297378 95.5904977,125.672659 C95.5904977,125.568539 95.7986425,125.464419 95.9027149,125.3603 C95.9547511,125.30824 96.0588235,125.20412 96.0067873,125.1 C95.9027149,124.94382 95.7466063,124.579401 95.6425339,124.214981 Z M36.7375566,3.74831461 C36.8936652,3.95655431 37.0497738,4.16479401 37.2058824,4.37303371 C37.5701357,4.78951311 37.9343891,5.20599251 38.2986425,5.62247191 C38.6108597,5.98689139 38.9751131,6.29925094 39.3393665,6.61161049 C40.0678733,7.28838951 40.6923077,8.01722846 41.4728507,8.58988764 C41.9932127,9.00636704 42.6696833,9.16254682 43.2420814,9.52696629 C43.5542986,9.68314607 43.7624434,9.99550562 44.0746606,10.1516854 C45.2714932,10.7764045 46.4162896,11.4531835 47.6131222,11.9737828 C48.7058824,12.4423221 49.8506787,12.8067416 51.0475113,13.0149813 C52.7126697,13.3273408 54.4298643,13.4835206 56.1470588,13.5876404 C57.0837104,13.6397004 58.020362,13.5355805 58.9570136,13.4314607 C59.4773756,13.3794007 60.0497738,13.3273408 60.5701357,13.2752809 C61.2466063,13.223221 61.9230769,13.171161 62.5995475,13.0670412 C63.6402715,12.9108614 64.6809955,12.7546816 65.7217195,12.494382 C66.8665158,12.2340824 68.0633484,12.0258427 69.0520362,11.5573034 C71.081448,10.5161049 73.1108597,9.37078652 75.0361991,8.06928839 C76.4411765,7.13220974 77.7420814,5.98689139 78.6266968,4.52921348 C78.7828054,4.26891386 79.0429864,4.00861423 79.2511312,3.74831461 C78.9909502,3.59213483 78.7307692,3.48801498 78.4705882,3.33183521 C78.418552,3.27977528 78.3665158,3.17565543 78.3144796,3.12359551 C78.1063348,3.07153558 77.7941176,3.07153558 77.7941176,3.12359551 C77.5339367,3.80037453 76.4932127,3.80037453 76.4932127,4.63333333 C76.4932127,4.68539326 76.3891403,4.68539326 76.3371041,4.73745318 C76.1809955,4.89363296 76.0248869,4.99775281 75.9208145,5.20599251 C75.8167421,5.36217228 75.8167421,5.62247191 75.6606335,5.77865169 C74.2036199,7.28838951 72.4343891,8.32958801 70.6131222,9.31872659 C68.6877828,10.3599251 66.6063348,10.8284644 64.5248869,11.3490637 C63.6402715,11.5573034 62.7036199,11.5052434 61.8190045,11.7134831 C61.0384615,11.8696629 60.3099548,11.7655431 59.5294118,11.817603 C57.2918552,12.0779026 55.0542986,12.1299625 52.8167421,11.6614232 C50.9434389,11.2970037 49.0701357,10.9846442 47.300905,10.0996255 C46.1040724,9.52696629 44.9072398,8.90224719 43.7104072,8.27752809 C43.5022624,8.17340824 43.39819,8.01722846 43.1900452,7.91310861 C42.7217195,7.65280899 42.2533937,7.44456929 41.8371041,7.18426966 C41.5248869,7.02808989 41.2126697,6.81985019 41.0045249,6.50749064 C40.4841629,5.77865169 39.9638009,4.99775281 39.4954751,4.26891386 C39.3914027,4.06067416 39.2352941,3.85243446 39.2352941,3.64419476 C39.2873303,3.22771536 39.0271493,3.22771536 38.7669683,3.27977528 C38.1425339,3.48801498 37.4660633,3.64419476 36.7375566,3.74831461 Z M23,48.4677903 C23,48.4157303 22.9479638,48.1033708 22.7918552,48.0513109 C22.2714932,47.8430712 21.699095,47.7389513 21.1266968,47.6348315 C20.8144796,47.5827715 20.4502262,47.6868914 20.138009,47.5827715 C19.4095023,47.3745318 18.6809955,47.0621723 17.9524887,46.8539326 C17.6923077,46.7498127 17.2239819,46.9059925 17.0678733,46.6977528 C16.8076923,46.3333333 16.5475113,46.3333333 16.1832579,46.4895131 C16.1312217,46.4895131 16.0791855,46.4895131 16.0791855,46.4374532 C15.6108597,45.8127341 14.8303167,46.1250936 14.2579186,45.8127341 C13.7895928,45.5524345 13.1131222,45.8127341 12.9049774,45.6044944 C12.4366516,45.1359551 11.8642534,45.3962547 11.3438914,45.0318352 C10.9276018,44.7194757 10.2511312,44.6153558 9.73076923,44.2509363 C9.52262443,44.0947566 9.26244344,43.9385768 9.00226244,43.8865169 C8.11764706,43.5741573 7.18099548,43.3659176 6.40045249,42.8973783 C5.8280543,42.5850187 5.25565611,42.428839 4.68325792,42.2205993 C4.11085973,42.0123596 3.59049774,41.5958801 3.01809955,41.2314607 C2.91402715,41.1794007 2.86199095,41.0752809 2.80995475,41.0752809 C2.39366516,41.2314607 2.28959276,41.9082397 2.65384615,42.1685393 C3.07013575,42.428839 3.43438914,42.7411985 3.90271493,42.9494382 C4.73529412,43.3659176 5.6199095,43.782397 6.50452489,44.1988764 C6.92081448,44.4071161 7.33710407,44.6674157 7.75339367,44.8756554 C8.27375566,45.1359551 8.74208145,45.4483146 9.26244344,45.6565543 C10.0950226,46.0209738 10.979638,46.3333333 11.8642534,46.6456929 C11.9162896,46.6977528 12.020362,46.6456929 12.1244344,46.6977528 C13.1651584,46.9580524 14.1538462,47.270412 15.1945701,47.5307116 C15.5588235,47.6348315 15.9230769,47.7910112 16.2873303,47.8430712 C17.0678733,47.9992509 17.9004525,47.9992509 18.5769231,48.3116105 C19.7737557,48.7801498 20.9705882,49.1966292 22.219457,49.5610487 C22.9479638,49.7172285 23,49.7172285 23.0520362,48.9363296 C23,48.8322097 23,48.7280899 23,48.4677903 Z M90.6470588,50.4460674 C91.6357466,49.9775281 92.5723982,49.4569288 93.6131222,49.0404494 C94.60181,48.62397 95.6945701,48.4677903 96.6832579,48.1554307 C98.8687783,47.5307116 100.846154,46.4895131 102.927602,45.6044944 C103.708145,45.2921348 104.488688,45.0318352 105.217195,44.6674157 C105.945701,44.3029963 106.726244,44.1988764 107.454751,43.7303371 C108.079186,43.3138577 108.859729,43.0535581 109.588235,42.7411985 C110.420814,42.3247191 111.149321,41.7520599 112.033937,41.5438202 C112.918552,41.2835206 112.39819,41.0752809 112.138009,40.8149813 C112.033937,40.7108614 112.033937,40.5546816 111.9819,40.4505618 C111.929864,40.3464419 111.773756,40.294382 111.721719,40.294382 C111.253394,40.5026217 110.837104,40.7108614 110.420814,40.9191011 C110.056561,41.1273408 109.640271,41.3355805 109.276018,41.5438202 C108.651584,41.8041199 108.027149,42.0644195 107.402715,42.3247191 C106.5181,42.7411985 105.633484,43.2097378 104.696833,43.6262172 C104.332579,43.782397 103.91629,43.8344569 103.552036,43.9906367 C103.239819,44.0947566 103.031674,44.3550562 102.719457,44.459176 C102.303167,44.6153558 102.042986,45.0838951 101.470588,44.9277154 C101.31448,44.8756554 101.054299,45.2400749 100.846154,45.3441948 C99.4411765,45.9689139 97.9841629,46.4895131 96.5791855,47.1142322 C95.7986425,47.4265918 95.0701357,47.7910112 94.2895928,48.1033708 C93.821267,48.3116105 93.3529412,48.4157303 92.8325792,48.5719101 C92.520362,48.67603 92.2081448,48.7280899 91.9479638,48.8322097 C91.8438914,48.8842697 91.739819,48.9883895 91.6877828,48.9883895 C91.0113122,48.8322097 90.959276,49.3007491 90.9072398,49.7172285 C90.699095,49.9254682 90.6470588,50.1857678 90.6470588,50.4460674 Z M93.6131222,6.09101124 C93.6131222,6.09101124 93.6131222,6.14307116 93.6131222,6.09101124 C93.6131222,6.14307116 93.6651584,6.14307116 93.6651584,6.14307116 C93.6651584,6.14307116 93.6651584,6.09101124 93.6131222,6.09101124 L93.6131222,6.09101124 Z M91.6877828,38.3681648 L91.6357466,38.3161049 L91.5837104,38.3681648 C91.5837104,38.3681648 91.6357466,38.4202247 91.6877828,38.3681648 C91.6357466,38.4202247 91.6357466,38.4202247 91.6877828,38.3681648 Z M93.4570136,127.442697 L93.4570136,127.442697 C93.4570136,127.494757 93.5090498,127.494757 93.5090498,127.494757 C93.5090498,127.442697 93.5090498,127.442697 93.4570136,127.442697 L93.4570136,127.442697 Z" id="Shape"/>
                <path d="M76.9615385,114.479775 C76.7533937,114.271536 76.4932127,114.011236 76.2850679,113.802996 C76.0769231,113.542697 75.8687783,113.386517 76.1809955,112.917978 C77.1176471,111.51236 77.89819,110.054682 78.7307692,108.597004 C78.8868778,108.284644 79.0950226,108.024345 79.2511312,107.764045 C79.3552036,107.607865 79.459276,107.399625 79.719457,107.659925 C79.8235294,107.764045 80.1357466,107.764045 80.3438914,107.764045 C80.8122172,107.764045 80.8642534,107.972285 80.8122172,108.492884 C80.7081448,109.273783 80.1877828,109.742322 79.8235294,110.367041 C79.3031674,111.2 78.938914,112.085019 78.5226244,112.917978 C78.2104072,113.542697 77.7941176,114.167416 76.9615385,114.479775 Z" id="Shape"/>
                <path d="M84.0384615,109.065543 C83.9343891,109.325843 83.8823529,109.638202 83.7262443,109.898502 C83.4660633,110.419101 83.2058824,110.9397 82.9457014,111.4603 C82.9457014,111.51236 82.9457014,111.564419 82.8936652,111.564419 C82.1131222,111.2 82.7375566,112.241199 82.2692308,112.241199 C82.1131222,112.241199 81.9570136,112.501498 81.800905,112.605618 C81.7488688,112.449438 81.7488688,112.293258 81.6968326,112.189139 C81.6447964,112.137079 81.540724,112.032959 81.4886878,112.032959 C81.3325792,112.032959 81.1764706,112.137079 81.020362,112.137079 C81.0723982,111.980899 81.1764706,111.876779 81.1764706,111.720599 C81.280543,110.314981 81.9570136,109.117603 82.6334842,107.920225 C82.9977376,107.347566 83.4660633,106.774906 83.8823529,106.254307 C84.0904977,105.994007 84.4027149,105.994007 84.6628959,106.202247 C84.7149321,106.254307 84.9751131,106.046067 85.2873303,105.837828 C85.1832579,106.306367 85.1832579,106.774906 85.0271493,107.139326 C84.7669683,107.764045 84.4027149,108.336704 84.0904977,108.961423 C84.0904977,108.909363 84.0904977,108.857303 84.0384615,108.753184 L83.9343891,108.753184 C83.9864253,108.909363 83.9864253,109.013483 84.0384615,109.065543 Z" id="Shape"/>
                <path d="M31.4298643,18.1689139 C31.7941176,18.5853933 32.2624434,18.9498127 32.5226244,19.4183521 C32.7828054,19.8348315 32.938914,20.4074906 33.0950226,20.87603 C33.1470588,21.0842697 33.0429864,21.2925094 33.0429864,21.5007491 C32.8868778,21.4486891 32.7307692,21.4486891 32.5746606,21.3445693 C31.638009,20.82397 31.1696833,20.0430712 31.1696833,18.9498127 C31.1696833,18.8977528 31.0135747,18.793633 31.0135747,18.741573 C31.0656109,18.5333333 31.1176471,18.3771536 31.1696833,18.1689139 C31.2737557,18.2209738 31.3778281,18.1689139 31.4298643,18.1689139 Z" id="Shape"/>
                <path d="M36.0090498,21.0322097 C35.7488688,21.0842697 35.4366516,21.2925094 35.280543,21.1883895 C34.6040724,20.82397 33.979638,20.3554307 33.719457,19.5224719 C33.6674208,19.3662921 33.5633484,19.1580524 33.459276,19.0539326 C33.3031674,18.8456929 33.199095,18.6374532 33.459276,18.3771536 C33.7714932,18.1168539 33.8755656,18.3250936 34.1357466,18.4292135 C34.9683258,18.8456929 35.020362,19.7827715 35.540724,20.4074906 C35.7488688,20.5636704 35.800905,20.7198502 36.0090498,21.0322097 Z" id="Shape"/>
                <path d="M31.3257919,24.2078652 C31.0135747,24.3640449 30.8054299,24.5202247 30.7533937,24.5202247 C30.2330317,24.1558052 29.5565611,23.9996255 29.2963801,23.3749064 C29.2443439,23.2187266 29.1923077,22.958427 29.2963801,22.906367 C29.4524887,22.8022472 29.7647059,22.6981273 29.8687783,22.8022472 C30.3371041,23.1666667 30.8054299,23.635206 31.3257919,24.2078652 Z" id="Shape"/>
            </g>
        </g>
    </g>
</svg>